<svg width="239" height="163" viewBox="0 0 239 163" fill="none" xmlns="http://www.w3.org/2000/svg">
<path d="M0 13.9503C0 6.24578 6.24579 0 13.9504 0H238.319V162.754H13.9503C6.24577 162.754 0 156.508 0 148.804V13.9503Z" fill="#FA7662"/>
<path d="M119.159 134.943C148.716 134.943 172.676 110.982 172.676 81.4249C172.676 51.8678 148.716 27.9071 119.159 27.9071C89.6017 27.9071 65.641 51.8678 65.641 81.4249C65.641 110.982 89.6017 134.943 119.159 134.943Z" fill="#FF8A78"/>
<path d="M84.6227 46.4149L77.6523 46.6011L78.7097 53.4467L88.6027 53.0874L84.6227 46.4149Z" fill="white"/>
<path d="M86.677 48.0736C86.677 48.0736 89.1649 47.1065 90.2799 47.5244C91.2693 47.8967 91.1668 49.4268 90.6605 49.4268C90.412 49.4268 89.8945 48.6981 89.8945 48.6981L88.4808 50.1119L86.677 48.0736Z" fill="white"/>
<path d="M92.4987 50.9821C92.0771 51.1683 89.9094 51.8366 89.9094 51.8366L88.6854 49.9602C90.4538 49.5535 91.8072 49.3506 92.5089 49.641C92.8273 49.7722 93.275 50.6424 92.4987 50.9821Z" fill="white"/>
<path d="M87.8655 51.4717C87.8655 51.4717 94.7353 51.1924 94.9726 52.0301C95.21 52.8678 89.3799 53.0065 89.3799 53.0065L87.8655 51.4717Z" fill="white"/>
<path d="M88.8326 48.2449C88.5013 48.6386 88.8139 49.2556 89.1686 49.6047C89.5232 49.9537 89.969 50.1631 90.4083 49.735C90.8672 49.2864 90.2296 48.4934 90.0965 48.3389C90.0277 48.2385 89.9372 48.1548 89.8317 48.0941C89.7263 48.0334 89.6085 47.9972 89.4871 47.9881C89.3658 47.9791 89.2439 47.9975 89.1306 48.0419C89.0173 48.0864 88.9155 48.1557 88.8326 48.2449Z" fill="#0A1A29"/>
<path d="M90.2798 47.5253C91.2692 47.8976 91.1678 49.4278 90.6605 49.4278C90.412 49.4278 89.9913 48.8405 89.8229 48.5352C89.6544 48.2299 89.1648 47.1074 90.2798 47.5253Z" fill="white"/>
<path d="M85.735 46.4862C85.735 46.4862 87.6402 45.1637 88.7552 45.5816C89.7446 45.9539 89.6423 47.484 89.136 47.484C88.8875 47.484 88.4602 46.8958 88.4602 46.8958L87.1693 48.3915L85.735 46.4862Z" fill="white"/>
<path d="M87.3079 46.3004C86.9766 46.6941 87.2894 47.3112 87.644 47.6602C87.9986 48.0092 88.4443 48.2187 88.8837 47.7905C89.3434 47.3419 88.705 46.5489 88.5719 46.3944C88.5031 46.294 88.4127 46.2103 88.3072 46.1496C88.2017 46.0889 88.0838 46.0527 87.9625 46.0437C87.8411 46.0347 87.7193 46.053 87.606 46.0975C87.4927 46.1419 87.3908 46.2113 87.3079 46.3004Z" fill="#0A1A29"/>
<path d="M88.7562 45.581C89.7447 45.9533 89.6433 47.4834 89.137 47.4834C88.8885 47.4834 88.4677 46.8961 88.2993 46.5909C88.1308 46.2856 87.6403 45.1631 88.7562 45.581Z" fill="white"/>
<path d="M90.332 50.1742C90.0006 50.5679 90.3133 51.185 90.6679 51.534C91.0226 51.8831 91.4675 52.0925 91.9077 51.6644C92.3675 51.2157 91.7289 50.4228 91.5959 50.2683C91.5271 50.1678 91.4366 50.0842 91.3311 50.0235C91.2256 49.9628 91.1079 49.9265 90.9865 49.9175C90.8652 49.9085 90.7433 49.9269 90.63 49.9713C90.5167 50.0158 90.4149 50.0851 90.332 50.1742Z" fill="#0A1A29"/>
<path d="M92.9232 50.4023C92.9303 50.6616 92.8571 50.9168 92.7137 51.1329C92.6832 51.1986 92.636 51.2552 92.5768 51.297C92.5175 51.3388 92.4484 51.3643 92.3762 51.371C92.3041 51.3777 92.2315 51.3653 92.1656 51.3351C92.0997 51.305 92.0428 51.258 92.0007 51.199C91.7276 50.8183 91.5084 50.4017 91.3492 49.9611L92.9232 50.4023Z" fill="white"/>
<path d="M81.4872 42.3913C81.4872 42.3913 79.6256 41.9865 79.3975 43.4338C79.0513 45.6024 82.1899 51.3451 83.9583 54.4407C85.7267 57.5364 87.3294 61.0611 89.9504 60.7148C91.7235 60.4812 92.0706 58.8851 92.0073 57.5038L90.8671 55.9299C90.8671 55.9299 91.2496 58.8385 89.7707 59.02C88.5542 59.1689 87.4345 58.0511 86.3567 56.1021C83.8754 51.6178 81.3446 47.2377 81.0077 45.0719C80.7071 43.1397 82.172 43.4896 82.172 43.4896L81.4872 42.3913Z" fill="#D44631"/>
<path d="M62.2188 106.977C62.3659 107.278 60.871 109.004 60.0231 109.946C61.905 112.823 64.809 116.623 66.179 118.248C66.73 118.899 67.6208 120.127 68.2993 119.451C68.9778 118.776 70.0676 109.757 69.9038 109.436C69.74 109.116 64.2636 101.095 63.9081 101.076C62.1629 100.978 57.6721 104.24 57.3706 105.163C57.244 105.542 58.3785 107.353 59.1584 108.589C60.1953 107.89 62.0718 106.678 62.2188 106.977Z" fill="#D44631"/>
<path d="M61.1484 108.649C60.7631 109.114 60.3488 109.585 60.0259 109.945C61.9078 112.822 64.8118 116.622 66.1818 118.247C66.7328 118.898 67.6236 120.126 68.3021 119.45C68.4257 119.278 68.5132 119.083 68.5598 118.876L61.1484 108.649Z" fill="#0A1A29"/>
<path d="M59.1623 108.589C59.5346 108.337 60.0139 108.021 60.483 107.73L58.0332 104.347C57.7605 104.571 57.5363 104.849 57.3743 105.163C57.2467 105.542 58.3824 107.352 59.1623 108.589Z" fill="#0A1A29"/>
<path d="M81.1957 84.1891L72.0046 69.7979L81.3166 67.378L82.1544 66.9275C82.1544 66.9275 91.9615 78.2621 93.6555 82.2532C95.3495 86.2442 93.0506 89.1463 90.2695 92.0493C87.4884 94.9523 70.5573 109.947 70.5573 109.947C70.5573 109.947 64.8733 107.044 63.4222 101.119L81.1957 84.1891Z" fill="#0A1A29"/>
<path d="M68.6718 109.35C68.6908 109.35 68.7092 109.343 68.7238 109.331C68.7834 109.282 74.7737 104.329 80.6671 98.8734C88.5989 91.5345 92.6003 86.824 92.5584 84.8741C92.5249 83.2825 90.4175 79.8304 86.3027 74.6117C83.2424 70.7333 80.1525 67.2747 80.1218 67.2393C80.1072 67.2234 80.087 67.2138 80.0654 67.2126C80.0439 67.2114 80.0226 67.2186 80.0064 67.2328C79.9902 67.2473 79.9805 67.2675 79.9793 67.2892C79.9781 67.3108 79.9854 67.3321 79.9998 67.3483C80.1226 67.486 92.3164 81.1568 92.3955 84.877C92.4886 89.4292 68.8589 109.008 68.6197 109.206C68.6115 109.213 68.6047 109.221 68.5997 109.23C68.5948 109.24 68.5916 109.25 68.5907 109.261C68.5897 109.271 68.5909 109.282 68.5941 109.292C68.5973 109.302 68.6024 109.312 68.6093 109.32C68.6168 109.329 68.6264 109.337 68.6372 109.342C68.648 109.347 68.6598 109.35 68.6718 109.35Z" fill="#F7CEC1"/>
<path d="M65.953 106.919C65.9724 106.919 65.9914 106.912 66.0061 106.899C66.9769 106.076 89.7827 86.7356 89.5445 84.4683C89.2485 81.6566 81.046 73.2185 80.6969 72.8611C80.6816 72.8458 80.6608 72.8372 80.6392 72.8372C80.6176 72.8372 80.5968 72.8458 80.5815 72.8611C80.5739 72.8686 80.5677 72.8775 80.5636 72.8874C80.5594 72.8973 80.5574 72.9079 80.5574 72.9187C80.5574 72.9294 80.5594 72.9401 80.5636 72.95C80.5677 72.9599 80.5739 72.9689 80.5815 72.9764C80.6662 73.0639 89.0932 81.731 89.3836 84.487C89.4487 85.1087 87.4829 87.6868 77.7436 96.4377C71.905 101.684 65.9614 106.721 65.9018 106.769C65.8937 106.776 65.887 106.784 65.8821 106.794C65.8772 106.803 65.8743 106.814 65.8734 106.824C65.8726 106.835 65.8738 106.846 65.8771 106.856C65.8804 106.866 65.8856 106.875 65.8925 106.883C65.8993 106.893 65.9082 106.902 65.9187 106.908C65.9291 106.914 65.9409 106.918 65.953 106.919Z" fill="#F7CEC1"/>
<path d="M64.1705 104.575C64.1815 104.575 64.1923 104.573 64.2023 104.569C64.2124 104.564 64.2216 104.558 64.2292 104.55L76.9962 91.1399C77.0039 91.1324 77.01 91.1234 77.0142 91.1135C77.0183 91.1036 77.0203 91.0929 77.0203 91.0822C77.0203 91.0714 77.0183 91.0608 77.0142 91.0509C77.01 91.041 77.0039 91.032 76.9962 91.0245C76.9887 91.0168 76.9797 91.0108 76.9698 91.0066C76.9599 91.0025 76.9492 91.0004 76.9385 91.0004C76.9277 91.0004 76.917 91.0025 76.9071 91.0066C76.8972 91.0108 76.8883 91.0168 76.8808 91.0245L64.1137 104.435C64.0985 104.45 64.0901 104.471 64.0901 104.492C64.0901 104.514 64.0985 104.535 64.1137 104.55C64.1211 104.558 64.1299 104.564 64.1396 104.568C64.1494 104.573 64.1599 104.575 64.1705 104.575Z" fill="#F7CEC1"/>
<path d="M78.2499 120.287C78.5803 120.332 79.1808 122.534 79.4945 123.762C82.9326 123.8 87.7055 123.502 89.8183 123.267C90.6672 123.174 92.1813 123.115 91.9979 122.175C91.8146 121.236 84.9243 115.312 84.5697 115.269C84.2151 115.227 74.848 114.504 74.634 114.789C73.5813 116.185 73.4493 122.541 74.045 123.305C74.2879 123.622 76.4249 123.686 77.8852 123.726C77.8815 122.475 77.9186 120.241 78.2499 120.287Z" fill="#D44631"/>
<path d="M79.0428 122.109C79.2132 122.687 79.3762 123.294 79.4944 123.762C82.9325 123.8 87.7052 123.502 89.818 123.267C90.6668 123.174 92.1821 123.115 91.9978 122.176C91.9234 121.977 91.8102 121.796 91.6647 121.642L79.0428 122.109Z" fill="#0A1A29"/>
<path d="M73.7822 122.301C73.8062 122.623 73.8801 122.939 74.0011 123.237C74.0148 123.261 74.0301 123.284 74.0467 123.305C74.2878 123.619 76.4248 123.683 77.886 123.723C77.886 123.417 77.886 123.048 77.8963 122.667C77.8963 122.574 77.8961 122.481 77.9026 122.388C77.9091 122.295 77.9027 122.228 77.9092 122.149L73.7822 122.301Z" fill="#0A1A29"/>
<path d="M62.9486 69.2851C62.9486 69.2851 63.5386 73.1839 67.7707 79.715C71.4937 85.4595 79.8649 95.9201 79.8649 95.9201L74.5438 114.907C78.2758 116.663 82.4736 117.172 86.5169 116.358C86.5169 116.358 93.289 97.2502 92.4429 92.6551C91.5969 88.0601 77.5678 67.8629 77.5678 67.8629L62.9486 69.2851Z" fill="#3F1E18"/>
<path d="M83.6185 117.961C83.6362 117.961 83.6532 117.955 83.6673 117.944C83.6814 117.934 83.6918 117.919 83.6966 117.902C83.9498 117.018 89.8935 96.2153 89.4458 92.9679C88.9981 89.7205 75.6913 69.0264 75.1245 68.1478C75.1188 68.1387 75.111 68.1309 75.1022 68.1248C75.0934 68.1187 75.0836 68.1144 75.0732 68.1121C75.0627 68.1099 75.0519 68.1097 75.0413 68.1117C75.0308 68.1136 75.0208 68.1177 75.0118 68.1236C74.9938 68.1354 74.9811 68.1537 74.9766 68.1748C74.9721 68.1959 74.9759 68.218 74.9875 68.2362C75.1252 68.4512 88.8408 89.7782 89.2838 92.9939C89.7268 96.2096 83.6064 117.644 83.5403 117.861C83.5345 117.881 83.5371 117.904 83.5476 117.922C83.558 117.941 83.5753 117.955 83.596 117.961C83.6034 117.962 83.611 117.962 83.6185 117.961Z" fill="#D44631"/>
<path d="M80.0432 117.678C80.0607 117.678 80.0778 117.673 80.0919 117.662C80.1059 117.652 80.1165 117.637 80.1216 117.62C80.1821 117.421 86.202 97.6597 85.9283 93.3773C85.8353 91.9291 83.8083 89.0112 81.4609 85.6308C80.4371 84.1537 79.3742 82.6273 78.3588 81.0627C74.6163 75.2986 71.4396 69.3353 71.408 69.2795C71.3977 69.2606 71.3803 69.2465 71.3598 69.2403C71.3392 69.234 71.317 69.236 71.298 69.246C71.2886 69.2509 71.2802 69.2578 71.2734 69.2661C71.2666 69.2743 71.2616 69.2838 71.2584 69.294C71.2553 69.3042 71.2542 69.3149 71.2553 69.3255C71.2563 69.3361 71.2595 69.3464 71.2646 69.3558C71.2962 69.4154 74.4748 75.3805 78.222 81.1502C79.2393 82.7166 80.3012 84.2449 81.3278 85.7229C83.6621 89.0829 85.6781 91.984 85.7675 93.3867C86.0392 97.6392 80.0274 117.373 79.966 117.572C79.9596 117.593 79.9618 117.615 79.9719 117.634C79.982 117.654 79.9993 117.668 80.0201 117.674C80.0276 117.677 80.0354 117.678 80.0432 117.678Z" fill="#3F1E18"/>
<path d="M76.7419 116.529C76.759 116.529 76.7756 116.523 76.7894 116.513C76.8033 116.503 76.8137 116.489 76.8192 116.473C77.0789 115.691 83.1724 97.2995 82.532 94.3723C82.2472 93.0693 80.4779 90.7266 78.2376 87.7566C77.0676 86.206 75.7413 84.4487 74.5146 82.6766C71.4731 78.3744 68.7261 73.8715 66.2924 69.1985C66.2879 69.1888 66.2813 69.18 66.2733 69.1728C66.2653 69.1657 66.256 69.1603 66.2458 69.1568C66.2357 69.1533 66.225 69.152 66.2143 69.1527C66.2035 69.1535 66.1931 69.1564 66.1836 69.1613C66.1739 69.1658 66.1651 69.1723 66.1579 69.1802C66.1507 69.1882 66.1453 69.1976 66.1418 69.2077C66.1382 69.2179 66.1366 69.2286 66.1372 69.2393C66.1379 69.25 66.1407 69.2605 66.1454 69.2701C68.5824 73.9494 71.3334 78.4583 74.3796 82.7659C75.6073 84.5408 76.9345 86.3028 78.1026 87.8516C80.2433 90.6885 82.0918 93.139 82.3682 94.4039C82.9992 97.2892 76.7232 116.227 76.659 116.418C76.6522 116.438 76.654 116.461 76.6638 116.48C76.6735 116.5 76.6906 116.514 76.7112 116.521C76.7209 116.526 76.7313 116.528 76.7419 116.529Z" fill="#3F1E18"/>
<path d="M92.4419 92.818H92.4662C92.4874 92.8149 92.5078 92.8074 92.5262 92.7963C92.5446 92.7852 92.5605 92.7707 92.5732 92.7534C92.5859 92.7361 92.5951 92.7164 92.6002 92.6956C92.6053 92.6747 92.6063 92.653 92.603 92.6318C92.2847 90.5014 89.0912 85.1766 86.3445 80.7751C83.2731 75.8421 80.2482 71.3021 80.2174 71.2555C80.2056 71.2376 80.1905 71.2223 80.1727 71.2103C80.1549 71.1983 80.1348 71.19 80.1138 71.1858C80.0928 71.1815 80.0712 71.1815 80.0502 71.1856C80.0292 71.1898 80.0092 71.198 79.9914 71.2098C79.9735 71.2217 79.9581 71.2369 79.9461 71.2547C79.9342 71.2725 79.9258 71.2924 79.9216 71.3135C79.9174 71.3345 79.9172 71.3562 79.9214 71.3772C79.9255 71.3982 79.9338 71.4182 79.9457 71.4361C79.9755 71.4817 82.9949 76.0228 86.0682 80.9473C88.7981 85.3218 91.971 90.6084 92.281 92.6747C92.2857 92.7141 92.3047 92.7504 92.3344 92.7768C92.364 92.8032 92.4022 92.8179 92.4419 92.818Z" fill="#D44631"/>
<path d="M77.471 104.53C77.5056 104.531 77.5391 104.52 77.5671 104.499C77.595 104.479 77.6159 104.45 77.6264 104.417C77.7195 104.117 79.9345 97.064 79.8805 96.1454C79.8266 95.2267 75.2855 89.7381 74.769 89.1164C74.7411 89.0834 74.7013 89.0627 74.6583 89.0587C74.6153 89.0547 74.5725 89.0678 74.539 89.095C74.5058 89.1228 74.4851 89.1624 74.4811 89.2055C74.477 89.2486 74.4901 89.2915 74.5176 89.3249C76.4461 91.6424 79.5195 95.5479 79.5558 96.164C79.5977 96.8779 77.954 102.292 77.3165 104.318C77.3036 104.359 77.3075 104.404 77.3274 104.442C77.3473 104.48 77.3815 104.509 77.4226 104.522C77.4382 104.527 77.4545 104.53 77.471 104.53Z" fill="#D44631"/>
<path d="M69.419 33.2774C69.419 33.2774 63.7861 32.5654 61.3345 33.7428C57.9615 35.3642 59.768 62.097 62.9483 69.2833C66.813 70.3602 70.8649 70.59 74.8267 69.9571C80.4279 69.1353 82.1515 66.9266 82.1515 66.9266C82.1515 66.9266 79.6561 52.3241 78.4992 47.6062C77.5568 43.808 76.005 40.1876 73.9041 36.8859L69.419 33.2774Z" fill="#D44631"/>
<path d="M78.1382 56.6224C78.8642 58.8078 80.2193 60.324 81.1641 60.0103C82.1088 59.6966 82.2865 57.6704 81.5615 55.4859C80.8364 53.3015 79.4804 51.7844 78.5357 52.098C77.5909 52.4117 77.4122 54.4361 78.1382 56.6224Z" fill="#3F1E18"/>
<path d="M78.6677 52.0571C80.1888 51.3813 81.7632 50.8321 83.3746 50.4152C84.3984 50.3417 85.6595 51.2743 86.8565 52.6815C87.5527 53.5006 88.1717 55.0205 87.3675 54.9107C87.3675 54.9107 88.0078 55.9345 87.6922 56.2538C87.4232 56.5227 86.9292 56.2268 86.9292 56.2268C86.9292 56.2268 87.5908 57.1743 87.225 57.6229C87.0147 57.8816 86.6006 57.6499 86.6006 57.6499C86.6006 57.6499 87.1022 58.3107 86.6238 58.4475C86.0653 58.6076 84.2179 57.111 84.2179 57.111C83.7609 57.2695 83.2947 57.3998 82.8217 57.501C81.69 57.7551 78.962 57.9784 78.962 57.9784L77.3173 53.9222C77.5823 53.1855 78.0505 52.5388 78.6677 52.0571Z" fill="white"/>
<path d="M87.3675 54.9918C87.3786 54.9918 87.3896 54.9896 87.3999 54.9853C87.4101 54.981 87.4194 54.9746 87.4271 54.9666C87.4424 54.9512 87.4509 54.9305 87.4509 54.9089C87.4509 54.8873 87.4424 54.8666 87.4271 54.8512L85.1682 52.7105C85.1529 52.6953 85.1321 52.6867 85.1105 52.6867C85.0889 52.6867 85.0681 52.6953 85.0528 52.7105C85.0376 52.7259 85.0291 52.7465 85.0291 52.7682C85.0291 52.7898 85.0376 52.8105 85.0528 52.8259L87.3117 54.9666C87.3263 54.9819 87.3463 54.991 87.3675 54.9918Z" fill="#0A1A29"/>
<path d="M86.9282 56.3078C86.9396 56.3078 86.9509 56.3054 86.9614 56.3008C86.9718 56.2961 86.9811 56.2893 86.9887 56.2808C87.0033 56.2647 87.0108 56.2436 87.0098 56.222C87.0087 56.2003 86.9991 56.18 86.9831 56.1654L84.6135 54.0247C84.6056 54.0174 84.5963 54.0117 84.5862 54.008C84.5761 54.0044 84.5653 54.0027 84.5545 54.0033C84.5438 54.0038 84.5333 54.0064 84.5236 54.0111C84.5139 54.0157 84.5052 54.0222 84.498 54.0303C84.4835 54.0463 84.476 54.0675 84.477 54.0891C84.4781 54.1107 84.4876 54.1311 84.5036 54.1457L86.8733 56.2864C86.8884 56.3 86.9079 56.3076 86.9282 56.3078Z" fill="#0A1A29"/>
<path d="M86.5997 57.7337C86.6108 57.7337 86.6219 57.7314 86.6322 57.7269C86.6424 57.7224 86.6516 57.7159 86.6592 57.7077C86.6668 57.7001 86.673 57.6912 86.6771 57.6812C86.6813 57.6713 86.6834 57.6607 86.6834 57.6499C86.6834 57.6392 86.6813 57.6286 86.6771 57.6186C86.673 57.6087 86.6668 57.5998 86.6592 57.5922L84.3985 55.4925C84.3831 55.4773 84.3624 55.4687 84.3407 55.4687C84.3191 55.4687 84.2984 55.4773 84.283 55.4925C84.2678 55.5078 84.2593 55.5286 84.2593 55.5502C84.2593 55.5718 84.2678 55.5925 84.283 55.6079L86.5439 57.7077C86.5584 57.7233 86.5784 57.7326 86.5997 57.7337Z" fill="#0A1A29"/>
<path d="M62.847 33.4366C59.7839 33.5464 57.8553 35.7635 57.8553 41.1069C57.8553 46.4503 57.9643 57.7923 59.0551 61.1728C60.146 64.5533 62.5445 64.8808 65.2706 64.4443C67.9968 64.0078 81.1585 60.0112 81.1585 60.0112C81.1585 60.0112 79.8098 59.9284 78.7087 56.8234C77.3265 52.9227 78.3094 52.3046 78.6678 52.0589C78.6678 52.0589 68.207 54.5347 67.5918 54.2518C66.9766 53.9688 67.5919 41.7854 67.2764 38.5771C67.1126 36.8841 66.2004 33.3156 62.847 33.4366Z" fill="#D44631"/>
<path d="M67.7716 54.3495C69.3166 54.3495 77.6505 52.3568 78.6519 52.1157C78.673 52.1107 78.6913 52.0974 78.7026 52.0789C78.7139 52.0604 78.7174 52.0382 78.7124 52.0171C78.7069 51.9962 78.6935 51.9783 78.6751 51.967C78.6567 51.9557 78.6348 51.952 78.6138 51.9566C74.4505 52.958 68.0907 54.3765 67.6309 54.1736C67.3405 54.0321 67.3368 50.3045 67.9027 43.6758C67.9037 43.665 67.9025 43.6542 67.8993 43.6439C67.8961 43.6337 67.891 43.6241 67.8841 43.6159C67.8771 43.6076 67.8687 43.6009 67.8591 43.596C67.8495 43.5911 67.8389 43.5881 67.8282 43.5873C67.8174 43.5862 67.8067 43.5872 67.7964 43.5904C67.786 43.5935 67.7765 43.5987 67.7682 43.6057C67.7599 43.6126 67.7531 43.6212 67.7482 43.6308C67.7433 43.6405 67.7405 43.651 67.7398 43.6618C67.5918 45.3911 66.89 54.0312 67.5657 54.3235C67.6323 54.3441 67.702 54.3528 67.7716 54.3495Z" fill="#183C61"/>
<path d="M64.4487 64.6249C65.088 64.6268 65.7261 64.5748 66.3566 64.4695C71.3871 63.231 76.3523 61.7399 81.2328 60.002C81.2428 59.9983 81.252 59.9927 81.2598 59.9855C81.2677 59.9783 81.2742 59.9696 81.2787 59.9599C81.2832 59.9502 81.2858 59.9397 81.2862 59.929C81.2866 59.9183 81.2849 59.9077 81.2812 59.8977C81.2737 59.8776 81.2584 59.8612 81.2389 59.8522C81.2194 59.8431 81.1972 59.8421 81.1769 59.8493C76.3029 61.5832 71.3448 63.0709 66.3214 64.3066C66.2879 64.3122 62.4579 64.9963 60.4065 63.3219C60.3983 63.3151 60.3888 63.31 60.3786 63.3068C60.3683 63.3037 60.3574 63.3026 60.3467 63.3036C60.3361 63.3047 60.3259 63.3078 60.3165 63.3128C60.3071 63.3179 60.2987 63.3248 60.292 63.3331C60.2852 63.3413 60.2799 63.3508 60.2768 63.361C60.2736 63.3712 60.2725 63.382 60.2736 63.3927C60.2746 63.4033 60.2778 63.4136 60.2829 63.4231C60.2879 63.4325 60.2948 63.4408 60.3031 63.4475C61.5166 64.2879 62.9747 64.702 64.4487 64.6249Z" fill="#183C61"/>
<path d="M75.0973 37.505C75.688 37.0652 75.3211 35.5725 74.2777 34.1708C73.2343 32.7691 71.9096 31.9893 71.3188 32.4291C70.7281 32.8688 71.095 34.3616 72.1384 35.7633C73.1818 37.165 74.5065 37.9448 75.0973 37.505Z" fill="#183C61"/>
<path d="M75.4529 29.6382C73.6266 31.1326 71.5959 32.3581 69.4226 33.2775C69.1454 34.6576 69.364 36.0913 70.0398 37.3262C70.396 37.856 70.9093 38.2608 71.5075 38.4837C72.1057 38.7065 72.7587 38.7363 73.3746 38.5688C74.2531 37.3707 75.4729 36.4659 76.8743 35.9729L75.4529 29.6382Z" fill="white"/>
<path d="M75.7152 28.6265C75.2514 29.0127 74.8324 29.4498 74.4662 29.9295C74.3304 30.1655 74.2551 30.4313 74.2466 30.7034C74.2382 30.9755 74.2969 31.2455 74.4178 31.4894L76.7392 29.3143L75.7152 28.6265Z" fill="#3F1E18"/>
<path d="M80.3736 35.8408C79.7929 36.2671 79.4476 36.7445 78.9971 37.0852C78.7001 37.3101 78.3582 37.4681 77.9945 37.5484C77.6308 37.6287 77.254 37.6295 76.8899 37.5506C76.3088 37.4312 75.7673 37.1663 75.3164 36.7807C74.8655 36.395 74.5198 35.9013 74.3118 35.3456C73.8275 34.18 73.7738 32.8802 74.16 31.6786C74.5462 30.4769 75.3471 29.4518 76.4198 28.7867C78.7904 27.1318 81.2839 27.9099 82.1699 29.0845C82.6791 29.7235 82.9974 30.4933 83.0882 31.3053C83.1789 32.1173 83.0384 32.9384 82.6828 33.674C82.0644 34.5423 81.2795 35.2789 80.3736 35.8408Z" fill="white"/>
<path d="M80.6847 27.6837C80.6193 27.4015 80.4558 27.1517 80.2232 26.979C79.9906 26.8063 79.7042 26.7219 79.4152 26.7408C78.715 26.7464 78.0267 26.923 77.4103 27.2552C76.7939 27.5874 76.268 28.0652 75.8783 28.647C75.9584 28.8201 76.079 28.9714 76.2298 29.0882C76.3806 29.205 76.5573 29.2838 76.745 29.3181C77.511 29.4456 78.4434 30.045 79.7762 29.2902C80.1225 30.7496 81.5699 31.1116 82.6878 33.6758C82.6878 33.6758 83.33 35.2665 83.7842 35.1241C84.1723 35.0031 84.6077 34.1589 83.9832 32.7972C83.9832 32.7972 84.497 33.499 84.8637 33.4785C85.3468 33.4524 84.7782 32.2295 84.2393 31.7464C84.2393 31.7464 85.8577 32.2006 85.5738 31.0949C85.29 29.9891 83.3308 29.4195 83.3308 29.4195C83.3308 29.4195 84.0688 29.1924 83.703 28.5679C83.3373 27.9434 81.3372 27.2285 80.6847 27.6837Z" fill="#3F1E18"/>
<path d="M76.9691 29.4111C76.5587 29.9928 75.9145 30.2487 75.5292 29.9695C75.1438 29.6903 75.1644 29.0062 75.5748 28.4245C75.9853 27.8428 76.6295 27.5868 77.0148 27.866C77.4001 28.1453 77.3796 28.8284 76.9691 29.4111Z" fill="white"/>
<path d="M76.2012 29.5592C76.21 29.5592 76.2185 29.5564 76.2255 29.5512C76.2326 29.546 76.2377 29.5387 76.2403 29.5303L76.6573 28.1612C76.6605 28.1508 76.6594 28.1396 76.6543 28.13C76.6493 28.1204 76.6406 28.1132 76.6303 28.11C76.62 28.1073 76.6091 28.1086 76.5998 28.1136C76.5905 28.1186 76.5834 28.127 76.58 28.137L76.1631 29.5061C76.1599 29.5165 76.161 29.5277 76.166 29.5373C76.1711 29.5469 76.1797 29.5541 76.1901 29.5573L76.2012 29.5592Z" fill="#0A1A29"/>
<path d="M80.7414 35.5262C80.7414 35.5262 80.2678 36.5174 79.9336 36.6291C79.4636 36.7864 79.1238 36.12 79.1238 36.12L80.7414 35.5262Z" fill="white"/>
<path d="M79.7874 36.6942C79.8419 36.6939 79.8958 36.6848 79.9474 36.6672C80.2936 36.5518 80.7591 35.5838 80.7786 35.5429C80.7809 35.5381 80.7822 35.5328 80.7825 35.5275C80.7827 35.5221 80.782 35.5168 80.7802 35.5117C80.7784 35.5067 80.7756 35.5021 80.772 35.4982C80.7684 35.4942 80.7639 35.4911 80.7591 35.4889C80.7493 35.4844 80.7383 35.4839 80.7282 35.4876C80.7181 35.4913 80.7096 35.4988 80.705 35.5084C80.5756 35.7802 80.1819 36.5034 79.9213 36.59C79.4922 36.7342 79.1637 36.1078 79.1609 36.1013C79.1558 36.0919 79.1473 36.0848 79.1371 36.0815C79.1269 36.0782 79.1156 36.079 79.1059 36.0836C79.0963 36.0886 79.0893 36.0971 79.0859 36.1074C79.0826 36.1177 79.0836 36.1289 79.0884 36.1386C79.1005 36.1637 79.376 36.6942 79.7874 36.6942Z" fill="#0A1A29"/>
<path d="M80.9973 33.8685C81.0115 33.8686 81.0256 33.8649 81.038 33.8579C81.0504 33.8509 81.0607 33.8408 81.068 33.8285C81.0789 33.8099 81.082 33.7876 81.0766 33.7667C81.0712 33.7458 81.0577 33.7278 81.0391 33.7168C80.2938 33.297 79.7343 32.6117 79.4719 31.7976C79.4649 31.7772 79.4501 31.7603 79.4308 31.7505C79.4115 31.7408 79.3891 31.739 79.3685 31.7455C79.3481 31.7523 79.3311 31.7668 79.3212 31.7859C79.3113 31.805 79.3094 31.8272 79.3155 31.8478C79.5902 32.7 80.1757 33.4174 80.9555 33.8573C80.9682 33.8647 80.9826 33.8686 80.9973 33.8685Z" fill="#0A1A29"/>
<path d="M79.8739 34.1506C79.8793 34.1504 79.8845 34.149 79.8894 34.1467C79.8943 34.1444 79.8987 34.1412 79.9023 34.1372C79.906 34.1333 79.9087 34.1286 79.9105 34.1236C79.9124 34.1185 79.9133 34.1131 79.913 34.1078C79.876 33.6863 79.7432 33.2788 79.5249 32.9164C79.5222 32.9117 79.5185 32.9077 79.5142 32.9045C79.5099 32.9012 79.5051 32.8989 79.4999 32.8976C79.4947 32.8963 79.4893 32.896 79.484 32.8968C79.4787 32.8977 79.4736 32.8996 79.469 32.9025C79.4598 32.9081 79.4532 32.9171 79.4506 32.9275C79.448 32.938 79.4494 32.949 79.4549 32.9583C79.6668 33.3086 79.7958 33.7027 79.8319 34.1105C79.832 34.1159 79.8334 34.1212 79.8355 34.1262C79.8377 34.1311 79.8407 34.1355 79.8446 34.1392C79.8485 34.1429 79.853 34.1459 79.858 34.1478C79.863 34.1498 79.8686 34.1507 79.8739 34.1506Z" fill="#0A1A29"/>
<path d="M78.5254 36.6291C78.5342 36.6289 78.5429 36.6259 78.5499 36.6205C78.557 36.6152 78.5619 36.6078 78.5645 36.5993C78.5659 36.5941 78.5663 36.5887 78.5656 36.5834C78.5649 36.578 78.5633 36.5729 78.5606 36.5682C78.5579 36.5635 78.5544 36.5594 78.5502 36.5562C78.5459 36.5529 78.5408 36.5505 78.5356 36.5491C78.3758 36.4995 78.2284 36.4167 78.103 36.306C77.9775 36.1953 77.8768 36.0592 77.8078 35.9068C77.5045 35.2686 77.4319 34.545 77.6022 33.8592C77.6057 33.8489 77.605 33.8377 77.6003 33.8279C77.5956 33.8182 77.5874 33.8107 77.5772 33.8071C77.5669 33.8038 77.5557 33.8045 77.546 33.8092C77.5363 33.8139 77.5287 33.8221 77.5249 33.8322C77.3438 34.54 77.4187 35.2889 77.7362 35.9468C77.8103 36.1094 77.918 36.2544 78.0523 36.3722C78.1866 36.4899 78.3443 36.5778 78.5152 36.63L78.5254 36.6291Z" fill="#0A1A29"/>
<path d="M75.1292 37.476C73.8606 37.7552 72.7651 36.8524 71.8018 35.4172C70.9381 34.13 70.9381 32.8112 71.3746 32.3895L68.8151 33.3063L69.1305 37.8884L73.491 39.1523L75.1292 37.476Z" fill="#D44631"/>
<path d="M79.9093 37.6621C79.9093 37.6621 88.8296 49.6575 93.9952 56.0815C96.5389 59.246 97.8904 60.7911 99.2306 61.5357C100.613 62.3036 103.292 62.2449 104.629 63.4763C106.552 65.2512 105.101 68.6419 100.272 70.0129C95.2898 71.4276 93.3483 69.9738 93.0579 68.7917C92.7442 67.5148 93.7458 66.5217 93.7505 64.5587C93.7551 62.5958 89.6448 54.7468 86.1098 49.4323C82.5748 44.1177 78.5364 38.363 78.5364 38.363L79.9093 37.6621Z" fill="#D44631"/>
<path d="M79.8805 37.0126C79.578 36.5965 78.9033 36.752 78.4844 37.0126C78.0656 37.2732 77.7491 37.6548 78.0609 38.1853C78.3866 38.7391 79.309 38.3091 79.4942 38.2179C79.6076 38.1743 79.7098 38.1059 79.7933 38.0177C79.8767 37.9294 79.9394 37.8235 79.9764 37.7078C80.0135 37.5922 80.0241 37.4696 80.0076 37.3493C79.991 37.2289 79.9475 37.1139 79.8805 37.0126Z" fill="#D44631"/>
<path d="M78.6435 38.5008C78.6507 38.5007 78.6578 38.4988 78.664 38.4952L79.2784 38.1462C79.2831 38.1436 79.2871 38.14 79.2905 38.1358C79.2938 38.1316 79.2963 38.1267 79.2977 38.1215C79.2992 38.1164 79.2997 38.1109 79.2991 38.1056C79.2985 38.1002 79.2967 38.095 79.2941 38.0903C79.2915 38.0856 79.2881 38.0814 79.2839 38.0781C79.2797 38.0747 79.2748 38.0723 79.2696 38.0708C79.2644 38.0693 79.259 38.0689 79.2537 38.0696C79.2483 38.0702 79.2429 38.0719 79.2382 38.0745L78.624 38.4235C78.6146 38.429 78.6079 38.4379 78.6051 38.4484C78.6024 38.4588 78.6038 38.47 78.6092 38.4794C78.6126 38.4856 78.6175 38.4909 78.6235 38.4947C78.6296 38.4984 78.6364 38.5005 78.6435 38.5008Z" fill="#0A1A29"/>
<path d="M93.0747 67.5623C93.0919 67.5622 93.1086 67.5566 93.1225 67.5464C93.1364 67.5362 93.1466 67.522 93.1519 67.5056C94.4242 63.5034 98.6796 63.038 98.7224 63.0333C98.7334 63.0323 98.7442 63.0291 98.754 63.0238C98.7637 63.0185 98.7722 63.0112 98.7791 63.0025C98.786 62.9938 98.7911 62.9838 98.794 62.9731C98.7969 62.9624 98.7975 62.9513 98.7959 62.9403C98.7953 62.9291 98.7923 62.9181 98.7872 62.9081C98.782 62.8982 98.7748 62.8894 98.766 62.8824C98.7572 62.8755 98.747 62.8705 98.7362 62.8678C98.7253 62.8651 98.7139 62.8648 98.7029 62.8668C98.6591 62.8668 94.2986 63.3432 92.9927 67.4515C92.9863 67.4721 92.9883 67.4945 92.9982 67.5137C93.0081 67.5328 93.0252 67.5473 93.0458 67.5539C93.0548 67.5584 93.0646 67.5613 93.0747 67.5623Z" fill="#0A1A29"/>
<path d="M94.7436 67.6154C95.0414 68.7844 97.2157 69.2395 99.6002 68.6318C101.985 68.024 103.675 66.5841 103.377 65.4142C103.079 64.2442 100.905 63.7901 98.5214 64.3979C96.1378 65.0056 94.4458 66.4491 94.7436 67.6154Z" fill="#0A1A29"/>
<path d="M97.102 75.9278C97.1127 75.9276 97.1233 75.9252 97.1331 75.9209C97.1428 75.9165 97.1517 75.9103 97.1591 75.9025C97.1664 75.8947 97.1722 75.8856 97.176 75.8755C97.1798 75.8655 97.1815 75.8548 97.1811 75.8441L96.9493 67.619C96.9501 67.6081 96.9485 67.5971 96.9444 67.5868C96.9404 67.5765 96.9343 67.5673 96.9263 67.5597C96.9183 67.5522 96.9086 67.5464 96.8981 67.543C96.8876 67.5396 96.8765 67.5386 96.8656 67.54C96.844 67.5407 96.8236 67.55 96.8088 67.5656C96.794 67.5813 96.786 67.6021 96.7865 67.6237L97.0183 75.8487C97.019 75.8703 97.0282 75.8907 97.0439 75.9055C97.0595 75.9203 97.0805 75.9283 97.102 75.9278Z" fill="#0A1A29"/>
<path d="M100.382 72.8191H100.4C100.42 72.8142 100.437 72.8019 100.449 72.7846C100.46 72.7674 100.464 72.7464 100.461 72.726L99.2651 67.3771C99.2607 67.3567 99.2484 67.3389 99.2311 67.3274C99.2137 67.316 99.1924 67.3117 99.172 67.3156C99.1519 67.3205 99.1344 67.3329 99.123 67.3502C99.1116 67.3674 99.1072 67.3883 99.1106 67.4087L100.307 72.7577C100.311 72.7747 100.321 72.7897 100.334 72.8008C100.348 72.8118 100.365 72.8182 100.382 72.8191Z" fill="#0A1A29"/>
<path d="M105.08 72.7586C105.096 72.7586 105.111 72.7542 105.124 72.7456C105.133 72.7399 105.141 72.7323 105.147 72.7235C105.153 72.7147 105.158 72.7048 105.16 72.6943C105.162 72.6838 105.162 72.673 105.16 72.6625C105.158 72.6519 105.154 72.6419 105.148 72.6329L101.223 66.53C101.218 66.5209 101.21 66.5131 101.202 66.5069C101.193 66.5007 101.183 66.4963 101.172 66.494C101.162 66.4918 101.151 66.4917 101.14 66.4937C101.13 66.4957 101.12 66.4999 101.111 66.5058C101.102 66.5116 101.094 66.5191 101.088 66.5279C101.082 66.5367 101.077 66.5466 101.075 66.5571C101.073 66.5676 101.073 66.5785 101.075 66.589C101.077 66.5995 101.081 66.6096 101.087 66.6186L105.012 72.7214C105.019 72.733 105.029 72.7425 105.041 72.7491C105.053 72.7556 105.067 72.7588 105.08 72.7586Z" fill="#0A1A29"/>
<path d="M105.254 67.9495C105.265 67.9495 105.277 67.947 105.287 67.9422C105.298 67.9374 105.307 67.9303 105.315 67.9215C105.322 67.9135 105.328 67.9041 105.331 67.8939C105.335 67.8838 105.336 67.873 105.335 67.8622C105.335 67.8515 105.332 67.841 105.327 67.8313C105.322 67.8217 105.316 67.8131 105.307 67.8061L102.485 65.3583C102.469 65.3441 102.448 65.337 102.426 65.3386C102.404 65.3402 102.384 65.3503 102.37 65.3667C102.363 65.3747 102.357 65.3842 102.354 65.3944C102.351 65.4046 102.349 65.4153 102.35 65.4261C102.351 65.4368 102.354 65.4474 102.359 65.457C102.363 65.4666 102.37 65.4751 102.378 65.4821L105.2 67.9298C105.215 67.9425 105.234 67.9496 105.254 67.9495Z" fill="#0A1A29"/>
<path d="M55.8832 99.0894C55.894 99.0894 55.9047 99.0872 55.9147 99.0829L65.5553 94.996C65.5753 94.9876 65.5912 94.9716 65.5994 94.9515C65.6076 94.9314 65.6075 94.909 65.5992 94.889C65.595 94.8791 65.5889 94.8701 65.5812 94.8625C65.5736 94.855 65.5646 94.8491 65.5546 94.8452C65.5447 94.8412 65.534 94.8392 65.5233 94.8394C65.5125 94.8395 65.502 94.8419 65.4921 94.8462L55.8513 98.9331C55.8314 98.9415 55.8157 98.9574 55.8075 98.9775C55.7993 98.9976 55.7994 99.0201 55.8077 99.0401C55.8142 99.0547 55.8248 99.0671 55.8382 99.0759C55.8515 99.0846 55.8672 99.0893 55.8832 99.0894Z" fill="#0A1A29"/>
<path d="M141.388 117.59C138.392 114.742 135.159 113.28 134.167 114.324C133.175 115.368 134.798 118.522 137.797 121.371C140.796 124.219 144.025 125.681 145.018 124.637C146.01 123.592 144.387 120.438 141.388 117.59Z" fill="#D44631"/>
<path d="M135.445 114.325L130.062 121.499C130.062 121.499 128.964 123.454 129.504 124.988C130.266 126.687 131.629 128.043 133.331 128.796C135.208 129.427 136.152 129.406 136.932 128.485C137.712 127.565 144.333 119.9 144.333 119.9C144.333 119.9 139.532 112.37 135.445 114.325Z" fill="white"/>
<path d="M137.498 127.845C137.518 127.504 136.339 128.28 134.216 127.41C132.093 126.541 130.548 124.897 130.355 123.549C130.161 122.2 130.403 121.376 130.114 121.184C129.824 120.991 128.521 122.632 126.397 122.342C124.273 122.053 121.426 120.556 120.702 121.132C119.978 121.709 121.107 122.95 121.619 123.546C123.977 126.296 126.543 128.86 129.295 131.215C130.339 132.041 132.429 133.774 132.865 133.682C133.784 133.492 137.401 129.533 137.498 127.845Z" fill="#D44631"/>
<path d="M127.531 124.712C127.541 124.712 127.551 124.71 127.56 124.706C127.569 124.702 127.577 124.696 127.584 124.689C127.591 124.682 127.597 124.673 127.6 124.664C127.604 124.654 127.606 124.645 127.605 124.635L127.567 122.395C127.567 122.375 127.559 122.356 127.545 122.342C127.531 122.329 127.512 122.321 127.492 122.321C127.482 122.321 127.472 122.323 127.463 122.327C127.454 122.331 127.445 122.337 127.438 122.344C127.431 122.351 127.426 122.359 127.422 122.369C127.419 122.378 127.417 122.388 127.417 122.398L127.456 124.637C127.457 124.657 127.465 124.676 127.478 124.69C127.492 124.704 127.511 124.712 127.531 124.712Z" fill="#3F1E18"/>
<path d="M126.063 124.365C126.083 124.365 126.102 124.357 126.116 124.343C126.13 124.329 126.138 124.31 126.138 124.29L126.177 122.321C126.178 122.311 126.176 122.301 126.172 122.292C126.169 122.282 126.163 122.274 126.156 122.267C126.15 122.26 126.141 122.254 126.132 122.25C126.123 122.246 126.113 122.244 126.103 122.244C126.093 122.243 126.083 122.244 126.073 122.248C126.064 122.251 126.055 122.257 126.048 122.264C126.041 122.271 126.035 122.279 126.031 122.289C126.027 122.298 126.026 122.308 126.026 122.318L125.987 124.287C125.986 124.297 125.988 124.307 125.992 124.317C125.995 124.326 126.001 124.334 126.008 124.342C126.015 124.349 126.023 124.355 126.032 124.359C126.041 124.363 126.051 124.365 126.061 124.365H126.063Z" fill="#3F1E18"/>
<path d="M134.017 132.898C134.03 132.898 134.043 132.894 134.055 132.888C134.066 132.881 134.076 132.872 134.082 132.861C134.087 132.852 134.091 132.843 134.092 132.833C134.093 132.823 134.093 132.813 134.09 132.803C134.088 132.794 134.083 132.785 134.077 132.777C134.071 132.769 134.064 132.762 134.055 132.757C131.491 131.131 129.091 129.259 126.889 127.168C124.836 125.28 122.966 123.203 121.304 120.964C121.298 120.956 121.291 120.949 121.283 120.943C121.274 120.938 121.265 120.934 121.255 120.933C121.246 120.931 121.236 120.931 121.226 120.933C121.216 120.935 121.207 120.94 121.199 120.945C121.191 120.951 121.184 120.958 121.178 120.966C121.173 120.975 121.169 120.984 121.168 120.994C121.166 121.004 121.166 121.014 121.168 121.023C121.171 121.033 121.175 121.042 121.18 121.05C122.85 123.298 124.727 125.384 126.789 127.279C129 129.377 131.41 131.256 133.985 132.888C133.994 132.894 134.006 132.897 134.017 132.898Z" fill="#3F1E18"/>
<path d="M134.673 125.174C134.684 125.174 134.695 125.172 134.704 125.168L136.365 124.435C136.374 124.431 136.382 124.425 136.389 124.418C136.396 124.41 136.401 124.402 136.404 124.393C136.408 124.383 136.41 124.374 136.409 124.364C136.409 124.354 136.407 124.344 136.403 124.335C136.399 124.326 136.393 124.318 136.386 124.311C136.379 124.304 136.37 124.298 136.361 124.295C136.352 124.291 136.342 124.289 136.332 124.289C136.322 124.29 136.312 124.292 136.303 124.296L134.643 125.029C134.634 125.033 134.625 125.039 134.618 125.046C134.612 125.053 134.606 125.062 134.602 125.071C134.599 125.08 134.597 125.09 134.597 125.1C134.598 125.11 134.6 125.12 134.604 125.129C134.61 125.142 134.619 125.154 134.632 125.162C134.644 125.17 134.659 125.175 134.673 125.174Z" fill="#3F1E18"/>
<path d="M150.601 116.191C150.391 117.924 149.74 119.574 148.709 120.982C147.577 122.282 146.349 123.495 145.036 124.612C145.036 124.612 145.478 122.503 141.264 118.015C137.05 113.527 133.99 114.579 133.99 114.579C133.99 114.579 139.768 105.626 142.358 102.014C144.947 98.4016 147.059 98.4947 149.83 98.1847C152.6 97.8748 150.863 114.161 150.601 116.191Z" fill="#3F1E18"/>
<path d="M146.134 116.698C146.145 116.698 146.156 116.696 146.166 116.691C146.184 116.682 146.198 116.667 146.205 116.648C146.211 116.629 146.21 116.608 146.202 116.59C145.262 114.888 143.995 113.388 142.473 112.178C140.95 110.968 139.203 110.072 137.333 109.542C137.313 109.537 137.293 109.539 137.275 109.549C137.258 109.559 137.245 109.575 137.24 109.595C137.237 109.604 137.236 109.614 137.237 109.624C137.238 109.634 137.242 109.644 137.247 109.652C137.251 109.661 137.258 109.669 137.266 109.675C137.274 109.681 137.283 109.685 137.293 109.688C139.143 110.212 140.87 111.098 142.376 112.294C143.881 113.49 145.135 114.972 146.065 116.655C146.071 116.668 146.081 116.679 146.093 116.687C146.105 116.694 146.119 116.698 146.134 116.698Z" fill="#D44631"/>
<path d="M154.061 115.335C149.977 115.967 146.844 117.634 147.064 119.058C147.285 120.482 150.774 121.123 154.859 120.49C158.944 119.857 162.076 118.191 161.856 116.767C161.635 115.343 158.145 114.703 154.061 115.335Z" fill="#D44631"/>
<path d="M147.064 119.057L149.336 126.929C149.336 126.929 150.226 128.982 151.78 129.48C153.594 129.9 155.498 129.635 157.128 128.735C158.765 127.618 159.319 126.857 159.057 125.679C158.795 124.5 156.693 114.593 156.693 114.593C156.693 114.593 147.976 114.618 147.064 119.057Z" fill="white"/>
<path d="M159.116 125.677C158.874 125.436 158.673 126.832 156.614 127.845C154.554 128.857 152.303 128.924 151.163 128.172C150.024 127.42 149.57 126.695 149.234 126.784C148.898 126.872 149.261 128.936 147.635 130.332C146.009 131.729 143.125 133.487 143.074 134.413C143.023 135.339 144.485 135.185 145.308 135.157C148.953 134.993 152.587 134.624 156.191 134.053C157.502 133.819 160.185 133.401 160.406 133.018C160.876 132.204 160.316 126.869 159.116 125.677Z" fill="#D44631"/>
<path d="M150.103 131.086C150.114 131.086 150.125 131.083 150.135 131.079C150.145 131.074 150.154 131.068 150.161 131.059C150.168 131.052 150.172 131.043 150.176 131.034C150.179 131.024 150.18 131.014 150.179 131.004C150.178 130.994 150.176 130.984 150.171 130.976C150.167 130.967 150.16 130.959 150.153 130.952L148.451 129.496C148.436 129.483 148.416 129.477 148.396 129.478C148.376 129.48 148.357 129.489 148.344 129.504C148.331 129.519 148.325 129.539 148.326 129.559C148.328 129.579 148.337 129.597 148.353 129.61L150.054 131.067C150.068 131.079 150.085 131.086 150.103 131.086Z" fill="#3F1E18"/>
<path d="M148.87 131.949C148.88 131.949 148.891 131.947 148.9 131.943C148.909 131.939 148.918 131.933 148.925 131.925C148.932 131.918 148.938 131.91 148.941 131.9C148.945 131.891 148.947 131.882 148.947 131.872C148.947 131.862 148.945 131.852 148.941 131.843C148.938 131.833 148.932 131.825 148.925 131.818L147.478 130.483C147.471 130.476 147.462 130.471 147.453 130.467C147.444 130.463 147.434 130.461 147.424 130.461C147.414 130.461 147.404 130.463 147.395 130.467C147.386 130.471 147.378 130.476 147.371 130.483C147.363 130.49 147.358 130.499 147.354 130.508C147.35 130.517 147.348 130.527 147.348 130.537C147.348 130.547 147.35 130.557 147.354 130.566C147.358 130.575 147.363 130.583 147.371 130.59L148.819 131.925C148.832 131.94 148.85 131.948 148.87 131.949Z" fill="#3F1E18"/>
<path d="M146.528 133.558C147.872 133.558 149.616 133.505 151.585 133.317C154.622 133.055 157.626 132.499 160.555 131.655C160.573 131.649 160.589 131.636 160.598 131.618C160.607 131.601 160.608 131.581 160.603 131.562C160.597 131.544 160.583 131.528 160.566 131.519C160.549 131.51 160.529 131.508 160.51 131.514C157.592 132.354 154.6 132.909 151.575 133.169C148.994 133.426 146.396 133.478 143.807 133.327C143.797 133.326 143.787 133.327 143.777 133.33C143.768 133.333 143.759 133.338 143.751 133.344C143.744 133.351 143.737 133.359 143.733 133.368C143.729 133.377 143.726 133.386 143.726 133.396C143.725 133.406 143.726 133.416 143.729 133.426C143.732 133.435 143.737 133.444 143.744 133.451C143.75 133.459 143.758 133.465 143.767 133.47C143.776 133.474 143.786 133.477 143.796 133.478C144.094 133.497 145.079 133.558 146.528 133.558Z" fill="#3F1E18"/>
<path d="M172.448 86.678C172.532 88.6647 172.015 90.6304 170.965 92.3192C169.215 95.1031 165.385 95.3581 164.45 97.0604C163.514 98.7628 164.195 100.294 162.237 101.741C160.787 102.734 159.213 103.535 157.556 104.124C157.455 104.679 157.496 105.252 157.675 105.787C157.854 106.323 158.165 106.805 158.58 107.188C159.824 108.413 160.732 109.937 161.218 111.614C161.556 113.305 161.768 115.018 161.852 116.741C161.852 116.741 160.456 115.103 154.325 115.698C148.194 116.294 147.158 119.359 147.158 119.359C147.158 119.359 143.599 109.316 142.318 105.061C141.038 100.806 142.404 99.189 143.85 96.8063C145.297 94.4236 154.74 81.1475 154.74 81.1475L172.448 86.678Z" fill="#3F1E18"/>
<path d="M154.852 115.523H154.87C154.88 115.521 154.889 115.516 154.897 115.51C154.905 115.505 154.913 115.497 154.918 115.488C154.923 115.48 154.927 115.47 154.928 115.46C154.93 115.45 154.929 115.439 154.926 115.43C154.897 115.306 152.066 103.067 152.066 101.289C152.066 99.5306 162.485 87.7511 162.59 87.6329C162.597 87.6255 162.602 87.6169 162.605 87.6075C162.608 87.5981 162.61 87.588 162.609 87.5781C162.609 87.5681 162.606 87.5584 162.602 87.5494C162.597 87.5405 162.591 87.5325 162.584 87.5259C162.568 87.5127 162.549 87.5061 162.529 87.5073C162.509 87.5085 162.49 87.5176 162.477 87.5325C162.046 88.0193 151.914 99.4739 151.914 101.289C151.914 103.084 154.661 114.96 154.778 115.464C154.782 115.481 154.791 115.496 154.805 115.506C154.818 115.517 154.835 115.523 154.852 115.523Z" fill="#D44631"/>
<path d="M156.46 104.811C156.473 104.811 156.485 104.808 156.496 104.801L157.592 104.191C157.601 104.186 157.608 104.179 157.615 104.172C157.621 104.164 157.625 104.155 157.628 104.145C157.631 104.136 157.631 104.126 157.63 104.116C157.629 104.106 157.626 104.096 157.621 104.087C157.611 104.07 157.595 104.057 157.576 104.052C157.556 104.046 157.536 104.049 157.518 104.059L156.423 104.669C156.414 104.674 156.406 104.681 156.4 104.688C156.394 104.696 156.39 104.705 156.387 104.715C156.384 104.724 156.384 104.734 156.385 104.744C156.386 104.754 156.389 104.764 156.394 104.773C156.401 104.784 156.41 104.794 156.422 104.801C156.434 104.807 156.447 104.811 156.46 104.811Z" fill="#D44631"/>
<path d="M145.933 116.024C145.945 116.024 145.956 116.022 145.966 116.017C145.976 116.012 145.985 116.005 145.992 115.996C148.036 113.748 150.783 112.261 153.783 111.777C158.688 111.044 161.262 112.82 161.287 112.837C161.295 112.843 161.304 112.847 161.314 112.849C161.324 112.852 161.334 112.852 161.343 112.85C161.353 112.848 161.363 112.845 161.371 112.839C161.379 112.834 161.386 112.827 161.392 112.819C161.398 112.811 161.402 112.802 161.404 112.792C161.406 112.782 161.407 112.772 161.405 112.763C161.403 112.753 161.4 112.743 161.395 112.735C161.389 112.727 161.382 112.719 161.374 112.714C160.778 112.34 160.126 112.06 159.444 111.886C157.59 111.396 155.652 111.308 153.761 111.627C150.724 112.117 147.943 113.624 145.875 115.901C145.862 115.916 145.856 115.936 145.858 115.956C145.86 115.976 145.87 115.995 145.886 116.008C145.899 116.018 145.916 116.024 145.933 116.024Z" fill="#D44631"/>
<path d="M142.323 105.059C142.568 105.878 142.9 106.915 143.273 108.051C145.298 107.184 147.038 104.552 147.554 101.238C148.026 98.167 147.309 95.3329 145.87 93.7925C144.925 95.1682 144.186 96.2684 143.861 96.8063C142.409 99.19 141.045 100.804 142.323 105.059Z" fill="#D44631"/>
<path d="M147.101 119.455C147.109 119.457 147.118 119.457 147.127 119.455C147.145 119.448 147.16 119.435 147.168 119.418C147.176 119.4 147.178 119.38 147.172 119.362C145.95 115.927 144.685 112.109 143.411 108.016C143.405 107.997 143.392 107.982 143.375 107.973C143.357 107.963 143.337 107.961 143.318 107.967C143.299 107.973 143.284 107.986 143.274 108.003C143.265 108.021 143.263 108.041 143.269 108.06C144.543 112.155 145.81 115.971 147.032 119.415C147.038 119.427 147.048 119.438 147.06 119.445C147.073 119.452 147.087 119.455 147.101 119.455Z" fill="#D44631"/>
<path d="M174.746 55.4831C174.165 55.887 173.698 56.4325 173.387 57.0677C173.077 57.703 172.934 58.407 172.972 59.113C172.972 59.113 169.498 60.5007 167.554 60.1117C165.609 59.7226 166.902 57.9151 166.902 57.9151C167.767 56.8936 168.26 55.6098 168.303 54.2722L174.746 55.4831Z" fill="white"/>
<path d="M174.942 55.6506C174.041 56.451 172.908 56.9447 171.709 57.0607C170.547 57.0706 169.389 56.9289 168.265 56.6391C168.265 56.6391 166.482 58.831 166.547 59.6836C166.611 60.5361 164.462 56.8634 164.462 56.8634L167.133 52.9459L172.09 52.8798L174.942 55.6506Z" fill="#3F1E18"/>
<path d="M172.928 47.7589C172.453 47.7641 171.991 47.9175 171.607 48.1976C171.224 48.4778 170.937 48.8707 170.787 49.3216L173.064 49.1429L173.666 48.5407L172.928 47.7589Z" fill="#3F1E18"/>
<path d="M178.041 50.7354C178.041 50.7354 178.271 49.7237 176.974 49.0163C175.676 48.3089 175.368 48.5742 174.372 48.0856C173.219 47.5215 172.408 46.6057 172.025 46.7825C171.642 46.9593 172.29 48.0799 172.644 48.4336C172.998 48.7873 175.829 51.4716 175.829 51.4716L176.154 54.543C176.923 53.9732 177.608 53.298 178.188 52.5373C178.778 51.6493 178.455 50.7354 178.041 50.7354Z" fill="#3F1E18"/>
<path d="M169.803 50.109C169.331 50.5809 168.846 50.8303 168.471 51.1961C168.224 51.4362 168.032 51.7268 167.907 52.048C167.783 52.3693 167.729 52.7137 167.75 53.0576C167.778 53.6066 167.945 54.1395 168.235 54.6064C168.526 55.0733 168.93 55.4588 169.41 55.7269C170.41 56.3332 171.593 56.5641 172.747 56.378C173.902 56.192 174.953 55.6012 175.712 54.7115C177.558 52.7718 177.194 50.378 176.242 49.4063C175.71 48.8994 175.049 48.5486 174.331 48.3925C173.613 48.2364 172.866 48.2809 172.172 48.5211C171.232 48.7807 170.401 49.3377 169.803 50.109Z" fill="white"/>
<path d="M176.302 54.0972C176.155 53.2121 176.891 51.4391 176.656 50.7652C176.299 49.7414 173.661 49.4799 172.629 48.4188L173.589 47.9348C174.607 48.3066 175.593 48.7605 176.537 49.2918L177.747 51.386C177.54 52.4112 177.037 53.3535 176.302 54.0972Z" fill="#3F1E18"/>
<path d="M175.714 54.0582C175.124 54.3523 174.803 54.9079 174.999 55.2988C175.194 55.6898 175.83 55.7642 176.42 55.4728C177.01 55.1815 177.331 54.6231 177.136 54.2322C176.94 53.8413 176.305 53.764 175.714 54.0582Z" fill="white"/>
<path d="M175.353 54.61L176.822 54.5933C176.832 54.593 176.842 54.5889 176.849 54.5818C176.856 54.5747 176.859 54.5651 176.859 54.5551C176.859 54.5452 176.855 54.5357 176.848 54.5287C176.841 54.5218 176.831 54.5179 176.821 54.5179L175.352 54.5346C175.347 54.5346 175.342 54.5357 175.337 54.5376C175.333 54.5395 175.328 54.5423 175.325 54.5459C175.321 54.5494 175.319 54.5536 175.317 54.5583C175.315 54.5629 175.314 54.5678 175.314 54.5728C175.315 54.5828 175.319 54.5922 175.326 54.5992C175.333 54.6061 175.343 54.61 175.353 54.61Z" fill="#3F1E18"/>
<path d="M170.339 52.0255C170.344 52.0254 170.35 52.0243 170.354 52.0222C170.359 52.0202 170.363 52.0171 170.366 52.0134C170.37 52.0099 170.373 52.0058 170.375 52.0012C170.377 51.9967 170.378 51.9918 170.378 51.9869C170.378 51.9819 170.377 51.977 170.375 51.9725C170.373 51.9679 170.37 51.9638 170.366 51.9603C170.362 51.9557 169.891 51.5015 170.133 51.1552C170.278 50.9468 171.024 50.7876 171.3 50.7438C171.31 50.7422 171.319 50.7369 171.324 50.7289C171.33 50.7209 171.333 50.7109 171.332 50.7011C171.331 50.6961 171.329 50.6914 171.326 50.6871C171.324 50.6828 171.32 50.6791 171.316 50.6761C171.312 50.6732 171.308 50.6711 171.303 50.6699C171.298 50.6688 171.293 50.6686 171.288 50.6694C171.246 50.6759 170.264 50.8351 170.07 51.1115C169.791 51.5099 170.292 51.9938 170.313 52.0143C170.32 52.0212 170.33 52.0252 170.339 52.0255Z" fill="#3F1E18"/>
<path d="M170.378 53.1777C170.388 53.1778 170.397 53.1742 170.404 53.1679C170.411 53.1615 170.416 53.1527 170.417 53.1433C170.417 53.1333 170.414 53.1234 170.408 53.1158C170.401 53.1081 170.392 53.1032 170.382 53.1023C170.094 53.0814 169.813 53.0049 169.555 52.8771C169.546 52.8725 169.535 52.8718 169.526 52.8749C169.516 52.878 169.508 52.8848 169.504 52.8938C169.499 52.9028 169.498 52.9133 169.501 52.9229C169.505 52.9325 169.511 52.9405 169.52 52.9451C169.787 53.0774 170.078 53.1567 170.375 53.1786L170.378 53.1777Z" fill="#3F1E18"/>
<path d="M171.121 53.2803C171.126 53.2804 171.131 53.2796 171.135 53.2778C171.14 53.2761 171.144 53.2734 171.148 53.27C171.151 53.2667 171.154 53.2626 171.156 53.2581C171.158 53.2537 171.159 53.2488 171.159 53.2439C171.16 53.2339 171.156 53.2243 171.149 53.2169C171.142 53.2096 171.133 53.2052 171.123 53.2048C170.998 53.1999 170.873 53.1868 170.75 53.1656C170.745 53.1644 170.74 53.1642 170.735 53.1651C170.73 53.1661 170.725 53.168 170.721 53.171C170.717 53.1739 170.713 53.1777 170.711 53.1821C170.708 53.1864 170.707 53.1913 170.706 53.1964C170.704 53.2063 170.707 53.2164 170.713 53.2246C170.718 53.2328 170.727 53.2384 170.737 53.2402C170.863 53.2619 170.991 53.2753 171.119 53.2803H171.121Z" fill="#3F1E18"/>
<path d="M174.499 51.9752C174.514 51.9751 174.529 51.9705 174.541 51.9621C174.553 51.9536 174.563 51.9416 174.569 51.9277C174.662 51.7091 174.7 51.4714 174.681 51.2347C174.662 50.9981 174.586 50.7696 174.459 50.5688C174.38 50.4374 174.27 50.3274 174.138 50.2484C174.007 50.1694 173.858 50.1238 173.705 50.1155C173.685 50.1155 173.666 50.1234 173.652 50.1373C173.638 50.1512 173.63 50.1701 173.63 50.19C173.629 50.1999 173.631 50.2099 173.635 50.2192C173.638 50.2285 173.644 50.237 173.651 50.2442C173.658 50.2513 173.666 50.2571 173.675 50.2611C173.684 50.265 173.694 50.2671 173.704 50.2672C173.833 50.2754 173.957 50.3149 174.067 50.3823C174.177 50.4496 174.268 50.5427 174.334 50.6535C174.447 50.8341 174.514 51.0394 174.531 51.2517C174.547 51.464 174.511 51.6771 174.427 51.8728C174.424 51.882 174.422 51.8918 174.422 51.9018C174.422 51.9117 174.424 51.9214 174.428 51.9305C174.432 51.9396 174.438 51.9478 174.445 51.9546C174.452 51.9615 174.461 51.9669 174.47 51.9705C174.479 51.9738 174.489 51.9754 174.499 51.9752Z" fill="#3F1E18"/>
<path d="M172.354 49.3403C172.365 49.3402 172.375 49.338 172.384 49.3338C172.393 49.3299 172.402 49.3242 172.409 49.317C172.415 49.3099 172.421 49.3014 172.424 49.2921C172.428 49.2829 172.43 49.273 172.43 49.2631C172.429 49.2531 172.427 49.2434 172.423 49.2343C172.324 49.0174 172.152 48.8425 171.937 48.7403C171.722 48.6381 171.477 48.6153 171.247 48.6758C171.237 48.6783 171.228 48.6826 171.22 48.6887C171.212 48.6947 171.205 48.7023 171.2 48.7109C171.195 48.7196 171.192 48.7291 171.19 48.7391C171.189 48.749 171.189 48.7592 171.192 48.7689C171.194 48.7786 171.199 48.7877 171.205 48.7958C171.211 48.8038 171.218 48.8105 171.227 48.8156C171.236 48.8207 171.245 48.8241 171.255 48.8255C171.265 48.8269 171.275 48.8263 171.285 48.8238C171.481 48.7693 171.69 48.7871 171.873 48.8739C172.057 48.9607 172.203 49.1107 172.286 49.2966C172.292 49.3096 172.301 49.3207 172.314 49.3284C172.326 49.3362 172.34 49.3403 172.354 49.3403Z" fill="#3F1E18"/>
<path d="M172.108 50.5875C171.918 50.8149 171.82 51.1047 171.831 51.4006C171.843 51.6965 171.964 51.9775 172.171 52.1893C172.413 52.3598 172.71 52.4344 173.004 52.3987C173.298 52.3629 173.568 52.2193 173.763 51.9957L172.108 50.5875Z" fill="#3F1E18"/>
<path d="M170.01 48.7995C169.82 49.0271 169.722 49.3168 169.734 49.6127C169.746 49.9086 169.867 50.1896 170.074 50.4013C170.316 50.5718 170.613 50.6464 170.907 50.6107C171.201 50.5749 171.471 50.4313 171.666 50.2077L170.01 48.7995Z" fill="#3F1E18"/>
<path d="M176.371 53.8562C176.383 53.8562 176.395 53.853 176.407 53.847C176.418 53.841 176.427 53.8323 176.434 53.8217C176.445 53.8049 176.448 53.7845 176.444 53.765C176.44 53.7454 176.428 53.7283 176.411 53.7175L173.657 51.9193C173.641 51.9087 173.62 51.9051 173.601 51.9092C173.581 51.9134 173.564 51.925 173.553 51.9416C173.548 51.95 173.544 51.9593 173.542 51.9692C173.54 51.979 173.54 51.9891 173.542 51.9989C173.544 52.0087 173.548 52.018 173.554 52.0262C173.56 52.0344 173.567 52.0414 173.576 52.0468L176.33 53.8441C176.342 53.852 176.356 53.8563 176.371 53.8562Z" fill="#3F1E18"/>
<path d="M147.376 68.0948C145.482 70.4077 144.628 72.8416 145.468 73.5275C146.309 74.2135 148.524 72.8975 150.418 70.5836C152.312 68.2698 153.166 65.8368 152.326 65.1508C151.485 64.4649 149.269 65.7819 147.376 68.0948Z" fill="#3F1E18"/>
<path d="M151.32 60.229C149.023 62.1426 147.724 64.369 148.419 65.2029C149.113 66.0368 151.538 65.162 153.836 63.2484C156.133 61.3348 157.431 59.1084 156.737 58.2745C156.042 57.4405 153.616 58.3163 151.32 60.229Z" fill="#3F1E18"/>
<path d="M155.997 61.1468L151.685 63.9614L149.194 60.418L154.313 56.2846C154.775 58.2922 155.226 60.3352 155.997 61.1468Z" fill="white"/>
<path d="M147.907 53.5296C147.907 53.5296 143.407 51.6131 143.126 52.3484C142.907 52.9255 145.791 54.4361 147.33 55.2058L147.907 53.5296Z" fill="white"/>
<path d="M160.432 63.846C158.502 61.7053 158.044 59.9546 156.728 58.2615C156.757 58.5128 156.37 60.1956 154.117 62.0096C152.96 62.9404 150.946 64.2433 149.381 64.369L151.977 69.0413L158.016 69.1223L160.432 63.846Z" fill="#3F1E18"/>
<path d="M154.108 67.0988C154.121 67.0988 154.133 67.0956 154.144 67.0895C158.425 64.8287 158.836 61.9267 158.84 61.8978C158.843 61.878 158.837 61.858 158.825 61.8421C158.813 61.8263 158.795 61.8158 158.775 61.8131C158.755 61.8109 158.735 61.8166 158.719 61.829C158.704 61.8413 158.693 61.8593 158.69 61.8792C158.69 61.9071 158.282 64.7347 154.073 66.9563C154.064 66.961 154.056 66.9673 154.05 66.975C154.043 66.9826 154.039 66.9915 154.036 67.001C154.033 67.0105 154.032 67.0205 154.033 67.0304C154.034 67.0403 154.037 67.05 154.041 67.0588C154.048 67.0709 154.057 67.081 154.069 67.088C154.081 67.0951 154.095 67.0988 154.108 67.0988Z" fill="#3F1E18"/>
<path d="M171.569 59.2295L166.829 59.6324L166.902 57.9124L164.257 58.9195L160.153 65.4729L154.197 81.9377C155.97 82.9112 157.966 83.4101 159.989 83.386L167.462 62.165L171.569 59.2295Z" fill="white"/>
<path d="M164.69 63.4447C164.235 63.5378 163.285 63.3376 163.178 62.8797C163.086 62.3079 163.205 61.7222 163.512 61.2313C163.93 60.9614 166.825 59.6835 166.825 59.6835L166.08 62.662C165.672 63.011 165.2 63.2768 164.69 63.4447Z" fill="#FEE4E0"/>
<path d="M165.897 63.1841C165.914 63.1841 165.93 63.1786 165.943 63.1685C165.956 63.1584 165.965 63.1443 165.97 63.1283L166.9 59.651C166.904 59.6369 166.904 59.6221 166.899 59.6083C166.895 59.5944 166.886 59.582 166.875 59.5728C166.864 59.5636 166.85 59.5579 166.836 59.5562C166.821 59.5546 166.806 59.557 166.793 59.5635L162.743 61.5721C162.734 61.5765 162.726 61.5825 162.719 61.59C162.713 61.5974 162.707 61.6062 162.704 61.6156C162.701 61.6251 162.7 61.635 162.7 61.6449C162.701 61.6549 162.704 61.6647 162.708 61.6736C162.713 61.6825 162.719 61.6905 162.726 61.6971C162.734 61.7037 162.742 61.7087 162.752 61.7119C162.761 61.7151 162.771 61.7164 162.781 61.7157C162.791 61.715 162.801 61.7124 162.81 61.708L166.71 59.7739L165.823 63.0892C165.821 63.0988 165.82 63.1088 165.821 63.1187C165.822 63.1285 165.826 63.1382 165.83 63.1468C165.835 63.1555 165.842 63.163 165.85 63.1691C165.858 63.1752 165.867 63.1797 165.876 63.1823L165.897 63.1841Z" fill="#3F1E18"/>
<path d="M152.009 85.1283C152.639 85.5407 153.387 85.7349 154.139 85.6811C154.139 85.6811 155.121 83.4808 155.988 81.1447C157.397 77.364 157.348 74.7849 159.138 69.4806C161.891 61.3198 166.706 58.0408 166.894 57.9161C166.894 57.9105 166.899 57.9105 166.899 57.9105C167.087 57.6878 167.258 57.4513 167.41 57.2031C164.107 56.4204 162.055 59.0349 161.174 61.1477C160.244 63.3693 158.487 65.1285 157.194 67.6275C155.9 70.1266 152.009 85.1283 152.009 85.1283Z" fill="#D44631"/>
<path d="M158.456 71.6632C158.649 70.9856 158.875 70.2671 159.139 69.4806C161.892 61.3199 166.707 58.0408 166.895 57.9161C166.895 57.9105 166.9 57.9105 166.9 57.9105C167.048 57.7358 167.184 57.5521 167.308 57.3604C167.341 57.312 167.374 57.2674 167.408 57.2097C167.408 57.2097 167.408 57.2097 167.408 57.2041C164.104 56.4214 162.052 59.0358 161.172 61.1486C160.748 62.0987 160.228 63.0031 159.621 63.8478L158.456 71.6632Z" fill="#3F1E18"/>
<path d="M169.11 52.6667C168.791 52.8827 164.14 50.957 163.177 50.526C162.215 50.0951 159.757 48.7092 158.634 49.2965C157.512 49.8838 153.13 57.0989 151.847 60.1452C150.565 63.1916 145.14 72.8797 142.504 75.2921C141.286 76.4048 139.78 77.1521 138.158 77.4484C136.535 77.7447 134.862 77.5781 133.33 76.9675C129.857 75.4783 129.265 71.3831 130.828 66.8001C131.872 63.7454 135.12 58.1125 134.585 57.2041C134.05 56.2957 133.355 55.9746 133.355 54.9061C133.355 53.8376 135.012 52.2339 140.249 52.8752C140.249 52.8752 145.721 53.8748 145.3 55.9467C145.078 57.0459 143.726 56.9705 143.216 57.7337C142.784 58.3852 142.358 60.0001 141.261 61.7759C139.73 64.248 138.299 66.021 138.803 66.3189C139.531 66.7479 143.829 60.1927 145.435 57.5699C147.042 54.9471 151.434 47.2712 154.128 45.6647C156.802 44.0695 159.169 44.9043 161.201 46.0268C163.233 47.1493 167.888 50.2999 168.472 51.1831C169.057 52.0664 169.21 52.5997 169.11 52.6667Z" fill="#D44631"/>
<path d="M136.305 55.1183C136.212 55.9848 137.471 56.8336 139.121 57.0151C140.772 57.1966 142.188 56.6428 142.286 55.7744C142.384 54.9061 141.12 54.0591 139.469 53.8776C137.819 53.6961 136.4 54.2518 136.305 55.1183Z" fill="#3F1E18"/>
<path d="M169.533 52.9217C169.324 53.1134 167.287 52.1771 167.287 52.1771L168.099 50.7959C168.307 50.9178 169.927 52.5587 169.533 52.9217Z" fill="#3F1E18"/>
<path d="M146.138 61.7536C146.138 62.0831 146.269 62.3992 146.502 62.6322C146.735 62.8652 147.051 62.9961 147.381 62.9961C147.71 62.9961 148.026 62.8652 148.259 62.6322C148.492 62.3992 148.623 62.0831 148.623 61.7536C148.623 61.5903 148.591 61.4286 148.529 61.2778C148.467 61.1269 148.375 60.9898 148.26 60.8743C148.144 60.7588 148.007 60.6672 147.856 60.6047C147.706 60.5422 147.544 60.5101 147.381 60.5101C147.217 60.5101 147.056 60.5422 146.905 60.6047C146.754 60.6672 146.617 60.7588 146.502 60.8743C146.386 60.9898 146.295 61.1269 146.232 61.2778C146.17 61.4286 146.138 61.5903 146.138 61.7536Z" fill="#F7CEC1"/>
<path d="M135.932 60.3091C135.932 60.5441 136.025 60.7694 136.191 60.9355C136.357 61.1017 136.583 61.1952 136.818 61.1952C137.053 61.1952 137.278 61.1017 137.444 60.9355C137.61 60.7694 137.704 60.5441 137.704 60.3091C137.704 60.0741 137.61 59.8486 137.444 59.6825C137.278 59.5163 137.053 59.423 136.818 59.423C136.583 59.423 136.357 59.5163 136.191 59.6825C136.025 59.8486 135.932 60.0741 135.932 60.3091Z" fill="#3F1E18"/>
<path d="M135.497 64.6919C136.048 64.6919 136.495 64.2452 136.495 63.6941C136.495 63.1431 136.048 62.6964 135.497 62.6964C134.946 62.6964 134.499 63.1431 134.499 63.6941C134.499 64.2452 134.946 64.6919 135.497 64.6919Z" fill="#3F1E18"/>
<path d="M134.995 67.8903C135.128 67.2008 134.677 66.5342 133.987 66.4014C133.298 66.2686 132.631 66.7199 132.498 67.4094C132.366 68.0989 132.817 68.7655 133.507 68.8983C134.196 69.0311 134.863 68.5798 134.995 67.8903Z" fill="#3F1E18"/>
<path d="M142.403 71.8125C142.454 71.0967 141.915 70.4752 141.199 70.4243C140.483 70.3735 139.862 70.9125 139.811 71.6283C139.76 72.3441 140.299 72.9656 141.015 73.0164C141.731 73.0673 142.352 72.5283 142.403 71.8125Z" fill="#F7CEC1"/>
<path d="M148.586 57.9516C148.586 58.2014 148.685 58.441 148.862 58.6176C149.039 58.7942 149.278 58.8935 149.528 58.8935C149.778 58.8935 150.018 58.7942 150.194 58.6176C150.371 58.441 150.47 58.2014 150.47 57.9516C150.47 57.7018 150.371 57.4621 150.194 57.2855C150.018 57.1089 149.778 57.0096 149.528 57.0096C149.278 57.0096 149.039 57.1089 148.862 57.2855C148.685 57.4621 148.586 57.7018 148.586 57.9516Z" fill="#F7CEC1"/>
<path d="M150.884 54.693C150.884 54.8044 150.906 54.9146 150.949 55.0175C150.991 55.1204 151.054 55.2138 151.132 55.2926C151.211 55.3713 151.305 55.4338 151.407 55.4764C151.51 55.519 151.621 55.5409 151.732 55.5409C151.957 55.5407 152.172 55.4512 152.331 55.2922C152.49 55.1332 152.579 54.9177 152.579 54.693C152.579 54.5817 152.557 54.4714 152.515 54.3686C152.472 54.2657 152.41 54.1723 152.331 54.0935C152.253 54.0148 152.159 53.9523 152.056 53.9097C151.954 53.8671 151.843 53.8451 151.732 53.8451C151.507 53.8451 151.291 53.9344 151.132 54.0935C150.973 54.2525 150.884 54.4681 150.884 54.693Z" fill="#F7CEC1"/>
<path d="M154.255 52.1138C154.724 52.1138 155.103 51.7342 155.103 51.2659C155.103 50.7977 154.724 50.418 154.255 50.418C153.787 50.418 153.407 50.7977 153.407 51.2659C153.407 51.7342 153.787 52.1138 154.255 52.1138Z" fill="#F7CEC1"/>
<path d="M138.692 67.5912C138.712 67.5912 138.731 67.5837 138.745 67.5702C138.759 67.5567 138.767 67.5381 138.768 67.5186L138.822 66.2156C138.822 66.2056 138.821 66.1956 138.817 66.1862C138.814 66.1768 138.809 66.1683 138.802 66.1609C138.795 66.1535 138.787 66.1476 138.778 66.1434C138.769 66.1392 138.759 66.1368 138.749 66.1365C138.729 66.1362 138.71 66.1436 138.696 66.1572C138.681 66.1707 138.672 66.1892 138.671 66.2091L138.617 67.5121C138.616 67.5322 138.623 67.5518 138.637 67.5666C138.651 67.5814 138.67 67.5903 138.69 67.5912H138.692Z" fill="#3F1E18"/>
<path d="M141.556 58.1887H141.573C142.323 58.0121 143.049 57.7492 143.738 57.4051C143.747 57.4007 143.755 57.3946 143.761 57.3871C143.768 57.3796 143.773 57.3709 143.776 57.3615C143.779 57.3521 143.781 57.3421 143.78 57.3322C143.779 57.3222 143.777 57.3125 143.772 57.3036C143.763 57.2859 143.747 57.2724 143.729 57.2661C143.71 57.2598 143.689 57.2613 143.671 57.2701C142.992 57.6093 142.277 57.8685 141.539 58.0426C141.529 58.0448 141.519 58.049 141.511 58.0549C141.503 58.0608 141.496 58.0683 141.49 58.077C141.485 58.0857 141.482 58.0954 141.48 58.1055C141.479 58.1155 141.479 58.1258 141.482 58.1357C141.487 58.1515 141.497 58.1652 141.51 58.1748C141.523 58.1844 141.54 58.1893 141.556 58.1887Z" fill="#3F1E18"/>
<path d="M152.287 68.2576C151.431 66.8798 150.458 65.5778 149.38 64.3661C148.114 63.1003 143.822 58.3247 143.237 58.6468C142.499 59.0544 145.582 63.4755 145.582 63.4755C145.582 63.4755 141.496 59.3969 140.753 60.0531C139.99 60.7279 144.081 64.7877 144.081 64.7877C144.081 64.7877 140.234 62.3967 139.674 63.1003C139.189 63.7109 143.481 66.694 143.481 66.694C143.481 66.694 139.58 65.1629 139.44 66.007C139.299 66.8512 143.19 68.1171 143.612 68.4447C145.17 69.9024 146.981 71.0623 148.956 71.867L152.287 68.2576Z" fill="white"/>
<path d="M155.571 60.5167C155.312 59.4989 155.282 58.4359 155.485 57.4052C155.781 56.2074 157.293 52.7329 156.39 52.2805C155.486 51.8282 153.451 56.387 152.773 58.7231L152.959 60.6079C153.342 60.8867 153.807 61.0291 154.281 61.0126C154.754 60.9961 155.209 60.8215 155.571 60.5167Z" fill="white"/>
<path d="M151.242 51.6988C150.543 52.1977 148.833 50.5344 148.593 49.8922C148.352 49.25 149.146 48.6999 149.59 48.8004C149.983 48.8907 151.803 51.2976 151.242 51.6988Z" fill="white"/>
<path d="M148.451 49.7591C148.133 49.735 147.817 49.8354 147.571 50.0392C147.325 50.243 147.168 50.5344 147.132 50.8519C147.17 51.3796 149.393 53.376 150.184 53.0745C150.975 52.7729 148.639 49.8001 148.451 49.7591Z" fill="white"/>
<path d="M146.682 50.5586C146.404 50.5662 146.14 50.6827 145.948 50.8829C145.755 51.0831 145.649 51.3511 145.652 51.629C145.631 52.4164 148.464 54.2574 148.945 53.8107C149.527 53.2662 147.187 50.5391 146.682 50.5586Z" fill="white"/>
<path d="M143.14 51.0193C143.151 51.0194 143.161 51.0172 143.171 51.0131C143.18 51.0089 143.189 51.0028 143.196 50.9951L145.697 48.2569C145.704 48.2495 145.709 48.241 145.713 48.2316C145.716 48.2223 145.717 48.2123 145.717 48.2024C145.717 48.1924 145.714 48.1827 145.71 48.1736C145.706 48.1646 145.7 48.1565 145.692 48.1498C145.685 48.1431 145.677 48.1378 145.667 48.1344C145.658 48.1309 145.648 48.1294 145.638 48.1298C145.628 48.1303 145.618 48.1326 145.609 48.1369C145.6 48.1411 145.592 48.1471 145.585 48.1545L143.085 50.8927C143.079 50.9001 143.073 50.9086 143.07 50.918C143.066 50.9273 143.065 50.9373 143.065 50.9472C143.066 50.9572 143.068 50.967 143.072 50.976C143.077 50.985 143.083 50.9931 143.09 50.9998C143.104 51.0123 143.122 51.0193 143.14 51.0193Z" fill="#3F1E18"/>
<path d="M140.76 50.3054C140.777 50.3054 140.794 50.2993 140.807 50.2882C140.82 50.2772 140.83 50.262 140.833 50.2449L141.547 46.7919C141.55 46.7819 141.55 46.7715 141.548 46.7613C141.547 46.7511 141.543 46.7413 141.538 46.7326C141.532 46.7239 141.525 46.7164 141.517 46.7106C141.508 46.7048 141.498 46.7008 141.488 46.6988C141.478 46.6962 141.468 46.6957 141.458 46.6972C141.448 46.6988 141.438 46.7025 141.429 46.708C141.42 46.7135 141.413 46.7207 141.407 46.7292C141.401 46.7377 141.397 46.7473 141.395 46.7574L140.68 50.2105C140.678 50.2204 140.677 50.2309 140.679 50.2411C140.68 50.2513 140.684 50.261 140.69 50.2697C140.695 50.2784 140.702 50.2859 140.711 50.2918C140.719 50.2976 140.729 50.3016 140.739 50.3036L140.76 50.3054Z" fill="#3F1E18"/>
<path d="M137.902 49.9471H137.91C137.919 49.9462 137.929 49.9433 137.938 49.9386C137.947 49.934 137.954 49.9276 137.961 49.9199C137.967 49.9122 137.972 49.9033 137.975 49.8938C137.978 49.8842 137.979 49.8742 137.978 49.8643L137.725 47.2461C137.723 47.2264 137.713 47.2083 137.697 47.1957C137.682 47.1831 137.662 47.1768 137.642 47.1782C137.633 47.1791 137.623 47.182 137.614 47.1867C137.605 47.1914 137.598 47.1977 137.591 47.2054C137.585 47.2131 137.58 47.222 137.577 47.2316C137.574 47.2411 137.573 47.2511 137.575 47.261L137.827 49.8792C137.829 49.8978 137.837 49.9152 137.851 49.9277C137.865 49.9403 137.883 49.9472 137.902 49.9471Z" fill="#3F1E18"/>
<path d="M172.973 59.1097C175.276 59.9895 177.295 61.4834 178.81 63.4293C180.799 66.3574 178.59 71.9362 177.926 74.2566C177.262 76.5769 176.71 80.6089 177.484 82.8744C178.257 85.1398 179.362 87.1827 178.754 89.7795C178.382 91.3562 177.767 92.8656 176.931 94.2536C175.025 93.3788 173.022 92.7301 170.965 92.3205C168.532 91.9278 166.168 91.1835 163.949 90.1109C162.047 89.0186 160.22 87.8006 158.48 86.4652L162.071 73.8145L169.196 61.2746L172.973 59.1097Z" fill="#D44631"/>
<path d="M162.073 73.8132C163.085 73.4442 163.927 72.7188 164.442 71.773C165.327 70.1712 166.322 69.5094 167.151 68.1821C167.979 66.8549 167.316 65.4198 168.257 64.6454C169.198 63.871 171.507 63.8895 173.172 62.6563C174.03 62.0091 174.725 61.1711 175.203 60.2086C174.648 59.8781 174.074 59.5821 173.483 59.3225L173.461 59.3132L172.981 59.114H172.969C172.969 59.114 168.973 58.8477 166.818 61.2211C164.662 63.5945 162.46 68.5657 162.073 73.8132Z" fill="#3F1E18"/>
<path d="M177.669 63.9491C175.329 62.6163 172.938 63.5191 171.095 66.3448C169.252 69.1706 166.971 74.1008 166.364 73.7787C165.774 73.466 152.682 65.147 152.139 65.0399C152.724 65.5342 152.58 67.5028 150.65 69.7291C148.782 71.8819 147.398 73.8243 145.508 73.5534C146.182 74.2396 147.05 74.704 147.995 74.8844C149.838 75.3759 150.453 75.0073 151.743 75.9901C153.033 76.973 153.279 79.0617 155.368 80.0454C157.458 81.0292 158.194 80.5983 160.591 81.6426C162.987 82.6868 165.667 84.9589 168.7 84.5921C172.396 84.1445 177.695 72.5641 178.592 69.8464C179.474 67.1714 179.229 64.8333 177.669 63.9491Z" fill="#D44631"/>
<path d="M152.24 76.3132C152.255 76.3132 152.269 76.3091 152.281 76.3012C153.657 75.3836 154.834 74.1981 155.741 72.8156C156.649 71.4332 157.269 69.8821 157.564 68.2549C157.566 68.235 157.561 68.215 157.549 68.1992C157.536 68.1833 157.519 68.1729 157.499 68.1701C157.479 68.1677 157.459 68.1733 157.443 68.1854C157.427 68.1976 157.417 68.2155 157.414 68.2353C157.123 69.8406 156.511 71.3708 155.615 72.7346C154.72 74.0985 153.559 75.268 152.202 76.1736C152.193 76.1789 152.186 76.1858 152.18 76.1939C152.175 76.202 152.171 76.2111 152.169 76.2208C152.166 76.2305 152.166 76.2406 152.168 76.2504C152.17 76.2601 152.173 76.2695 152.179 76.2779C152.185 76.2883 152.194 76.2969 152.205 76.3031C152.216 76.3092 152.228 76.3127 152.24 76.3132Z" fill="#3F1E18"/>
<path d="M166.575 77.0439C166.591 77.0438 166.607 77.0385 166.62 77.0288C166.633 77.0191 166.642 77.0055 166.647 76.9899C166.673 76.8969 167.267 74.8018 166.167 73.5043C166.162 73.4985 166.156 73.4935 166.149 73.4894L156.685 67.5997C156.677 67.5944 156.667 67.5908 156.658 67.5891C156.648 67.5875 156.638 67.5878 156.628 67.59C156.618 67.5923 156.609 67.5964 156.601 67.6022C156.593 67.608 156.586 67.6154 156.581 67.6239C156.576 67.6323 156.572 67.6417 156.571 67.6515C156.569 67.6613 156.569 67.6713 156.571 67.681C156.574 67.6907 156.578 67.6999 156.584 67.708C156.589 67.716 156.597 67.7228 156.605 67.7281L166.059 73.6122C167.096 74.8473 166.508 76.9275 166.502 76.9489C166.497 76.9682 166.499 76.9887 166.509 77.0061C166.519 77.0235 166.535 77.0363 166.554 77.042C166.561 77.0435 166.568 77.0442 166.575 77.0439Z" fill="#3F1E18"/>
<path d="M168.089 75.1452C168.101 75.1452 168.113 75.1423 168.123 75.1368C168.141 75.1277 168.154 75.1118 168.16 75.0928C168.167 75.0738 168.165 75.0532 168.156 75.0354C167.832 74.3915 167.372 73.8253 166.809 73.3759C166.8 73.3706 166.791 73.3671 166.781 73.3655C166.771 73.3639 166.761 73.3643 166.752 73.3667C166.742 73.369 166.733 73.3733 166.725 73.3792C166.717 73.385 166.71 73.3924 166.705 73.401C166.694 73.418 166.691 73.4385 166.696 73.4579C166.701 73.4772 166.713 73.494 166.73 73.5044C167.268 73.9414 167.708 74.4864 168.022 75.1043C168.028 75.1166 168.038 75.127 168.049 75.1342C168.061 75.1414 168.075 75.1452 168.089 75.1452Z" fill="#3F1E18"/>
<path d="M164.064 83.4781C165.462 84.3057 167.076 84.6947 168.697 84.595C170.037 84.4321 171.59 82.8051 173.066 80.6653C172.59 80.083 171.99 79.6138 171.31 79.2918C170.631 78.9699 169.888 78.8032 169.136 78.8038C167.859 78.8074 166.63 79.2896 165.691 80.1548C164.752 81.0201 164.172 82.2059 164.064 83.4781Z" fill="#3F1E18"/>
<path d="M164.18 83.5331C164.195 83.5331 164.211 83.5282 164.223 83.5193C164.236 83.5103 164.246 83.4975 164.251 83.4828C164.257 83.4643 164.255 83.4444 164.246 83.4271C164.238 83.4098 164.223 83.3965 164.205 83.3897C163.626 83.1577 163.063 82.8856 162.522 82.5753C161.672 82.0911 160.784 81.6765 159.868 81.3356C159.248 81.1295 158.617 80.9586 157.978 80.8237C157.087 80.6518 156.221 80.3704 155.399 79.986C154.454 79.4231 153.688 78.6053 153.187 77.6266C152.841 76.9713 152.363 76.3953 151.782 75.9354C151.765 75.9249 151.745 75.9217 151.725 75.9262C151.706 75.9307 151.689 75.9427 151.678 75.9596C151.673 75.968 151.669 75.9774 151.667 75.9872C151.666 75.997 151.666 76.007 151.668 76.0167C151.671 76.0264 151.675 76.0356 151.68 76.0437C151.686 76.0517 151.694 76.0587 151.702 76.0639C152.262 76.5132 152.724 77.073 153.059 77.7085C153.574 78.7125 154.363 79.5498 155.335 80.1228C156.166 80.5119 157.041 80.7982 157.941 80.9754C158.575 81.1094 159.201 81.2791 159.815 81.4836C160.724 81.822 161.604 82.2331 162.447 82.713C162.995 83.0272 163.565 83.3025 164.152 83.5368C164.161 83.5371 164.171 83.5359 164.18 83.5331Z" fill="#3F1E18"/>
<path d="M172.916 80.8301C172.928 80.8302 172.939 80.8275 172.95 80.8222C172.961 80.8168 172.97 80.8091 172.977 80.7995C174.553 78.5686 175.907 76.1892 177.02 73.6952C177.028 73.677 177.029 73.6563 177.022 73.6377C177.015 73.619 177.001 73.6038 176.983 73.5955C176.965 73.5873 176.944 73.5866 176.925 73.5936C176.907 73.6006 176.892 73.6147 176.883 73.6328C175.774 76.1162 174.425 78.4853 172.855 80.7064C172.849 80.7144 172.845 80.7236 172.842 80.7333C172.84 80.743 172.84 80.7531 172.841 80.763C172.843 80.7729 172.846 80.7823 172.852 80.7908C172.857 80.7993 172.864 80.8067 172.872 80.8125C172.884 80.8229 172.9 80.8291 172.916 80.8301Z" fill="#3F1E18"/>
<path d="M164.703 63.2576C164.493 64.1976 164.537 65.1763 164.83 66.0936C165.06 66.6072 165.453 67.0311 165.947 67.3001C166.441 67.5691 167.01 67.6685 167.567 67.5828C168.777 67.5046 170.811 66.5274 172.649 66.4883C174.486 66.4492 176.44 68.0129 178.63 66.9537C180.819 65.8945 181.21 62.5791 181.835 62.419C182.461 62.259 183.164 66.7935 181.405 69.69C179.646 72.5865 175.268 72.8546 171.906 72.8546C168.544 72.8546 161.742 71.5645 161.352 67.499C161.24 66.6259 161.353 65.7385 161.68 64.9212C162.007 64.1039 162.538 63.3839 163.222 62.8295L164.703 63.2576Z" fill="#FEE4E0"/>
</svg>
