<svg width="8" height="11" viewBox="0 0 8 11" fill="none" xmlns="http://www.w3.org/2000/svg">
<path d="M4.21928 0.662537C3.29497 0.664686 2.40914 1.03282 1.75556 1.6864C1.10197 2.33999 0.733839 3.22582 0.731689 4.15013C0.731689 6.56935 4.22625 10.7033 4.22625 10.7033C4.22625 10.7033 7.71384 6.45077 7.71384 4.15013C7.71169 3.22461 7.3426 2.33773 6.68751 1.68394C6.03242 1.03016 5.14479 0.662842 4.21928 0.662537V0.662537ZM5.27253 5.17664C5.13432 5.31507 4.97012 5.42483 4.78938 5.49965C4.60863 5.57446 4.41489 5.61284 4.21928 5.61259C4.02365 5.6129 3.8299 5.57455 3.64914 5.49973C3.46839 5.42492 3.30421 5.31512 3.16603 5.17664C2.88718 4.89704 2.73058 4.51827 2.73058 4.12339C2.73058 3.7285 2.88718 3.34974 3.16603 3.07014C3.30405 2.93145 3.46821 2.82151 3.649 2.74668C3.82978 2.67185 4.02362 2.63362 4.21928 2.63419C4.41494 2.63362 4.60877 2.67185 4.78956 2.74668C4.97035 2.82151 5.13451 2.93145 5.27253 3.07014C5.55138 3.34974 5.70798 3.7285 5.70798 4.12339C5.70798 4.51827 5.55138 4.89704 5.27253 5.17664Z" fill="#765BFF"/>
</svg>
