<svg width="1440" height="352" viewBox="0 0 1440 352" fill="none" xmlns="http://www.w3.org/2000/svg">
<g clip-path="url(#clip0_141_9685)">
<rect width="1440" height="352" fill="#765BFF" fill-opacity="0.04"/>
<path d="M1391.51 319.456C1396.89 319.456 1401.25 315.098 1401.25 309.722C1401.25 304.346 1396.89 299.988 1391.51 299.988C1386.14 299.988 1381.78 304.346 1381.78 309.722C1381.78 315.098 1386.14 319.456 1391.51 319.456Z" fill="#364F6B"/>
<path d="M1411.29 261C1391.85 261 1373.21 268.721 1359.46 282.465C1345.72 296.209 1338 314.849 1338 334.286C1338 353.723 1345.72 372.363 1359.46 386.107C1373.21 399.851 1391.85 407.572 1411.29 407.572C1430.72 407.572 1449.36 399.851 1463.11 386.107C1476.85 372.363 1484.57 353.723 1484.57 334.286C1484.57 314.849 1476.85 296.209 1463.11 282.465C1449.36 268.721 1430.72 261 1411.29 261ZM1411.29 392.148C1395.94 392.148 1381.22 386.052 1370.37 375.201C1359.52 364.349 1353.42 349.632 1353.42 334.286C1353.42 318.94 1359.52 304.223 1370.37 293.371C1381.22 282.52 1395.94 276.424 1411.29 276.424C1426.63 276.424 1441.35 282.52 1452.2 293.371C1463.05 304.223 1469.15 318.94 1469.15 334.286C1469.15 349.632 1463.05 364.349 1452.2 375.201C1441.35 386.052 1426.63 392.148 1411.29 392.148Z" fill="#FFDFDF"/>
<path d="M1211.64 28.742L1232.27 -7H1191L1211.64 28.742Z" fill="#364F6B"/>
<path d="M9.93671 262.41L-48.5923 320.937C-48.3996 319.956 -48.1863 318.978 -47.9523 318.004L7.00269 263.049C7.97668 262.815 8.95471 262.602 9.93671 262.41Z" fill="#FFDFDF"/>
<path d="M19.2158 261.18L-3.11523 283.511C-5.13554 284.583 -7.09089 285.773 -8.97119 287.074L16.7068 261.396C17.5415 261.31 18.3778 261.238 19.2158 261.18Z" fill="#FFDFDF"/>
<path d="M27.3816 261.059L9.96655 278.474C8.89455 278.741 7.82793 279.041 6.7666 279.374L25.1465 261C25.8919 261.01 26.6369 261.03 27.3816 261.059Z" fill="#FFDFDF"/>
<path d="M34.7657 261.723L19.6117 276.877C18.759 276.944 17.9067 277.033 17.0547 277.143L32.7307 261.466C33.4114 261.542 34.0897 261.627 34.7657 261.723Z" fill="#FFDFDF"/>
<path d="M41.5428 262.995L27.7578 276.78C27.0245 276.738 26.2882 276.711 25.5488 276.697L39.6678 262.578C40.2938 262.707 40.9188 262.846 41.5428 262.995Z" fill="#FFDFDF"/>
<path d="M64.1997 272.528L52.7548 283.973C52.2608 283.697 51.7637 283.432 51.2617 283.173L62.7847 271.65C63.2594 271.936 63.731 272.229 64.1997 272.528Z" fill="#FFDFDF"/>
<path d="M68.9606 275.816L57.7245 287.052C57.2705 286.736 56.8129 286.43 56.3516 286.133L67.6376 274.846C68.0809 275.163 68.5219 275.486 68.9606 275.816Z" fill="#FFDFDF"/>
<path d="M73.4015 279.423L62.2805 290.543C61.8651 290.191 61.4458 289.846 61.0225 289.508L72.1685 278.364C72.5831 278.714 72.9942 279.067 73.4015 279.423Z" fill="#FFDFDF"/>
<path d="M77.5358 283.336L66.4458 294.426C66.2678 294.243 66.0888 294.062 65.9078 293.88C65.7078 293.68 65.5078 293.48 65.2998 293.28L76.3898 282.189C76.5898 282.389 76.7948 282.589 76.9978 282.789C77.1791 282.97 77.3584 283.152 77.5358 283.336Z" fill="#FFDFDF"/>
<path d="M81.3676 287.552L70.2245 298.695C69.8865 298.273 69.5408 297.855 69.1875 297.44L80.3085 286.32C80.6672 286.728 81.0202 287.138 81.3676 287.552Z" fill="#FFDFDF"/>
<path d="M84.8895 292.077L73.6055 303.361C73.3062 302.901 72.9995 302.444 72.6855 301.99L83.9186 290.756C84.2486 291.193 84.5722 291.633 84.8895 292.077Z" fill="#FFDFDF"/>
<path d="M88.0886 296.925L76.5685 308.445C76.3105 307.943 76.0439 307.446 75.7686 306.952L87.2095 295.511C87.5102 295.98 87.8032 296.451 88.0886 296.925Z" fill="#FFDFDF"/>
<path d="M90.9515 302.114L79.0805 313.985C78.8665 313.441 78.6446 312.899 78.4146 312.359L90.1725 300.6C90.4385 301.103 90.6982 301.608 90.9515 302.114Z" fill="#FFDFDF"/>
<path d="M93.4456 307.663L81.0696 320.04C80.9089 319.444 80.7386 318.851 80.5586 318.259L92.7726 306.045C93.0046 306.583 93.2289 307.122 93.4456 307.663Z" fill="#FFDFDF"/>
<path d="M95.5424 313.614L82.4583 326.698C82.361 326.042 82.252 325.387 82.1313 324.734L94.9883 311.877C95.1813 312.453 95.3654 313.033 95.5424 313.614Z" fill="#FFDFDF"/>
<path d="M97.1885 320.016L83.0885 334.116C83.0732 333.383 83.0435 332.65 82.9995 331.916L96.7675 318.148C96.9209 318.768 97.0612 319.391 97.1885 320.016Z" fill="#FFDFDF"/>
<path d="M98.3076 326.946L82.6646 342.591C82.7686 341.742 82.8545 340.891 82.9225 340.039L98.0496 324.912C98.1462 325.589 98.2322 326.267 98.3076 326.946Z" fill="#FFDFDF"/>
<path d="M98.7828 334.519L80.4658 352.835C80.7925 351.782 81.0882 350.722 81.3528 349.656L98.7219 332.287C98.7519 333.029 98.7748 333.776 98.7828 334.519Z" fill="#FFDFDF"/>
<path d="M98.6163 340.441C98.5623 341.277 98.4913 342.11 98.4033 342.941L72.9873 368.357C74.2376 366.519 75.3815 364.61 76.4133 362.64L98.6163 340.441Z" fill="#FFDFDF"/>
<path d="M97.4084 349.696C97.2171 350.674 97.0057 351.65 96.7744 352.622L41.6194 407.777C40.6481 408.009 39.673 408.22 38.6943 408.411L97.4084 349.696Z" fill="#FFDFDF"/>
<path d="M98.7826 334.519C98.7736 333.776 98.7536 333.03 98.7216 332.287C98.6496 330.504 98.5116 328.724 98.3076 326.946C98.2322 326.268 98.1459 325.59 98.0486 324.912C97.8179 323.273 97.5313 321.64 97.1886 320.012C97.0553 319.386 96.9152 318.762 96.7686 318.14C96.4099 316.62 96.0012 315.11 95.5425 313.61C95.3655 313.03 95.1816 312.449 94.9886 311.873C94.5179 310.455 94.0036 309.051 93.4456 307.659C93.2296 307.119 93.0056 306.579 92.7736 306.041C92.2062 304.717 91.5979 303.407 90.9485 302.11C90.6985 301.604 90.4389 301.1 90.1696 300.596C89.5162 299.357 88.8226 298.132 88.0886 296.922C87.8026 296.447 87.5102 295.976 87.2115 295.508C86.4735 294.348 85.6996 293.203 84.8896 292.074C84.5716 291.63 84.2479 291.19 83.9186 290.753C83.1032 289.667 82.2529 288.6 81.3676 287.553C81.0195 287.139 80.6666 286.729 80.3086 286.321C79.4166 285.307 78.4923 284.312 77.5356 283.337C77.3583 283.155 77.1789 282.973 76.9976 282.791C76.7976 282.591 76.5976 282.391 76.3896 282.191C75.4129 281.235 74.4173 280.313 73.4026 279.423C72.9953 279.065 72.5842 278.712 72.1696 278.364C71.1182 277.48 70.0486 276.631 68.9606 275.816C68.5219 275.483 68.0809 275.16 67.6376 274.846C66.5089 274.038 65.3629 273.265 64.1996 272.529C63.7329 272.229 63.2609 271.937 62.7836 271.653C61.5742 270.92 60.3486 270.227 59.1066 269.575C58.6039 269.309 58.0993 269.049 57.5926 268.797C56.2953 268.151 54.9832 267.544 53.6566 266.976C53.1186 266.747 52.5766 266.522 52.0336 266.307C50.6409 265.749 49.2353 265.237 47.8166 264.77C47.2386 264.576 46.6589 264.392 46.0776 264.216C44.5769 263.76 43.0649 263.353 41.5416 262.995C40.9182 262.846 40.2935 262.707 39.6675 262.577C38.0415 262.237 36.4082 261.953 34.7676 261.723C34.0909 261.627 33.4126 261.541 32.7326 261.466C30.9539 261.266 29.1709 261.131 27.3836 261.059C26.6395 261.028 25.8946 261.009 25.1486 261.003C23.1706 260.985 21.1932 261.043 19.2166 261.179C18.3792 261.237 17.5425 261.309 16.7066 261.396C14.4399 261.63 12.1836 261.968 9.93757 262.41C8.95623 262.603 7.97858 262.816 7.00459 263.05C4.2115 263.718 1.45979 264.549 -1.23644 265.537C-2.51578 266.004 -3.78441 266.508 -5.04241 267.05C-9.58443 269.004 -13.9183 271.41 -17.9784 274.231C-21.6376 276.774 -25.0622 279.638 -28.2114 282.79C-31.3632 285.94 -34.2276 289.364 -36.7704 293.023C-39.5921 297.084 -41.9978 301.417 -43.9514 305.959C-44.4921 307.217 -44.9964 308.485 -45.4644 309.765C-46.4533 312.462 -47.2838 315.213 -47.9514 318.006C-48.1854 318.98 -48.3988 319.957 -48.5914 320.939C-49.0334 323.181 -49.3708 325.437 -49.6034 327.707C-49.6921 328.543 -49.7647 329.379 -49.8214 330.217C-49.9547 332.192 -50.0134 334.169 -49.9974 336.149C-49.9894 336.895 -49.9707 337.64 -49.9414 338.384C-49.8707 340.17 -49.7348 341.953 -49.5334 343.733C-49.4581 344.413 -49.3727 345.092 -49.2774 345.768C-49.0481 347.41 -48.7634 349.043 -48.4234 350.668C-48.2941 351.294 -48.1548 351.919 -48.0054 352.542C-47.6488 354.066 -47.2418 355.578 -46.7844 357.078C-46.6084 357.66 -46.4237 358.239 -46.2304 358.817C-45.7637 360.235 -45.2514 361.641 -44.6934 363.034C-44.4784 363.577 -44.2534 364.118 -44.0244 364.657C-43.4571 365.982 -42.8501 367.294 -42.2034 368.592C-41.9508 369.098 -41.6914 369.603 -41.4254 370.106C-40.7721 371.348 -40.0794 372.574 -39.3474 373.783C-39.0627 374.259 -38.7708 374.731 -38.4714 375.199C-37.7381 376.361 -36.9657 377.507 -36.1544 378.637C-35.8377 379.081 -35.5144 379.522 -35.1844 379.96C-34.3704 381.048 -33.5211 382.118 -32.6364 383.169C-32.2897 383.583 -31.9368 383.994 -31.5774 384.402C-30.6881 385.418 -29.7654 386.414 -28.8094 387.39C-28.6094 387.59 -28.4094 387.795 -28.2094 387.997C-28.0281 388.179 -27.8461 388.358 -27.6634 388.535C-26.6888 389.493 -25.6941 390.417 -24.6794 391.307C-24.2721 391.665 -23.8614 392.018 -23.4474 392.366C-22.3981 393.25 -21.3314 394.101 -20.2474 394.917C-19.8108 395.251 -19.3704 395.574 -18.9264 395.888C-17.7991 396.698 -16.6544 397.472 -15.4924 398.21C-15.0258 398.508 -14.5537 398.801 -14.0764 399.087C-12.8677 399.821 -11.6434 400.514 -10.4034 401.168C-9.90077 401.435 -9.39606 401.695 -8.8894 401.947C-7.5934 402.597 -6.28309 403.206 -4.95843 403.772C-4.42109 404.004 -3.88178 404.228 -3.34045 404.444C-1.94911 405.004 -0.544395 405.518 0.873604 405.987C1.4496 406.18 2.0296 406.364 2.6106 406.541C4.10927 406.999 5.61924 407.407 7.14057 407.767C7.76324 407.917 8.38725 408.057 9.01258 408.187C10.6366 408.529 12.2699 408.816 13.9126 409.047C14.5893 409.145 15.2673 409.231 15.9466 409.306C17.7233 409.51 19.5036 409.648 21.2876 409.72C22.0306 409.752 22.7766 409.772 23.5196 409.78C25.4956 409.805 27.4699 409.75 29.4426 409.615C30.2779 409.56 31.1112 409.489 31.9426 409.402C34.2046 409.175 36.4556 408.842 38.6956 408.402C39.6722 408.211 40.6472 408 41.6206 407.768C44.4012 407.112 47.1412 406.293 49.8266 405.317C51.0993 404.855 52.3609 404.358 53.6116 403.824C58.0841 401.918 62.3566 399.573 66.3666 396.824C70.1753 394.218 73.7341 391.264 76.9976 388C80.2649 384.737 83.2228 381.178 85.8336 377.368C88.5818 373.358 90.9266 369.085 92.8336 364.613C93.3669 363.364 93.8646 362.102 94.3266 360.828C95.3024 358.143 96.1208 355.403 96.7776 352.622C97.0089 351.651 97.2202 350.676 97.4116 349.696C97.8482 347.459 98.1816 345.208 98.4116 342.944C98.4982 342.112 98.5692 341.278 98.6246 340.444C98.7532 338.471 98.8059 336.496 98.7826 334.519ZM72.9826 368.36C70.8965 371.427 68.5261 374.289 65.9026 376.91C63.2816 379.534 60.4192 381.904 57.3536 383.99C55.5146 385.241 53.6055 386.385 51.6356 387.416C48.4963 389.063 45.2134 390.419 41.8276 391.468C40.7756 391.795 39.7159 392.091 38.6486 392.355C36.3228 392.937 33.9633 393.375 31.5836 393.665C30.7336 393.769 29.8829 393.855 29.0316 393.923C27.0602 394.079 25.0855 394.135 23.1076 394.091C22.3742 394.076 21.6409 394.046 20.9076 394.002C19.1643 393.9 17.4259 393.72 15.6926 393.46C15.0359 393.363 14.3812 393.254 13.7286 393.133C12.1533 392.844 10.5889 392.49 9.03559 392.07C8.43959 391.911 7.84623 391.741 7.25556 391.559C5.81556 391.123 4.39023 390.629 2.97956 390.078C2.43556 389.864 1.89359 389.642 1.35358 389.412C0.0309181 388.848 -1.27344 388.234 -2.55944 387.569C-3.06011 387.311 -3.55775 387.045 -4.05242 386.769C-5.26842 386.097 -6.46542 385.376 -7.64342 384.606C-8.10409 384.307 -8.56106 384 -9.0144 383.686C-10.1351 382.91 -11.2351 382.089 -12.3144 381.225C-12.7364 380.887 -13.1544 380.542 -13.5684 380.188C-14.5971 379.316 -15.6021 378.403 -16.5834 377.447C-16.7664 377.269 -16.9474 377.09 -17.1294 376.909C-17.3294 376.709 -17.5294 376.509 -17.7294 376.301C-18.6841 375.32 -19.5971 374.314 -20.4684 373.283C-20.8198 372.869 -21.1647 372.45 -21.5034 372.026C-22.3661 370.95 -23.1847 369.85 -23.9594 368.726C-24.2754 368.273 -24.5817 367.816 -24.8784 367.354C-25.6471 366.177 -26.3664 364.977 -27.0364 363.754C-27.3134 363.26 -27.5784 362.762 -27.8364 362.261C-28.4991 360.974 -29.1114 359.667 -29.6734 358.341C-29.9041 357.802 -30.1248 357.259 -30.3354 356.713C-30.8848 355.303 -31.3771 353.877 -31.8124 352.433C-31.9924 351.842 -32.1624 351.246 -32.3214 350.65C-32.7387 349.096 -33.0911 347.53 -33.3784 345.95C-33.4971 345.294 -33.6044 344.638 -33.7004 343.981C-33.9564 342.248 -34.1341 340.507 -34.2335 338.757C-34.2755 338.024 -34.3031 337.288 -34.3164 336.548C-34.3567 334.568 -34.2966 332.586 -34.1364 330.611C-34.0697 329.759 -33.9811 328.907 -33.8704 328.055C-33.5735 325.667 -33.129 323.3 -32.5394 320.966C-32.2694 319.895 -31.9694 318.83 -31.6394 317.771C-30.5699 314.355 -29.1867 311.045 -27.5074 307.883C-26.4359 305.863 -25.2461 303.908 -23.9445 302.027C-21.9256 299.112 -19.648 296.384 -17.1394 293.877C-14.6327 291.369 -11.905 289.091 -8.98943 287.072C-7.10912 285.771 -5.15371 284.581 -3.13342 283.509C0.0281219 281.83 3.33823 280.447 6.75459 279.377C7.81258 279.044 8.87926 278.744 9.9546 278.477C12.2875 277.888 14.6547 277.443 17.0425 277.146C17.8945 277.039 18.7466 276.95 19.5986 276.88C21.5732 276.72 23.5548 276.659 25.5356 276.699C26.2689 276.711 27.0052 276.739 27.7446 276.782C29.4912 276.882 31.2326 277.06 32.9686 277.315C33.6266 277.411 34.2829 277.518 34.9376 277.637C36.5136 277.925 38.0802 278.278 39.6376 278.694C40.2376 278.852 40.8296 279.023 41.4206 279.202C42.8619 279.636 44.2886 280.129 45.7006 280.679C46.2466 280.891 46.7892 281.111 47.3286 281.341C48.6519 281.903 49.9586 282.515 51.2486 283.178C51.7486 283.436 52.2486 283.701 52.7416 283.978C53.9609 284.648 55.1609 285.368 56.3416 286.137C56.8036 286.434 57.2616 286.74 57.7156 287.056C58.8363 287.83 59.9362 288.648 61.0156 289.512C61.4389 289.85 61.8582 290.195 62.2736 290.547C63.3036 291.42 64.3096 292.333 65.2916 293.286C65.4916 293.486 65.6996 293.686 65.8996 293.886C66.0816 294.068 66.2596 294.249 66.4376 294.432C67.3936 295.412 68.3073 296.417 69.1786 297.446C69.5333 297.862 69.8789 298.28 70.2156 298.701C71.0823 299.777 71.9026 300.877 72.6766 302.001C72.9912 302.455 73.2979 302.912 73.5966 303.372C74.3666 304.548 75.0879 305.745 75.7606 306.963C76.0352 307.457 76.3019 307.955 76.5606 308.456C77.2272 309.742 77.8416 311.047 78.4036 312.369C78.6342 312.909 78.8562 313.451 79.0696 313.995C79.6189 315.404 80.1129 316.829 80.5516 318.269C80.7309 318.861 80.9012 319.454 81.0626 320.05C81.4826 321.602 81.8366 323.167 82.1246 324.743C82.2452 325.396 82.3543 326.051 82.4516 326.707C82.7096 328.441 82.8903 330.179 82.9936 331.922C83.0369 332.656 83.0666 333.389 83.0826 334.122C83.1246 336.097 83.0686 338.072 82.9146 340.046C82.8479 340.897 82.7619 341.748 82.6566 342.598C82.366 344.978 81.9285 347.338 81.3466 349.663C81.0799 350.73 80.7843 351.79 80.4596 352.842C79.4101 356.228 78.0538 359.511 76.4076 362.65C75.3775 364.617 74.2356 366.524 72.9876 368.36H72.9826Z" fill="#FFDFDF"/>
<path d="M58.4685 335.395C58.4695 337.196 58.3281 338.995 58.0455 340.773C57.8928 341.746 57.6985 342.704 57.4625 343.647C56.5679 347.239 55.0913 350.66 53.0914 353.774C50.433 357.916 46.913 361.436 42.7714 364.094C39.6569 366.094 36.2361 367.571 32.6445 368.465C31.7018 368.7 30.7441 368.894 29.7714 369.048C27.9924 369.331 26.1938 369.472 24.3925 369.471C24.1275 369.471 23.8644 369.471 23.6014 369.461C22.8681 369.446 22.1438 369.407 21.4285 369.343C19.758 369.199 18.1005 368.932 16.4695 368.543C15.8602 368.398 15.2574 368.237 14.6614 368.059C13.2283 367.634 11.8251 367.113 10.4614 366.5C9.93743 366.266 9.42047 366.019 8.91047 365.759C7.66213 365.121 6.45446 364.407 5.29444 363.619C4.83911 363.313 4.39316 362.995 3.95649 362.666C2.86685 361.848 1.82699 360.966 0.842476 360.023C0.451809 359.651 0.0704327 359.269 -0.301567 358.877C-1.24063 357.89 -2.12045 356.848 -2.93652 355.756C-3.26318 355.316 -3.57986 354.869 -3.88653 354.414C-4.6716 353.252 -5.38301 352.041 -6.01653 350.789C-6.27653 350.279 -6.52319 349.761 -6.75652 349.236C-7.36596 347.87 -7.88279 346.464 -8.30352 345.028C-8.48085 344.428 -8.64089 343.824 -8.78356 343.216C-9.16815 341.581 -9.43021 339.919 -9.56756 338.244C-9.62822 337.524 -9.66556 336.798 -9.67956 336.065C-9.67956 335.841 -9.68652 335.619 -9.68652 335.394C-9.68778 333.544 -9.53864 331.696 -9.24053 329.869C-9.0812 328.89 -8.88122 327.926 -8.64056 326.976C-7.70789 323.31 -6.16831 319.825 -4.08556 316.666C-1.52908 312.791 1.78797 309.475 5.66444 306.919C8.82299 304.837 12.3078 303.297 15.9744 302.364C16.9238 302.123 17.8881 301.923 18.8674 301.764C20.694 301.466 22.5418 301.317 24.3925 301.318C24.6175 301.318 24.8405 301.318 25.0635 301.325C25.7968 301.34 26.5231 301.377 27.2424 301.437C28.917 301.575 30.5789 301.837 32.2145 302.221C32.8258 302.363 33.4298 302.523 34.0264 302.701C35.4622 303.122 36.8681 303.639 38.2344 304.248C38.7598 304.481 39.2775 304.728 39.7875 304.988C41.0398 305.622 42.2512 306.333 43.4144 307.118C43.8684 307.425 44.3154 307.742 44.7554 308.068C45.8468 308.884 46.889 309.764 47.8765 310.703C48.2685 311.075 48.6505 311.456 49.0225 311.847C49.9646 312.832 50.8472 313.872 51.6655 314.961C51.9935 315.399 52.3111 315.845 52.6185 316.299C53.4062 317.461 54.1212 318.67 54.7595 319.919C55.0188 320.429 55.2658 320.946 55.5004 321.47C56.1128 322.834 56.6333 324.237 57.0585 325.67C57.2371 326.266 57.3985 326.869 57.5425 327.478C57.931 329.109 58.1984 330.766 58.3425 332.436C58.4058 333.155 58.4454 333.88 58.4614 334.61C58.4664 334.867 58.4685 335.13 58.4685 335.395Z" fill="#364F6B"/>
<path d="M236.49 40.9195L215.25 62.156C214.168 61.9601 213.085 61.7829 212 61.6244L233.624 40C234.581 40.2927 235.536 40.5992 236.49 40.9195Z" fill="#B4621C"/>
<path d="M246.128 44.5609L225.95 64.7393C224.975 64.4438 223.991 64.1615 223.007 63.9007L243.451 43.4566C244.346 43.8115 245.24 44.1829 246.128 44.5609Z" fill="#B4621C"/>
<path d="M255.125 48.8512L235.703 68.2702C234.812 67.8894 233.916 67.5252 233.015 67.1775L252.626 47.5669C253.461 47.984 254.294 48.4121 255.125 48.8512Z" fill="#B4621C"/>
<path d="M1244.49 239.919L1223.25 261.156C1222.17 260.96 1221.09 260.783 1220 260.624L1241.62 239C1242.58 239.293 1243.54 239.599 1244.49 239.919Z" fill="#B4621C"/>
<path d="M1254.13 243.561L1233.95 263.739C1232.97 263.444 1231.99 263.162 1231.01 262.901L1251.45 242.457C1252.35 242.811 1253.24 243.183 1254.13 243.561Z" fill="#B4621C"/>
<path d="M1263.13 247.851L1243.7 267.27C1242.81 266.889 1241.92 266.525 1241.02 266.177L1260.63 246.567C1261.46 246.984 1262.29 247.412 1263.13 247.851Z" fill="#B4621C"/>
<path d="M595.358 171.369H590.926C590.756 170.422 590.438 169.589 589.974 168.869C589.51 168.15 588.942 167.539 588.27 167.037C587.598 166.535 586.845 166.156 586.011 165.901C585.188 165.645 584.312 165.517 583.384 165.517C581.707 165.517 580.206 165.938 578.881 166.781C577.564 167.624 576.523 168.86 575.756 170.489C574.998 172.117 574.619 174.106 574.619 176.455C574.619 178.822 574.998 180.82 575.756 182.449C576.523 184.078 577.569 185.309 578.895 186.142C580.221 186.975 581.712 187.392 583.369 187.392C584.288 187.392 585.159 187.269 585.983 187.023C586.816 186.767 587.569 186.393 588.241 185.901C588.914 185.408 589.482 184.807 589.946 184.097C590.42 183.377 590.746 182.553 590.926 181.625L595.358 181.639C595.121 183.069 594.662 184.385 593.98 185.588C593.308 186.781 592.441 187.813 591.381 188.685C590.33 189.546 589.127 190.214 587.773 190.688C586.419 191.161 584.941 191.398 583.341 191.398C580.822 191.398 578.578 190.801 576.608 189.608C574.638 188.405 573.085 186.687 571.949 184.452C570.822 182.217 570.259 179.551 570.259 176.455C570.259 173.348 570.827 170.683 571.963 168.457C573.099 166.223 574.652 164.509 576.622 163.315C578.592 162.113 580.831 161.511 583.341 161.511C584.884 161.511 586.324 161.734 587.659 162.179C589.004 162.615 590.211 163.259 591.281 164.111C592.351 164.954 593.237 165.986 593.938 167.207C594.638 168.42 595.112 169.807 595.358 171.369ZM600.269 191V169.182H604.374V172.648H604.602C604.999 171.473 605.7 170.55 606.704 169.878C607.717 169.196 608.863 168.855 610.141 168.855C610.406 168.855 610.719 168.865 611.079 168.884C611.448 168.902 611.737 168.926 611.945 168.955V173.017C611.775 172.97 611.472 172.918 611.036 172.861C610.601 172.795 610.165 172.761 609.729 172.761C608.726 172.761 607.831 172.974 607.045 173.401C606.268 173.817 605.653 174.4 605.198 175.148C604.744 175.886 604.516 176.729 604.516 177.676V191H600.269ZM624.243 191.44C622.093 191.44 620.242 190.981 618.689 190.062C617.145 189.134 615.952 187.832 615.109 186.156C614.276 184.471 613.859 182.496 613.859 180.233C613.859 177.998 614.276 176.028 615.109 174.324C615.952 172.619 617.126 171.289 618.632 170.332C620.147 169.376 621.918 168.898 623.945 168.898C625.176 168.898 626.369 169.101 627.524 169.509C628.679 169.916 629.716 170.555 630.635 171.426C631.554 172.297 632.278 173.429 632.808 174.821C633.339 176.204 633.604 177.884 633.604 179.864V181.369H616.26V178.188H629.442C629.442 177.07 629.214 176.08 628.76 175.219C628.305 174.348 627.666 173.661 626.842 173.159C626.028 172.657 625.071 172.406 623.973 172.406C622.78 172.406 621.738 172.7 620.848 173.287C619.967 173.865 619.286 174.622 618.803 175.56C618.329 176.488 618.092 177.496 618.092 178.585V181.071C618.092 182.529 618.348 183.77 618.859 184.793C619.38 185.815 620.105 186.597 621.033 187.136C621.961 187.667 623.045 187.932 624.286 187.932C625.09 187.932 625.824 187.818 626.487 187.591C627.15 187.354 627.723 187.004 628.206 186.54C628.689 186.076 629.058 185.503 629.314 184.821L633.334 185.545C633.012 186.729 632.434 187.766 631.601 188.656C630.777 189.537 629.74 190.223 628.49 190.716C627.25 191.199 625.834 191.44 624.243 191.44ZM644.665 191.483C643.283 191.483 642.033 191.227 640.915 190.716C639.798 190.195 638.913 189.442 638.259 188.457C637.615 187.473 637.293 186.265 637.293 184.835C637.293 183.604 637.53 182.591 638.004 181.795C638.477 181 639.116 180.37 639.921 179.906C640.726 179.442 641.626 179.092 642.62 178.855C643.614 178.618 644.628 178.438 645.66 178.315C646.967 178.164 648.027 178.041 648.842 177.946C649.656 177.842 650.248 177.676 650.617 177.449C650.987 177.222 651.171 176.852 651.171 176.341V176.241C651.171 175.001 650.821 174.04 650.12 173.358C649.429 172.676 648.397 172.335 647.023 172.335C645.594 172.335 644.467 172.652 643.643 173.287C642.828 173.912 642.265 174.608 641.952 175.375L637.961 174.466C638.434 173.14 639.126 172.07 640.035 171.256C640.953 170.432 642.009 169.835 643.202 169.466C644.396 169.087 645.65 168.898 646.967 168.898C647.838 168.898 648.761 169.002 649.737 169.21C650.721 169.409 651.64 169.778 652.492 170.318C653.354 170.858 654.059 171.63 654.609 172.634C655.158 173.628 655.433 174.92 655.433 176.511V191H651.285V188.017H651.114C650.84 188.566 650.428 189.106 649.879 189.636C649.329 190.167 648.624 190.607 647.762 190.957C646.9 191.308 645.868 191.483 644.665 191.483ZM645.589 188.074C646.763 188.074 647.767 187.842 648.6 187.378C649.443 186.914 650.082 186.308 650.518 185.56C650.963 184.802 651.185 183.992 651.185 183.131V180.318C651.034 180.47 650.74 180.612 650.305 180.744C649.879 180.867 649.391 180.976 648.842 181.071C648.292 181.156 647.757 181.237 647.237 181.312C646.716 181.379 646.28 181.436 645.93 181.483C645.106 181.587 644.353 181.762 643.671 182.009C642.999 182.255 642.459 182.61 642.052 183.074C641.654 183.528 641.455 184.134 641.455 184.892C641.455 185.943 641.844 186.739 642.62 187.278C643.397 187.809 644.386 188.074 645.589 188.074ZM671.274 169.182V172.591H659.357V169.182H671.274ZM662.553 163.955H666.8V184.594C666.8 185.418 666.923 186.038 667.169 186.455C667.415 186.862 667.732 187.141 668.121 187.293C668.518 187.435 668.949 187.506 669.413 187.506C669.754 187.506 670.053 187.482 670.308 187.435C670.564 187.387 670.763 187.349 670.905 187.321L671.672 190.83C671.426 190.924 671.075 191.019 670.621 191.114C670.166 191.218 669.598 191.275 668.916 191.284C667.799 191.303 666.757 191.104 665.791 190.688C664.825 190.271 664.044 189.627 663.447 188.756C662.851 187.884 662.553 186.791 662.553 185.474V163.955ZM685.141 191.44C682.992 191.44 681.14 190.981 679.587 190.062C678.044 189.134 676.851 187.832 676.008 186.156C675.174 184.471 674.758 182.496 674.758 180.233C674.758 177.998 675.174 176.028 676.008 174.324C676.851 172.619 678.025 171.289 679.531 170.332C681.046 169.376 682.817 168.898 684.843 168.898C686.074 168.898 687.267 169.101 688.423 169.509C689.578 169.916 690.615 170.555 691.533 171.426C692.452 172.297 693.176 173.429 693.707 174.821C694.237 176.204 694.502 177.884 694.502 179.864V181.369H677.158V178.188H690.34C690.34 177.07 690.113 176.08 689.658 175.219C689.204 174.348 688.565 173.661 687.741 173.159C686.926 172.657 685.97 172.406 684.871 172.406C683.678 172.406 682.637 172.7 681.746 173.287C680.866 173.865 680.184 174.622 679.701 175.56C679.228 176.488 678.991 177.496 678.991 178.585V181.071C678.991 182.529 679.246 183.77 679.758 184.793C680.279 185.815 681.003 186.597 681.931 187.136C682.859 187.667 683.943 187.932 685.184 187.932C685.989 187.932 686.723 187.818 687.386 187.591C688.049 187.354 688.621 187.004 689.104 186.54C689.587 186.076 689.957 185.503 690.212 184.821L694.232 185.545C693.91 186.729 693.333 187.766 692.499 188.656C691.675 189.537 690.638 190.223 689.388 190.716C688.148 191.199 686.732 191.44 685.141 191.44ZM716.15 191.483C714.767 191.483 713.517 191.227 712.4 190.716C711.282 190.195 710.397 189.442 709.744 188.457C709.1 187.473 708.778 186.265 708.778 184.835C708.778 183.604 709.014 182.591 709.488 181.795C709.961 181 710.601 180.37 711.406 179.906C712.21 179.442 713.11 179.092 714.104 178.855C715.099 178.618 716.112 178.438 717.144 178.315C718.451 178.164 719.512 178.041 720.326 177.946C721.14 177.842 721.732 177.676 722.102 177.449C722.471 177.222 722.656 176.852 722.656 176.341V176.241C722.656 175.001 722.305 174.04 721.604 173.358C720.913 172.676 719.881 172.335 718.508 172.335C717.078 172.335 715.951 172.652 715.127 173.287C714.313 173.912 713.749 174.608 713.437 175.375L709.445 174.466C709.919 173.14 710.61 172.07 711.519 171.256C712.438 170.432 713.494 169.835 714.687 169.466C715.88 169.087 717.135 168.898 718.451 168.898C719.322 168.898 720.246 169.002 721.221 169.21C722.206 169.409 723.124 169.778 723.977 170.318C724.838 170.858 725.544 171.63 726.093 172.634C726.642 173.628 726.917 174.92 726.917 176.511V191H722.769V188.017H722.599C722.324 188.566 721.912 189.106 721.363 189.636C720.814 190.167 720.108 190.607 719.246 190.957C718.385 191.308 717.353 191.483 716.15 191.483ZM717.073 188.074C718.247 188.074 719.251 187.842 720.085 187.378C720.927 186.914 721.567 186.308 722.002 185.56C722.447 184.802 722.67 183.992 722.67 183.131V180.318C722.518 180.47 722.225 180.612 721.789 180.744C721.363 180.867 720.875 180.976 720.326 181.071C719.777 181.156 719.242 181.237 718.721 181.312C718.2 181.379 717.764 181.436 717.414 181.483C716.59 181.587 715.837 181.762 715.156 182.009C714.483 182.255 713.943 182.61 713.536 183.074C713.138 183.528 712.94 184.134 712.94 184.892C712.94 185.943 713.328 186.739 714.104 187.278C714.881 187.809 715.871 188.074 717.073 188.074ZM736.821 178.045V191H732.574V169.182H736.651V172.733H736.92C737.422 171.578 738.208 170.65 739.278 169.949C740.358 169.248 741.717 168.898 743.355 168.898C744.842 168.898 746.144 169.21 747.261 169.835C748.379 170.451 749.245 171.369 749.861 172.591C750.476 173.812 750.784 175.323 750.784 177.122V191H746.537V177.634C746.537 176.052 746.125 174.816 745.301 173.926C744.477 173.027 743.346 172.577 741.906 172.577C740.921 172.577 740.045 172.79 739.278 173.216C738.521 173.642 737.92 174.267 737.474 175.091C737.039 175.905 736.821 176.89 736.821 178.045ZM776.469 191.44C774.32 191.44 772.469 190.981 770.915 190.062C769.372 189.134 768.179 187.832 767.336 186.156C766.503 184.471 766.086 182.496 766.086 180.233C766.086 177.998 766.503 176.028 767.336 174.324C768.179 172.619 769.353 171.289 770.859 170.332C772.374 169.376 774.145 168.898 776.171 168.898C777.402 168.898 778.595 169.101 779.751 169.509C780.906 169.916 781.943 170.555 782.862 171.426C783.78 172.297 784.504 173.429 785.035 174.821C785.565 176.204 785.83 177.884 785.83 179.864V181.369H768.487V178.188H781.668C781.668 177.07 781.441 176.08 780.987 175.219C780.532 174.348 779.893 173.661 779.069 173.159C778.254 172.657 777.298 172.406 776.2 172.406C775.006 172.406 773.965 172.7 773.075 173.287C772.194 173.865 771.512 174.622 771.029 175.56C770.556 176.488 770.319 177.496 770.319 178.585V181.071C770.319 182.529 770.575 183.77 771.086 184.793C771.607 185.815 772.331 186.597 773.259 187.136C774.187 187.667 775.272 187.932 776.512 187.932C777.317 187.932 778.051 187.818 778.714 187.591C779.377 187.354 779.95 187.004 780.433 186.54C780.915 186.076 781.285 185.503 781.54 184.821L785.56 185.545C785.238 186.729 784.661 187.766 783.827 188.656C783.004 189.537 781.967 190.223 780.717 190.716C779.476 191.199 778.06 191.44 776.469 191.44ZM808.582 169.182L800.67 191H796.125L788.199 169.182H792.759L798.284 185.972H798.511L804.023 169.182H808.582ZM821.235 191.44C819.085 191.44 817.234 190.981 815.681 190.062C814.138 189.134 812.944 187.832 812.102 186.156C811.268 184.471 810.852 182.496 810.852 180.233C810.852 177.998 811.268 176.028 812.102 174.324C812.944 172.619 814.119 171.289 815.624 170.332C817.139 169.376 818.91 168.898 820.937 168.898C822.168 168.898 823.361 169.101 824.516 169.509C825.672 169.916 826.709 170.555 827.627 171.426C828.546 172.297 829.27 173.429 829.8 174.821C830.331 176.204 830.596 177.884 830.596 179.864V181.369H813.252V178.188H826.434C826.434 177.07 826.207 176.08 825.752 175.219C825.298 174.348 824.658 173.661 823.835 173.159C823.02 172.657 822.064 172.406 820.965 172.406C819.772 172.406 818.73 172.7 817.84 173.287C816.96 173.865 816.278 174.622 815.795 175.56C815.321 176.488 815.085 177.496 815.085 178.585V181.071C815.085 182.529 815.34 183.77 815.852 184.793C816.372 185.815 817.097 186.597 818.025 187.136C818.953 187.667 820.037 187.932 821.278 187.932C822.083 187.932 822.817 187.818 823.479 187.591C824.142 187.354 824.715 187.004 825.198 186.54C825.681 186.076 826.05 185.503 826.306 184.821L830.326 185.545C830.004 186.729 829.426 187.766 828.593 188.656C827.769 189.537 826.732 190.223 825.482 190.716C824.242 191.199 822.826 191.44 821.235 191.44ZM839.555 178.045V191H835.308V169.182H839.385V172.733H839.655C840.157 171.578 840.943 170.65 842.013 169.949C843.092 169.248 844.451 168.898 846.089 168.898C847.576 168.898 848.878 169.21 849.996 169.835C851.113 170.451 851.98 171.369 852.595 172.591C853.211 173.812 853.518 175.323 853.518 177.122V191H849.271V177.634C849.271 176.052 848.859 174.816 848.036 173.926C847.212 173.027 846.08 172.577 844.641 172.577C843.656 172.577 842.78 172.79 842.013 173.216C841.255 173.642 840.654 174.267 840.209 175.091C839.773 175.905 839.555 176.89 839.555 178.045ZM869.399 169.182V172.591H857.482V169.182H869.399ZM860.678 163.955H864.925V184.594C864.925 185.418 865.048 186.038 865.294 186.455C865.54 186.862 865.857 187.141 866.246 187.293C866.643 187.435 867.074 187.506 867.538 187.506C867.879 187.506 868.178 187.482 868.433 187.435C868.689 187.387 868.888 187.349 869.03 187.321L869.797 190.83C869.551 190.924 869.2 191.019 868.746 191.114C868.291 191.218 867.723 191.275 867.041 191.284C865.924 191.303 864.882 191.104 863.916 190.688C862.95 190.271 862.169 189.627 861.572 188.756C860.976 187.884 860.678 186.791 860.678 185.474V163.955Z" fill="black"/>
</g>
<defs>
<clipPath id="clip0_141_9685">
<rect width="1440" height="352" fill="white"/>
</clipPath>
</defs>
</svg>
