<svg width="1440" height="352" viewBox="0 0 1440 352" fill="none" xmlns="http://www.w3.org/2000/svg">
<g clip-path="url(#clip0_16_12038)">
<rect width="1440" height="352" fill="#765BFF" fill-opacity="0.04"/>
<path d="M1391.51 319.456C1396.89 319.456 1401.25 315.098 1401.25 309.722C1401.25 304.346 1396.89 299.988 1391.51 299.988C1386.14 299.988 1381.78 304.346 1381.78 309.722C1381.78 315.098 1386.14 319.456 1391.51 319.456Z" fill="#364F6B"/>
<path d="M1411.29 261C1391.85 261 1373.21 268.721 1359.46 282.465C1345.72 296.209 1338 314.849 1338 334.286C1338 353.723 1345.72 372.363 1359.46 386.107C1373.21 399.851 1391.85 407.572 1411.29 407.572C1430.72 407.572 1449.36 399.851 1463.11 386.107C1476.85 372.363 1484.57 353.723 1484.57 334.286C1484.57 314.849 1476.85 296.209 1463.11 282.465C1449.36 268.721 1430.72 261 1411.29 261ZM1411.29 392.148C1395.94 392.148 1381.22 386.052 1370.37 375.201C1359.52 364.349 1353.42 349.632 1353.42 334.286C1353.42 318.94 1359.52 304.223 1370.37 293.371C1381.22 282.52 1395.94 276.424 1411.29 276.424C1426.63 276.424 1441.35 282.52 1452.2 293.371C1463.05 304.223 1469.15 318.94 1469.15 334.286C1469.15 349.632 1463.05 364.349 1452.2 375.201C1441.35 386.052 1426.63 392.148 1411.29 392.148Z" fill="#FFDFDF"/>
<path d="M1211.64 28.742L1232.27 -7H1191L1211.64 28.742Z" fill="#364F6B"/>
<path d="M9.93646 262.41L-48.5925 320.937C-48.3999 319.956 -48.1865 318.978 -47.9525 318.004L7.00244 263.049C7.97644 262.815 8.95446 262.602 9.93646 262.41Z" fill="#FFDFDF"/>
<path d="M19.2155 261.18L-3.11548 283.511C-5.13579 284.583 -7.09113 285.773 -8.97144 287.074L16.7065 261.396C17.5412 261.31 18.3775 261.238 19.2155 261.18Z" fill="#FFDFDF"/>
<path d="M27.3816 261.059L9.96655 278.474C8.89455 278.741 7.82793 279.041 6.7666 279.374L25.1465 261C25.8919 261.01 26.6369 261.03 27.3816 261.059Z" fill="#FFDFDF"/>
<path d="M34.7654 261.723L19.6115 276.877C18.7588 276.944 17.9064 277.033 17.0544 277.143L32.7305 261.466C33.4111 261.542 34.0894 261.627 34.7654 261.723Z" fill="#FFDFDF"/>
<path d="M41.5424 262.995L27.7573 276.78C27.024 276.738 26.2877 276.711 25.5483 276.697L39.6674 262.578C40.2934 262.707 40.9184 262.846 41.5424 262.995Z" fill="#FFDFDF"/>
<path d="M64.1995 272.528L52.7545 283.973C52.2605 283.697 51.7635 283.432 51.2615 283.173L62.7845 271.65C63.2592 271.936 63.7308 272.229 64.1995 272.528Z" fill="#FFDFDF"/>
<path d="M68.9606 275.816L57.7245 287.052C57.2705 286.736 56.8129 286.43 56.3516 286.133L67.6376 274.846C68.0809 275.163 68.5219 275.486 68.9606 275.816Z" fill="#FFDFDF"/>
<path d="M73.4015 279.423L62.2805 290.543C61.8651 290.191 61.4458 289.846 61.0225 289.508L72.1685 278.364C72.5831 278.714 72.9942 279.067 73.4015 279.423Z" fill="#FFDFDF"/>
<path d="M77.5355 283.336L66.4456 294.426C66.2676 294.243 66.0885 294.062 65.9075 293.88C65.7075 293.68 65.5076 293.48 65.2996 293.28L76.3895 282.189C76.5895 282.389 76.7946 282.589 76.9976 282.789C77.1789 282.97 77.3582 283.152 77.5355 283.336Z" fill="#FFDFDF"/>
<path d="M81.3676 287.552L70.2245 298.695C69.8865 298.273 69.5408 297.855 69.1875 297.44L80.3085 286.32C80.6672 286.728 81.0202 287.138 81.3676 287.552Z" fill="#FFDFDF"/>
<path d="M84.8895 292.077L73.6055 303.361C73.3062 302.901 72.9995 302.444 72.6855 301.99L83.9186 290.756C84.2486 291.193 84.5722 291.633 84.8895 292.077Z" fill="#FFDFDF"/>
<path d="M88.0886 296.925L76.5685 308.445C76.3105 307.943 76.0439 307.446 75.7686 306.952L87.2095 295.511C87.5102 295.98 87.8032 296.451 88.0886 296.925Z" fill="#FFDFDF"/>
<path d="M90.9515 302.114L79.0805 313.985C78.8665 313.441 78.6446 312.899 78.4146 312.359L90.1725 300.6C90.4385 301.103 90.6982 301.608 90.9515 302.114Z" fill="#FFDFDF"/>
<path d="M93.4456 307.663L81.0696 320.04C80.9089 319.444 80.7386 318.851 80.5586 318.259L92.7726 306.045C93.0046 306.583 93.2289 307.122 93.4456 307.663Z" fill="#FFDFDF"/>
<path d="M95.5426 313.614L82.4586 326.698C82.3612 326.042 82.2523 325.387 82.1316 324.734L94.9886 311.877C95.1816 312.453 95.3656 313.033 95.5426 313.614Z" fill="#FFDFDF"/>
<path d="M97.1888 320.016L83.0887 334.116C83.0734 333.383 83.0438 332.65 82.9998 331.916L96.7678 318.148C96.9211 318.768 97.0614 319.391 97.1888 320.016Z" fill="#FFDFDF"/>
<path d="M98.3076 326.946L82.6646 342.591C82.7686 341.742 82.8545 340.891 82.9225 340.039L98.0496 324.912C98.1462 325.589 98.2322 326.267 98.3076 326.946Z" fill="#FFDFDF"/>
<path d="M98.7826 334.519L80.4656 352.835C80.7922 351.782 81.0879 350.722 81.3526 349.656L98.7216 332.287C98.7516 333.029 98.7746 333.776 98.7826 334.519Z" fill="#FFDFDF"/>
<path d="M98.6166 340.441C98.5626 341.277 98.4916 342.11 98.4036 342.941L72.9875 368.357C74.2379 366.519 75.3818 364.61 76.4136 362.64L98.6166 340.441Z" fill="#FFDFDF"/>
<path d="M97.4086 349.696C97.2173 350.674 97.0059 351.65 96.7746 352.622L41.6196 407.777C40.6483 408.009 39.6732 408.22 38.6946 408.411L97.4086 349.696Z" fill="#FFDFDF"/>
<path d="M98.7826 334.519C98.7736 333.776 98.7536 333.03 98.7216 332.287C98.6496 330.504 98.5116 328.724 98.3076 326.946C98.2322 326.268 98.1459 325.59 98.0486 324.912C97.8179 323.273 97.5313 321.64 97.1886 320.012C97.0553 319.386 96.9152 318.762 96.7686 318.14C96.4099 316.62 96.0012 315.11 95.5425 313.61C95.3655 313.03 95.1816 312.449 94.9886 311.873C94.5179 310.455 94.0036 309.051 93.4456 307.659C93.2296 307.119 93.0056 306.579 92.7736 306.041C92.2062 304.717 91.5979 303.407 90.9485 302.11C90.6985 301.604 90.4389 301.1 90.1696 300.596C89.5162 299.357 88.8226 298.132 88.0886 296.922C87.8026 296.447 87.5102 295.976 87.2115 295.508C86.4735 294.348 85.6996 293.203 84.8896 292.074C84.5716 291.63 84.2479 291.19 83.9186 290.753C83.1032 289.667 82.2529 288.6 81.3676 287.553C81.0195 287.139 80.6666 286.729 80.3086 286.321C79.4166 285.307 78.4923 284.312 77.5356 283.337C77.3583 283.155 77.1789 282.973 76.9976 282.791C76.7976 282.591 76.5976 282.391 76.3896 282.191C75.4129 281.235 74.4173 280.313 73.4026 279.423C72.9953 279.065 72.5842 278.712 72.1696 278.364C71.1182 277.48 70.0486 276.631 68.9606 275.816C68.5219 275.483 68.0809 275.16 67.6376 274.846C66.5089 274.038 65.3629 273.265 64.1996 272.529C63.7329 272.229 63.2609 271.937 62.7836 271.653C61.5742 270.92 60.3486 270.227 59.1066 269.575C58.6039 269.309 58.0993 269.049 57.5926 268.797C56.2953 268.151 54.9832 267.544 53.6566 266.976C53.1186 266.747 52.5766 266.522 52.0336 266.307C50.6409 265.749 49.2353 265.237 47.8166 264.77C47.2386 264.576 46.6589 264.392 46.0776 264.216C44.5769 263.76 43.0649 263.353 41.5416 262.995C40.9182 262.846 40.2935 262.707 39.6675 262.577C38.0415 262.237 36.4082 261.953 34.7676 261.723C34.0909 261.627 33.4126 261.541 32.7326 261.466C30.9539 261.266 29.1709 261.131 27.3836 261.059C26.6395 261.028 25.8946 261.009 25.1486 261.003C23.1706 260.985 21.1932 261.043 19.2166 261.179C18.3792 261.237 17.5425 261.309 16.7066 261.396C14.4399 261.63 12.1836 261.968 9.93757 262.41C8.95623 262.603 7.97858 262.816 7.00459 263.05C4.2115 263.718 1.45979 264.549 -1.23644 265.537C-2.51578 266.004 -3.78441 266.508 -5.04241 267.05C-9.58443 269.004 -13.9183 271.41 -17.9784 274.231C-21.6376 276.774 -25.0622 279.638 -28.2114 282.79C-31.3632 285.94 -34.2276 289.364 -36.7704 293.023C-39.5921 297.084 -41.9978 301.417 -43.9514 305.959C-44.4921 307.217 -44.9964 308.485 -45.4644 309.765C-46.4533 312.462 -47.2838 315.213 -47.9514 318.006C-48.1854 318.98 -48.3988 319.957 -48.5914 320.939C-49.0334 323.181 -49.3708 325.437 -49.6034 327.707C-49.6921 328.543 -49.7647 329.379 -49.8214 330.217C-49.9547 332.192 -50.0134 334.169 -49.9974 336.149C-49.9894 336.895 -49.9707 337.64 -49.9414 338.384C-49.8707 340.17 -49.7348 341.953 -49.5334 343.733C-49.4581 344.413 -49.3727 345.092 -49.2774 345.768C-49.0481 347.41 -48.7634 349.043 -48.4234 350.668C-48.2941 351.294 -48.1548 351.919 -48.0054 352.542C-47.6488 354.066 -47.2418 355.578 -46.7844 357.078C-46.6084 357.66 -46.4237 358.239 -46.2304 358.817C-45.7637 360.235 -45.2514 361.641 -44.6934 363.034C-44.4784 363.577 -44.2534 364.118 -44.0244 364.657C-43.4571 365.982 -42.8501 367.294 -42.2034 368.592C-41.9508 369.098 -41.6914 369.603 -41.4254 370.106C-40.7721 371.348 -40.0794 372.574 -39.3474 373.783C-39.0627 374.259 -38.7708 374.731 -38.4714 375.199C-37.7381 376.361 -36.9657 377.507 -36.1544 378.637C-35.8377 379.081 -35.5144 379.522 -35.1844 379.96C-34.3704 381.048 -33.5211 382.118 -32.6364 383.169C-32.2897 383.583 -31.9368 383.994 -31.5774 384.402C-30.6881 385.418 -29.7654 386.414 -28.8094 387.39C-28.6094 387.59 -28.4094 387.795 -28.2094 387.997C-28.0281 388.179 -27.8461 388.358 -27.6634 388.535C-26.6888 389.493 -25.6941 390.417 -24.6794 391.307C-24.2721 391.665 -23.8614 392.018 -23.4474 392.366C-22.3981 393.25 -21.3314 394.101 -20.2474 394.917C-19.8108 395.251 -19.3704 395.574 -18.9264 395.888C-17.7991 396.698 -16.6544 397.472 -15.4924 398.21C-15.0258 398.508 -14.5537 398.801 -14.0764 399.087C-12.8677 399.821 -11.6434 400.514 -10.4034 401.168C-9.90077 401.435 -9.39606 401.695 -8.8894 401.947C-7.5934 402.597 -6.28309 403.206 -4.95843 403.772C-4.42109 404.004 -3.88178 404.228 -3.34045 404.444C-1.94911 405.004 -0.544395 405.518 0.873604 405.987C1.4496 406.18 2.0296 406.364 2.6106 406.541C4.10927 406.999 5.61924 407.407 7.14057 407.767C7.76324 407.917 8.38725 408.057 9.01258 408.187C10.6366 408.529 12.2699 408.816 13.9126 409.047C14.5893 409.145 15.2673 409.231 15.9466 409.306C17.7233 409.51 19.5036 409.648 21.2876 409.72C22.0306 409.752 22.7766 409.772 23.5196 409.78C25.4956 409.805 27.4699 409.75 29.4426 409.615C30.2779 409.56 31.1112 409.489 31.9426 409.402C34.2046 409.175 36.4556 408.842 38.6956 408.402C39.6722 408.211 40.6472 408 41.6206 407.768C44.4012 407.112 47.1412 406.293 49.8266 405.317C51.0993 404.855 52.3609 404.358 53.6116 403.824C58.0841 401.918 62.3566 399.573 66.3666 396.824C70.1753 394.218 73.7341 391.264 76.9976 388C80.2649 384.737 83.2228 381.178 85.8336 377.368C88.5818 373.358 90.9266 369.085 92.8336 364.613C93.3669 363.364 93.8646 362.102 94.3266 360.828C95.3024 358.143 96.1208 355.403 96.7776 352.622C97.0089 351.651 97.2202 350.676 97.4116 349.696C97.8482 347.459 98.1816 345.208 98.4116 342.944C98.4982 342.112 98.5692 341.278 98.6246 340.444C98.7532 338.471 98.8059 336.496 98.7826 334.519ZM72.9826 368.36C70.8965 371.427 68.5261 374.289 65.9026 376.91C63.2816 379.534 60.4192 381.904 57.3536 383.99C55.5146 385.241 53.6055 386.385 51.6356 387.416C48.4963 389.063 45.2134 390.419 41.8276 391.468C40.7756 391.795 39.7159 392.091 38.6486 392.355C36.3228 392.937 33.9633 393.375 31.5836 393.665C30.7336 393.769 29.8829 393.855 29.0316 393.923C27.0602 394.079 25.0855 394.135 23.1076 394.091C22.3742 394.076 21.6409 394.046 20.9076 394.002C19.1643 393.9 17.4259 393.72 15.6926 393.46C15.0359 393.363 14.3812 393.254 13.7286 393.133C12.1533 392.844 10.5889 392.49 9.03559 392.07C8.43959 391.911 7.84623 391.741 7.25556 391.559C5.81556 391.123 4.39023 390.629 2.97956 390.078C2.43556 389.864 1.89359 389.642 1.35358 389.412C0.0309181 388.848 -1.27344 388.234 -2.55944 387.569C-3.06011 387.311 -3.55775 387.045 -4.05242 386.769C-5.26842 386.097 -6.46542 385.376 -7.64342 384.606C-8.10409 384.307 -8.56106 384 -9.0144 383.686C-10.1351 382.91 -11.2351 382.089 -12.3144 381.225C-12.7364 380.887 -13.1544 380.542 -13.5684 380.188C-14.5971 379.316 -15.6021 378.403 -16.5834 377.447C-16.7664 377.269 -16.9474 377.09 -17.1294 376.909C-17.3294 376.709 -17.5294 376.509 -17.7294 376.301C-18.6841 375.32 -19.5971 374.314 -20.4684 373.283C-20.8198 372.869 -21.1647 372.45 -21.5034 372.026C-22.3661 370.95 -23.1847 369.85 -23.9594 368.726C-24.2754 368.273 -24.5817 367.816 -24.8784 367.354C-25.6471 366.177 -26.3664 364.977 -27.0364 363.754C-27.3134 363.26 -27.5784 362.762 -27.8364 362.261C-28.4991 360.974 -29.1114 359.667 -29.6734 358.341C-29.9041 357.802 -30.1248 357.259 -30.3354 356.713C-30.8848 355.303 -31.3771 353.877 -31.8124 352.433C-31.9924 351.842 -32.1624 351.246 -32.3214 350.65C-32.7387 349.096 -33.0911 347.53 -33.3784 345.95C-33.4971 345.294 -33.6044 344.638 -33.7004 343.981C-33.9564 342.248 -34.1341 340.507 -34.2335 338.757C-34.2755 338.024 -34.3031 337.288 -34.3164 336.548C-34.3567 334.568 -34.2966 332.586 -34.1364 330.611C-34.0697 329.759 -33.9811 328.907 -33.8704 328.055C-33.5735 325.667 -33.129 323.3 -32.5394 320.966C-32.2694 319.895 -31.9694 318.83 -31.6394 317.771C-30.5699 314.355 -29.1867 311.045 -27.5074 307.883C-26.4359 305.863 -25.2461 303.908 -23.9445 302.027C-21.9256 299.112 -19.648 296.384 -17.1394 293.877C-14.6327 291.369 -11.905 289.091 -8.98943 287.072C-7.10912 285.771 -5.15371 284.581 -3.13342 283.509C0.0281219 281.83 3.33823 280.447 6.75459 279.377C7.81258 279.044 8.87926 278.744 9.9546 278.477C12.2875 277.888 14.6547 277.443 17.0425 277.146C17.8945 277.039 18.7466 276.95 19.5986 276.88C21.5732 276.72 23.5548 276.659 25.5356 276.699C26.2689 276.711 27.0052 276.739 27.7446 276.782C29.4912 276.882 31.2326 277.06 32.9686 277.315C33.6266 277.411 34.2829 277.518 34.9376 277.637C36.5136 277.925 38.0802 278.278 39.6376 278.694C40.2376 278.852 40.8296 279.023 41.4206 279.202C42.8619 279.636 44.2886 280.129 45.7006 280.679C46.2466 280.891 46.7892 281.111 47.3286 281.341C48.6519 281.903 49.9586 282.515 51.2486 283.178C51.7486 283.436 52.2486 283.701 52.7416 283.978C53.9609 284.648 55.1609 285.368 56.3416 286.137C56.8036 286.434 57.2616 286.74 57.7156 287.056C58.8363 287.83 59.9362 288.648 61.0156 289.512C61.4389 289.85 61.8582 290.195 62.2736 290.547C63.3036 291.42 64.3096 292.333 65.2916 293.286C65.4916 293.486 65.6996 293.686 65.8996 293.886C66.0816 294.068 66.2596 294.249 66.4376 294.432C67.3936 295.412 68.3073 296.417 69.1786 297.446C69.5333 297.862 69.8789 298.28 70.2156 298.701C71.0823 299.777 71.9026 300.877 72.6766 302.001C72.9912 302.455 73.2979 302.912 73.5966 303.372C74.3666 304.548 75.0879 305.745 75.7606 306.963C76.0352 307.457 76.3019 307.955 76.5606 308.456C77.2272 309.742 77.8416 311.047 78.4036 312.369C78.6342 312.909 78.8562 313.451 79.0696 313.995C79.6189 315.404 80.1129 316.829 80.5516 318.269C80.7309 318.861 80.9012 319.454 81.0626 320.05C81.4826 321.602 81.8366 323.167 82.1246 324.743C82.2452 325.396 82.3543 326.051 82.4516 326.707C82.7096 328.441 82.8903 330.179 82.9936 331.922C83.0369 332.656 83.0666 333.389 83.0826 334.122C83.1246 336.097 83.0686 338.072 82.9146 340.046C82.8479 340.897 82.7619 341.748 82.6566 342.598C82.366 344.978 81.9285 347.338 81.3466 349.663C81.0799 350.73 80.7843 351.79 80.4596 352.842C79.4101 356.228 78.0538 359.511 76.4076 362.65C75.3775 364.617 74.2356 366.524 72.9876 368.36H72.9826Z" fill="#FFDFDF"/>
<path d="M58.4685 335.395C58.4695 337.196 58.3281 338.995 58.0455 340.773C57.8928 341.746 57.6985 342.704 57.4625 343.647C56.5679 347.239 55.0913 350.66 53.0914 353.774C50.433 357.916 46.913 361.436 42.7714 364.094C39.6569 366.094 36.2361 367.571 32.6445 368.465C31.7018 368.7 30.7441 368.894 29.7714 369.048C27.9924 369.331 26.1938 369.472 24.3925 369.471C24.1275 369.471 23.8644 369.471 23.6014 369.461C22.8681 369.446 22.1438 369.407 21.4285 369.343C19.758 369.199 18.1005 368.932 16.4695 368.543C15.8602 368.398 15.2574 368.237 14.6614 368.059C13.2283 367.634 11.8251 367.113 10.4614 366.5C9.93743 366.266 9.42047 366.019 8.91047 365.759C7.66213 365.121 6.45446 364.407 5.29444 363.619C4.83911 363.313 4.39316 362.995 3.95649 362.666C2.86685 361.848 1.82699 360.966 0.842476 360.023C0.451809 359.651 0.0704327 359.269 -0.301567 358.877C-1.24063 357.89 -2.12045 356.848 -2.93652 355.756C-3.26318 355.316 -3.57986 354.869 -3.88653 354.414C-4.6716 353.252 -5.38301 352.041 -6.01653 350.789C-6.27653 350.279 -6.52319 349.761 -6.75652 349.236C-7.36596 347.87 -7.88279 346.464 -8.30352 345.028C-8.48085 344.428 -8.64089 343.824 -8.78356 343.216C-9.16815 341.581 -9.43021 339.919 -9.56756 338.244C-9.62822 337.524 -9.66556 336.798 -9.67956 336.065C-9.67956 335.841 -9.68652 335.619 -9.68652 335.394C-9.68778 333.544 -9.53864 331.696 -9.24053 329.869C-9.0812 328.89 -8.88122 327.926 -8.64056 326.976C-7.70789 323.31 -6.16831 319.825 -4.08556 316.666C-1.52908 312.791 1.78797 309.475 5.66444 306.919C8.82299 304.837 12.3078 303.297 15.9744 302.364C16.9238 302.123 17.8881 301.923 18.8674 301.764C20.694 301.466 22.5418 301.317 24.3925 301.318C24.6175 301.318 24.8405 301.318 25.0635 301.325C25.7968 301.34 26.5231 301.377 27.2424 301.437C28.917 301.575 30.5789 301.837 32.2145 302.221C32.8258 302.363 33.4298 302.523 34.0264 302.701C35.4622 303.122 36.8681 303.639 38.2344 304.248C38.7598 304.481 39.2775 304.728 39.7875 304.988C41.0398 305.622 42.2512 306.333 43.4144 307.118C43.8684 307.425 44.3154 307.742 44.7554 308.068C45.8468 308.884 46.889 309.764 47.8765 310.703C48.2685 311.075 48.6505 311.456 49.0225 311.847C49.9646 312.832 50.8472 313.872 51.6655 314.961C51.9935 315.399 52.3111 315.845 52.6185 316.299C53.4062 317.461 54.1212 318.67 54.7595 319.919C55.0188 320.429 55.2658 320.946 55.5004 321.47C56.1128 322.834 56.6333 324.237 57.0585 325.67C57.2371 326.266 57.3985 326.869 57.5425 327.478C57.931 329.109 58.1984 330.766 58.3425 332.436C58.4058 333.155 58.4454 333.88 58.4614 334.61C58.4664 334.867 58.4685 335.13 58.4685 335.395Z" fill="#364F6B"/>
<path d="M236.49 40.9195L215.25 62.156C214.168 61.9601 213.085 61.7829 212 61.6244L233.624 40C234.581 40.2927 235.536 40.5992 236.49 40.9195Z" fill="#B4621C"/>
<path d="M246.128 44.5609L225.95 64.7393C224.975 64.4438 223.991 64.1615 223.007 63.9007L243.451 43.4566C244.346 43.8115 245.24 44.1829 246.128 44.5609Z" fill="#B4621C"/>
<path d="M255.125 48.8512L235.703 68.2702C234.812 67.8894 233.916 67.5252 233.015 67.1775L252.626 47.5669C253.461 47.984 254.294 48.4121 255.125 48.8512Z" fill="#B4621C"/>
<path d="M1244.49 239.919L1223.25 261.156C1222.17 260.96 1221.09 260.783 1220 260.624L1241.62 239C1242.58 239.293 1243.54 239.599 1244.49 239.919Z" fill="#B4621C"/>
<path d="M1254.13 243.561L1233.95 263.739C1232.97 263.444 1231.99 263.162 1231.01 262.901L1251.45 242.457C1252.35 242.811 1253.24 243.183 1254.13 243.561Z" fill="#B4621C"/>
<path d="M1263.12 247.851L1243.7 267.27C1242.81 266.889 1241.92 266.525 1241.02 266.177L1260.63 246.567C1261.46 246.984 1262.29 247.412 1263.12 247.851Z" fill="#B4621C"/>
<path d="M437 -1.86825C437 -20.1664 451.834 -35 470.132 -35H1003V351.537H470.132C451.834 351.537 437 336.703 437 318.405V-1.86825Z" fill="#FAF8FF"/>
<path d="M719.999 285.485C790.196 285.485 847.102 228.579 847.102 158.382C847.102 88.1845 790.196 31.2785 719.999 31.2785C649.802 31.2785 592.896 88.1845 592.896 158.382C592.896 228.579 649.802 285.485 719.999 285.485Z" fill="#FF8A78"/>
<path d="M637.977 75.234L621.422 75.6761L623.933 91.9344L647.429 91.081L637.977 75.234Z" fill="white"/>
<path d="M642.855 79.1733C642.855 79.1733 648.763 76.8765 651.411 77.869C653.761 78.7532 653.518 82.3873 652.315 82.3873C651.725 82.3873 650.496 80.6564 650.496 80.6564L647.139 84.0143L642.855 79.1733Z" fill="white"/>
<path d="M656.681 86.0809C655.68 86.523 650.532 88.1102 650.532 88.1102L647.625 83.6539C651.825 82.6879 655.039 82.2059 656.706 82.8956C657.462 83.2073 658.525 85.2741 656.681 86.0809Z" fill="white"/>
<path d="M645.677 87.2437C645.677 87.2437 661.993 86.5805 662.557 88.57C663.12 90.5594 649.274 90.8888 649.274 90.8888L645.677 87.2437Z" fill="white"/>
<path d="M647.974 79.5801C647.188 80.5151 647.93 81.9807 648.772 82.8096C649.615 83.6385 650.673 84.1359 651.717 83.1191C652.807 82.0537 651.292 80.1703 650.976 79.8034C650.813 79.5649 650.598 79.3662 650.347 79.222C650.097 79.0778 649.817 78.9918 649.529 78.9704C649.241 78.949 648.951 78.9926 648.682 79.0982C648.413 79.2037 648.171 79.3684 647.974 79.5801Z" fill="#0A1A29"/>
<path d="M651.412 77.8712C653.762 78.7554 653.521 82.3895 652.316 82.3895C651.726 82.3895 650.727 80.9947 650.326 80.2696C649.926 79.5446 648.764 76.8787 651.412 77.8712Z" fill="white"/>
<path d="M640.618 75.4035C640.618 75.4035 645.143 72.2624 647.791 73.2549C650.141 74.1391 649.898 77.7732 648.695 77.7732C648.105 77.7732 647.09 76.3761 647.09 76.3761L644.024 79.9284L640.618 75.4035Z" fill="white"/>
<path d="M644.354 74.9621C643.567 75.8972 644.31 77.3627 645.152 78.1917C645.994 79.0206 647.053 79.518 648.096 78.5012C649.188 77.4357 647.672 75.5524 647.356 75.1854C647.192 74.947 646.977 74.7482 646.727 74.6041C646.476 74.4599 646.196 74.3739 645.908 74.3524C645.62 74.331 645.331 74.3747 645.062 74.4802C644.793 74.5857 644.55 74.7505 644.354 74.9621Z" fill="#0A1A29"/>
<path d="M647.793 73.2534C650.141 74.1376 649.9 77.7717 648.697 77.7717C648.107 77.7717 647.108 76.3769 646.708 75.6518C646.308 74.9268 645.143 72.2609 647.793 73.2534Z" fill="white"/>
<path d="M651.535 84.1624C650.748 85.0974 651.491 86.563 652.333 87.3919C653.175 88.2209 654.232 88.7182 655.278 87.7014C656.37 86.636 654.853 84.7526 654.537 84.3857C654.374 84.1472 654.159 83.9485 653.908 83.8043C653.658 83.6601 653.378 83.5741 653.09 83.5527C652.802 83.5313 652.512 83.5749 652.243 83.6805C651.974 83.786 651.732 83.9507 651.535 84.1624Z" fill="#0A1A29"/>
<path d="M657.69 84.7039C657.707 85.3198 657.533 85.9258 657.192 86.4391C657.12 86.5952 657.008 86.7297 656.867 86.8289C656.726 86.9281 656.562 86.9887 656.391 87.0046C656.219 87.0204 656.047 86.9911 655.89 86.9194C655.734 86.8477 655.599 86.7362 655.499 86.596C654.85 85.6919 654.33 84.7025 653.952 83.656L657.69 84.7039Z" fill="white"/>
<path d="M630.53 65.6783C630.53 65.6783 626.108 64.7168 625.567 68.1541C624.745 73.3045 632.199 86.9432 636.399 94.2953C640.599 101.647 644.405 110.018 650.63 109.196C654.841 108.641 655.665 104.85 655.515 101.57L652.807 97.832C652.807 97.832 653.715 104.74 650.203 105.171C647.314 105.525 644.655 102.87 642.095 98.241C636.202 87.5908 630.191 77.1884 629.391 72.0446C628.677 67.4556 632.156 68.2867 632.156 68.2867L630.53 65.6783Z" fill="#D44631"/>
<path d="M584.768 219.068C585.117 219.782 581.567 223.881 579.553 226.118C584.023 232.95 590.92 241.976 594.173 245.835C595.482 247.383 597.598 250.298 599.209 248.694C600.821 247.089 603.409 225.669 603.02 224.909C602.631 224.148 589.624 205.098 588.78 205.052C584.635 204.82 573.97 212.567 573.254 214.76C572.953 215.66 575.647 219.959 577.5 222.895C579.962 221.237 584.419 218.357 584.768 219.068Z" fill="#D44631"/>
<path d="M582.226 223.039C581.311 224.144 580.327 225.262 579.56 226.115C584.029 232.948 590.926 241.974 594.18 245.833C595.489 247.38 597.604 250.296 599.216 248.691C599.509 248.282 599.717 247.818 599.828 247.327L582.226 223.039Z" fill="#0A1A29"/>
<path d="M577.509 222.895C578.393 222.298 579.532 221.546 580.646 220.857L574.828 212.822C574.18 213.354 573.647 214.013 573.262 214.758C572.96 215.66 575.657 219.959 577.509 222.895Z" fill="#0A1A29"/>
<path d="M629.838 164.947L608.009 130.768L630.125 125.021L632.114 123.951C632.114 123.951 655.406 150.871 659.429 160.349C663.452 169.828 657.993 176.72 651.388 183.615C644.783 190.509 604.572 226.122 604.572 226.122C604.572 226.122 591.072 219.228 587.626 205.156L629.838 164.947Z" fill="#0A1A29"/>
<path d="M600.094 224.703C600.139 224.703 600.182 224.688 600.217 224.659C600.359 224.542 614.585 212.78 628.582 199.822C647.42 182.392 656.923 171.205 656.824 166.574C656.744 162.794 651.739 154.595 641.967 142.201C634.699 132.99 627.36 124.776 627.287 124.692C627.252 124.654 627.204 124.631 627.153 124.628C627.102 124.625 627.052 124.642 627.013 124.676C626.975 124.711 626.952 124.759 626.949 124.81C626.946 124.861 626.963 124.912 626.997 124.95C627.289 125.277 656.249 157.745 656.437 166.58C656.658 177.392 600.538 223.892 599.97 224.361C599.95 224.377 599.934 224.397 599.923 224.419C599.911 224.442 599.903 224.466 599.901 224.491C599.899 224.517 599.901 224.542 599.909 224.566C599.917 224.59 599.929 224.613 599.945 224.632C599.963 224.654 599.986 224.672 600.012 224.685C600.037 224.697 600.065 224.703 600.094 224.703Z" fill="#F7CEC1"/>
<path d="M593.636 218.929C593.682 218.929 593.727 218.913 593.762 218.883C596.068 216.929 650.231 170.995 649.665 165.61C648.962 158.932 629.482 138.892 628.653 138.043C628.616 138.007 628.567 137.986 628.515 137.986C628.464 137.986 628.415 138.007 628.378 138.043C628.36 138.061 628.346 138.082 628.336 138.106C628.326 138.129 628.321 138.154 628.321 138.18C628.321 138.205 628.326 138.231 628.336 138.254C628.346 138.278 628.36 138.299 628.378 138.317C628.58 138.525 648.593 159.109 649.283 165.654C649.438 167.131 644.769 173.254 621.638 194.037C607.772 206.497 593.656 218.461 593.515 218.573C593.495 218.59 593.479 218.61 593.468 218.632C593.456 218.655 593.449 218.679 593.447 218.705C593.445 218.73 593.448 218.755 593.456 218.779C593.464 218.804 593.476 218.826 593.493 218.845C593.509 218.869 593.53 218.889 593.555 218.904C593.579 218.918 593.607 218.927 593.636 218.929Z" fill="#F7CEC1"/>
<path d="M589.403 213.363C589.429 213.363 589.455 213.358 589.479 213.347C589.503 213.337 589.524 213.322 589.542 213.304L619.864 181.455C619.882 181.437 619.897 181.416 619.906 181.392C619.916 181.369 619.921 181.343 619.921 181.318C619.921 181.292 619.916 181.267 619.906 181.243C619.897 181.22 619.882 181.198 619.864 181.181C619.846 181.162 619.825 181.148 619.801 181.138C619.778 181.128 619.752 181.123 619.727 181.123C619.701 181.123 619.676 181.128 619.652 181.138C619.629 181.148 619.608 181.162 619.59 181.181L589.268 213.029C589.232 213.066 589.212 213.115 589.212 213.167C589.212 213.218 589.232 213.267 589.268 213.304C589.286 213.322 589.307 213.337 589.33 213.347C589.353 213.357 589.378 213.363 589.403 213.363Z" fill="#F7CEC1"/>
<path d="M622.841 250.679C623.626 250.785 625.052 256.015 625.797 258.933C633.962 259.021 645.298 258.314 650.316 257.757C652.332 257.536 655.928 257.394 655.492 255.163C655.057 252.933 638.692 238.863 637.85 238.762C637.008 238.66 614.762 236.945 614.253 237.621C611.753 240.937 611.44 256.032 612.854 257.847C613.431 258.599 618.507 258.751 621.975 258.846C621.966 255.875 622.054 250.57 622.841 250.679Z" fill="#D44631"/>
<path d="M624.724 255.007C625.129 256.379 625.516 257.82 625.796 258.932C633.962 259.021 645.297 258.313 650.315 257.756C652.331 257.535 655.929 257.394 655.492 255.164C655.315 254.693 655.046 254.262 654.701 253.897L624.724 255.007Z" fill="#0A1A29"/>
<path d="M612.231 255.462C612.288 256.226 612.463 256.976 612.75 257.686C612.783 257.742 612.819 257.796 612.859 257.847C613.431 258.592 618.507 258.744 621.977 258.839C621.977 258.112 621.977 257.235 622.001 256.331C622.001 256.109 622.001 255.889 622.017 255.668C622.032 255.447 622.017 255.287 622.032 255.101L612.231 255.462Z" fill="#0A1A29"/>
<path d="M586.501 129.55C586.501 129.55 587.902 138.81 597.953 154.321C606.795 167.964 626.677 192.808 626.677 192.808L614.039 237.902C622.903 242.071 632.872 243.279 642.475 241.348C642.475 241.348 658.558 195.967 656.549 185.054C654.54 174.14 621.221 126.173 621.221 126.173L586.501 129.55Z" fill="#3F1E18"/>
<path d="M635.592 245.154C635.634 245.154 635.674 245.14 635.708 245.115C635.741 245.089 635.766 245.054 635.777 245.013C636.379 242.915 650.495 193.509 649.432 185.796C648.368 178.084 616.765 128.936 615.419 126.849C615.405 126.828 615.387 126.809 615.366 126.795C615.345 126.78 615.322 126.77 615.297 126.765C615.272 126.759 615.246 126.759 615.221 126.764C615.196 126.768 615.173 126.778 615.151 126.792C615.108 126.82 615.078 126.863 615.068 126.914C615.057 126.964 615.066 127.016 615.094 127.059C615.421 127.57 647.995 178.221 649.047 185.858C650.099 193.495 635.563 244.401 635.406 244.916C635.392 244.965 635.399 245.018 635.423 245.062C635.448 245.107 635.489 245.14 635.538 245.154C635.556 245.157 635.574 245.157 635.592 245.154Z" fill="#D44631"/>
<path d="M627.1 244.482C627.142 244.482 627.182 244.469 627.216 244.445C627.249 244.42 627.274 244.385 627.287 244.345C627.43 243.872 641.727 196.939 641.077 186.769C640.856 183.329 636.042 176.399 630.467 168.371C628.036 164.863 625.511 161.238 623.1 157.522C614.211 143.832 606.667 129.67 606.592 129.537C606.567 129.492 606.526 129.459 606.477 129.444C606.429 129.429 606.376 129.434 606.331 129.457C606.308 129.469 606.288 129.486 606.272 129.505C606.256 129.525 606.244 129.547 606.237 129.572C606.229 129.596 606.227 129.621 606.229 129.646C606.232 129.672 606.239 129.696 606.251 129.718C606.326 129.86 613.875 144.027 622.775 157.73C625.191 161.45 627.713 165.079 630.151 168.59C635.695 176.57 640.483 183.46 640.695 186.791C641.341 196.891 627.063 243.758 626.917 244.231C626.902 244.28 626.907 244.333 626.931 244.379C626.955 244.424 626.996 244.459 627.045 244.474C627.063 244.479 627.082 244.482 627.1 244.482Z" fill="#3F1E18"/>
<path d="M619.26 241.752C619.301 241.752 619.34 241.74 619.373 241.716C619.406 241.692 619.431 241.658 619.444 241.62C620.06 239.763 634.532 196.084 633.011 189.132C632.335 186.037 628.133 180.473 622.812 173.42C620.034 169.737 616.884 165.564 613.97 161.355C606.747 151.137 600.223 140.443 594.443 129.345C594.432 129.322 594.417 129.301 594.398 129.284C594.379 129.267 594.356 129.254 594.332 129.246C594.308 129.238 594.283 129.234 594.257 129.236C594.232 129.238 594.207 129.245 594.184 129.256C594.161 129.267 594.14 129.282 594.123 129.301C594.106 129.32 594.094 129.343 594.085 129.367C594.077 129.391 594.073 129.416 594.074 129.442C594.076 129.467 594.082 129.492 594.094 129.515C599.882 140.628 606.415 151.337 613.65 161.567C616.565 165.782 619.718 169.967 622.492 173.645C627.576 180.383 631.966 186.203 632.622 189.207C634.121 196.059 619.216 241.036 619.063 241.489C619.047 241.538 619.051 241.592 619.075 241.638C619.098 241.684 619.138 241.719 619.187 241.735C619.21 241.746 619.235 241.752 619.26 241.752Z" fill="#3F1E18"/>
<path d="M656.546 185.44H656.604C656.655 185.433 656.703 185.415 656.747 185.389C656.79 185.363 656.828 185.328 656.858 185.287C656.889 185.246 656.911 185.199 656.923 185.15C656.935 185.1 656.937 185.049 656.929 184.998C656.173 179.938 648.589 167.292 642.066 156.839C634.771 145.123 627.587 134.341 627.514 134.23C627.486 134.188 627.45 134.151 627.408 134.123C627.365 134.094 627.318 134.074 627.268 134.064C627.218 134.054 627.167 134.054 627.117 134.064C627.067 134.074 627.019 134.093 626.977 134.122C626.934 134.15 626.898 134.186 626.869 134.228C626.841 134.27 626.821 134.318 626.811 134.368C626.801 134.418 626.801 134.469 626.811 134.519C626.821 134.569 626.84 134.617 626.868 134.659C626.939 134.767 634.11 145.552 641.409 157.248C647.893 167.637 655.428 180.193 656.164 185.1C656.176 185.194 656.221 185.28 656.291 185.343C656.362 185.405 656.452 185.44 656.546 185.44Z" fill="#D44631"/>
<path d="M620.991 213.257C621.073 213.257 621.153 213.231 621.219 213.183C621.286 213.134 621.335 213.066 621.36 212.987C621.581 212.276 626.842 195.525 626.714 193.343C626.586 191.161 615.801 178.126 614.574 176.649C614.508 176.571 614.413 176.522 614.311 176.512C614.209 176.503 614.107 176.534 614.028 176.599C613.949 176.664 613.9 176.759 613.89 176.861C613.881 176.963 613.912 177.065 613.977 177.144C618.557 182.649 625.856 191.924 625.943 193.387C626.042 195.083 622.138 207.941 620.624 212.753C620.594 212.851 620.603 212.957 620.65 213.047C620.697 213.138 620.779 213.206 620.876 213.237C620.913 213.25 620.952 213.256 620.991 213.257Z" fill="#D44631"/>
<path d="M601.868 44.0331C601.868 44.0331 588.49 42.3421 582.668 45.1383C574.657 48.989 578.947 112.479 586.5 129.546C595.679 132.104 605.302 132.649 614.711 131.146C628.014 129.194 632.107 123.949 632.107 123.949C632.107 123.949 626.181 89.2684 623.433 78.0635C621.195 69.0428 617.51 60.4445 612.52 52.6031L601.868 44.0331Z" fill="#D44631"/>
<path d="M622.576 99.4766C624.3 104.667 627.519 108.268 629.762 107.523C632.006 106.778 632.428 101.966 630.706 96.7776C628.984 91.5896 625.764 87.9864 623.52 88.7314C621.276 89.4763 620.852 94.2842 622.576 99.4766Z" fill="#3F1E18"/>
<path d="M623.834 88.6341C627.447 87.0293 631.186 85.725 635.013 84.7347C637.444 84.5601 640.439 86.775 643.282 90.1173C644.936 92.0625 646.406 95.6723 644.496 95.4114C644.496 95.4114 646.016 97.843 645.267 98.6012C644.628 99.24 643.455 98.5371 643.455 98.5371C643.455 98.5371 645.026 100.787 644.157 101.853C643.658 102.467 642.674 101.917 642.674 101.917C642.674 101.917 643.866 103.486 642.729 103.811C641.403 104.191 637.015 100.637 637.015 100.637C635.93 101.014 634.823 101.323 633.7 101.563C631.012 102.167 624.533 102.697 624.533 102.697L620.627 93.0639C621.256 91.3141 622.368 89.7784 623.834 88.6341Z" fill="white"/>
<path d="M644.495 95.6039C644.522 95.6041 644.548 95.5988 644.572 95.5886C644.597 95.5783 644.619 95.5632 644.637 95.5442C644.673 95.5077 644.693 95.4586 644.693 95.4072C644.693 95.3559 644.673 95.3066 644.637 95.2701L639.272 90.186C639.236 90.1499 639.186 90.1295 639.135 90.1295C639.084 90.1295 639.034 90.1499 638.998 90.186C638.962 90.2225 638.942 90.2716 638.942 90.323C638.942 90.3743 638.962 90.4236 638.998 90.4601L644.363 95.5442C644.398 95.5807 644.445 95.6022 644.495 95.6039Z" fill="#0A1A29"/>
<path d="M643.452 98.7294C643.479 98.7295 643.506 98.7238 643.531 98.7127C643.556 98.7017 643.578 98.6856 643.596 98.6654C643.631 98.6272 643.648 98.5769 643.646 98.5256C643.644 98.4742 643.621 98.4259 643.583 98.3912L637.955 93.3071C637.936 93.2898 637.914 93.2763 637.89 93.2676C637.866 93.2588 637.84 93.255 637.815 93.2562C637.789 93.2575 637.765 93.2637 637.741 93.2747C637.718 93.2857 637.698 93.3013 637.681 93.3203C637.646 93.3585 637.628 93.4087 637.631 93.4601C637.633 93.5115 637.656 93.5598 637.694 93.5945L643.322 98.6786C643.358 98.7109 643.404 98.7291 643.452 98.7294Z" fill="#0A1A29"/>
<path d="M642.672 102.116C642.698 102.116 642.724 102.11 642.749 102.1C642.773 102.089 642.795 102.074 642.813 102.054C642.831 102.036 642.846 102.015 642.856 101.991C642.865 101.968 642.87 101.943 642.87 101.917C642.87 101.891 642.865 101.866 642.856 101.843C642.846 101.819 642.831 101.798 642.813 101.78L637.444 96.7931C637.407 96.7569 637.358 96.7366 637.307 96.7366C637.255 96.7366 637.206 96.7569 637.17 96.7931C637.134 96.8295 637.113 96.8788 637.113 96.9302C637.113 96.9815 637.134 97.0307 637.17 97.0671L642.539 102.054C642.574 102.091 642.621 102.113 642.672 102.116Z" fill="#0A1A29"/>
<path d="M586.26 44.411C578.985 44.6718 574.405 49.9373 574.405 62.6277C574.405 75.3181 574.664 102.255 577.254 110.284C579.845 118.312 585.542 119.09 592.016 118.053C598.491 117.017 629.749 107.525 629.749 107.525C629.749 107.525 626.546 107.328 623.931 99.954C620.649 90.6898 622.983 89.222 623.834 88.6384C623.834 88.6384 598.99 94.5184 597.529 93.8464C596.068 93.1744 597.529 64.2391 596.78 56.6195C596.391 52.5986 594.224 44.1236 586.26 44.411Z" fill="#D44631"/>
<path d="M597.956 94.0785C601.626 94.0785 621.418 89.3459 623.797 88.7734C623.847 88.7613 623.89 88.7299 623.917 88.686C623.944 88.642 623.952 88.5892 623.94 88.539C623.927 88.4895 623.895 88.4469 623.852 88.4202C623.808 88.3934 623.756 88.3846 623.706 88.3954C613.819 90.7738 598.714 94.1427 597.622 93.6608C596.933 93.3248 596.924 84.4718 598.268 68.7287C598.27 68.7032 598.267 68.6775 598.26 68.6531C598.252 68.6287 598.24 68.606 598.223 68.5865C598.207 68.5669 598.187 68.5509 598.164 68.5393C598.141 68.5276 598.116 68.5206 598.091 68.5186C598.065 68.5159 598.04 68.5184 598.015 68.5259C597.991 68.5334 597.968 68.5457 597.948 68.5622C597.929 68.5787 597.912 68.5991 597.901 68.622C597.889 68.6449 597.882 68.6699 597.881 68.6955C597.529 72.8026 595.862 93.3226 597.467 94.0167C597.625 94.0656 597.791 94.0864 597.956 94.0785Z" fill="#183C61"/>
<path d="M590.065 118.482C591.583 118.487 593.098 118.363 594.596 118.113C606.543 115.172 618.335 111.631 629.926 107.503C629.95 107.494 629.972 107.481 629.99 107.464C630.009 107.447 630.025 107.426 630.035 107.403C630.046 107.38 630.052 107.355 630.053 107.33C630.054 107.304 630.05 107.279 630.041 107.255C630.023 107.208 629.987 107.169 629.941 107.147C629.894 107.126 629.842 107.123 629.793 107.14C618.218 111.258 606.443 114.792 594.512 117.726C594.432 117.74 585.336 119.364 580.464 115.388C580.445 115.371 580.422 115.359 580.398 115.352C580.374 115.344 580.348 115.342 580.322 115.344C580.297 115.347 580.273 115.354 580.251 115.366C580.228 115.378 580.208 115.395 580.192 115.414C580.176 115.434 580.164 115.456 580.156 115.481C580.149 115.505 580.146 115.531 580.149 115.556C580.151 115.581 580.159 115.606 580.171 115.628C580.183 115.65 580.199 115.67 580.219 115.686C583.101 117.682 586.564 118.665 590.065 118.482Z" fill="#183C61"/>
<path d="M615.354 54.0734C616.757 53.029 615.886 49.4837 613.408 46.1547C610.93 42.8258 607.784 40.9738 606.381 42.0183C604.977 43.0627 605.849 46.608 608.327 49.9369C610.805 53.2658 613.951 55.1178 615.354 54.0734Z" fill="#183C61"/>
<path d="M616.199 35.39C611.861 38.939 607.038 41.8495 601.877 44.0331C601.219 47.3109 601.738 50.7158 603.343 53.6487C604.189 54.9069 605.408 55.8683 606.828 56.3976C608.249 56.927 609.8 56.9977 611.263 56.5997C613.349 53.7544 616.246 51.6056 619.574 50.4347L616.199 35.39Z" fill="white"/>
<path d="M616.822 32.9871C615.72 33.9044 614.725 34.9425 613.855 36.0819C613.533 36.6423 613.354 37.2736 613.334 37.9198C613.314 38.5661 613.453 39.2072 613.741 39.7866L619.254 34.6207L616.822 32.9871Z" fill="#3F1E18"/>
<path d="M627.886 50.1208C626.506 51.1332 625.686 52.2672 624.616 53.0763C623.911 53.6103 623.099 53.9856 622.235 54.1764C621.371 54.3672 620.476 54.3689 619.612 54.1815C618.232 53.898 616.946 53.2689 615.875 52.353C614.804 51.4372 613.983 50.2645 613.489 48.9448C612.339 46.1766 612.211 43.0895 613.128 40.2357C614.046 37.3818 615.948 34.9473 618.495 33.3675C624.125 29.4373 630.047 31.2852 632.152 34.0749C633.361 35.5925 634.117 37.4208 634.332 39.3492C634.548 41.2777 634.214 43.2278 633.37 44.9748C631.901 47.037 630.037 48.7863 627.886 50.1208Z" fill="white"/>
<path d="M628.624 30.748C628.469 30.0778 628.08 29.4846 627.528 29.0744C626.976 28.6642 626.295 28.4637 625.609 28.5088C623.946 28.522 622.311 28.9414 620.847 29.7304C619.383 30.5194 618.134 31.6541 617.209 33.0358C617.399 33.4469 617.686 33.8063 618.044 34.0837C618.402 34.361 618.822 34.5483 619.267 34.6296C621.087 34.9325 623.301 36.356 626.466 34.5633C627.289 38.0294 630.726 38.8893 633.381 44.9792C633.381 44.9792 634.906 48.7569 635.985 48.4187C636.907 48.1313 637.941 46.1264 636.458 42.8925C636.458 42.8925 637.678 44.5592 638.549 44.5105C639.696 44.4486 638.346 41.5441 637.066 40.3968C637.066 40.3968 640.91 41.4755 640.236 38.8494C639.561 36.2234 634.909 34.8706 634.909 34.8706C634.909 34.8706 636.661 34.3312 635.793 32.848C634.924 31.3647 630.174 29.6671 628.624 30.748Z" fill="#3F1E18"/>
<path d="M619.8 34.8505C618.825 36.232 617.295 36.8399 616.38 36.1767C615.465 35.5136 615.513 33.8889 616.488 32.5074C617.463 31.1258 618.993 30.5179 619.908 31.1811C620.823 31.8442 620.775 33.4667 619.8 34.8505Z" fill="white"/>
<path d="M617.976 35.2022C617.997 35.2022 618.017 35.1955 618.034 35.1832C618.051 35.1709 618.063 35.1535 618.069 35.1337L619.059 31.882C619.067 31.8574 619.064 31.8308 619.052 31.808C619.04 31.7853 619.02 31.7681 618.995 31.7605C618.971 31.7541 618.945 31.7572 618.923 31.7691C618.9 31.7809 618.884 31.8008 618.876 31.8246L617.885 35.0762C617.878 35.1008 617.88 35.1275 617.892 35.1503C617.904 35.1731 617.925 35.1901 617.95 35.1978L617.976 35.2022Z" fill="#0A1A29"/>
<path d="M628.759 49.3737C628.759 49.3737 627.634 51.7279 626.84 51.9931C625.724 52.3667 624.917 50.784 624.917 50.784L628.759 49.3737Z" fill="white"/>
<path d="M626.493 52.1477C626.622 52.1469 626.75 52.1253 626.873 52.0836C627.695 51.8095 628.801 49.5106 628.847 49.4133C628.852 49.4019 628.855 49.3895 628.856 49.3768C628.857 49.3641 628.855 49.3513 628.851 49.3394C628.846 49.3274 628.84 49.3165 628.831 49.3071C628.823 49.2978 628.812 49.2904 628.801 49.2852C628.777 49.2745 628.751 49.2734 628.727 49.282C628.703 49.2907 628.683 49.3086 628.672 49.3316C628.365 49.977 627.43 51.6945 626.811 51.9001C625.792 52.2428 625.012 50.755 625.005 50.7396C624.993 50.7172 624.973 50.7004 624.948 50.6926C624.924 50.6848 624.897 50.6866 624.874 50.6976C624.852 50.7094 624.835 50.7297 624.827 50.7541C624.819 50.7786 624.821 50.8052 624.833 50.8281C624.862 50.8878 625.516 52.1477 626.493 52.1477Z" fill="#0A1A29"/>
<path d="M629.366 45.4366C629.4 45.4367 629.433 45.428 629.463 45.4114C629.492 45.3947 629.517 45.3707 629.534 45.3416C629.56 45.2973 629.567 45.2445 629.555 45.1948C629.542 45.1451 629.51 45.1025 629.466 45.0762C627.696 44.0792 626.367 42.4518 625.743 40.5183C625.727 40.4697 625.692 40.4296 625.646 40.4065C625.6 40.3833 625.547 40.379 625.498 40.3945C625.449 40.4107 625.409 40.4451 625.386 40.4905C625.362 40.5359 625.357 40.5886 625.372 40.6376C626.025 42.6614 627.415 44.3652 629.267 45.41C629.297 45.4276 629.331 45.4369 629.366 45.4366Z" fill="#0A1A29"/>
<path d="M626.699 46.1066C626.711 46.1061 626.724 46.1029 626.735 46.0975C626.747 46.092 626.757 46.0844 626.766 46.0749C626.775 46.0655 626.781 46.0544 626.785 46.0424C626.79 46.0304 626.792 46.0177 626.791 46.0049C626.703 45.0039 626.388 44.0362 625.87 43.1754C625.863 43.1644 625.854 43.1548 625.844 43.1471C625.834 43.1394 625.823 43.1339 625.81 43.1308C625.798 43.1277 625.785 43.127 625.773 43.129C625.76 43.131 625.748 43.1356 625.737 43.1424C625.715 43.1557 625.699 43.177 625.693 43.2019C625.687 43.2267 625.69 43.253 625.703 43.275C626.207 44.107 626.513 45.043 626.599 46.0115C626.599 46.0243 626.602 46.0369 626.607 46.0486C626.613 46.0603 626.62 46.0708 626.629 46.0797C626.638 46.0885 626.649 46.0954 626.661 46.1C626.673 46.1046 626.686 46.1069 626.699 46.1066Z" fill="#0A1A29"/>
<path d="M623.496 51.993C623.517 51.9925 623.537 51.9853 623.554 51.9726C623.571 51.9599 623.582 51.9424 623.588 51.9223C623.592 51.91 623.593 51.8971 623.591 51.8844C623.59 51.8717 623.586 51.8595 623.579 51.8484C623.573 51.8373 623.565 51.8276 623.554 51.8198C623.544 51.812 623.532 51.8062 623.52 51.8029C623.14 51.6852 622.79 51.4885 622.492 51.2256C622.194 50.9627 621.955 50.6396 621.791 50.2777C621.071 48.7619 620.899 47.0433 621.303 45.4146C621.311 45.3902 621.31 45.3636 621.299 45.3404C621.287 45.3171 621.268 45.2994 621.244 45.2908C621.219 45.2829 621.193 45.2847 621.17 45.2958C621.147 45.3069 621.128 45.3265 621.119 45.3505C620.689 47.0314 620.867 48.8101 621.621 50.3726C621.797 50.7587 622.053 51.1031 622.372 51.3828C622.691 51.6625 623.066 51.8712 623.471 51.9952L623.496 51.993Z" fill="#0A1A29"/>
<path d="M615.43 54.0045C612.417 54.6676 609.815 52.5235 607.528 49.1149C605.476 46.0578 605.476 42.9256 606.513 41.9242L600.434 44.1015L601.183 54.9838L611.539 57.9856L615.43 54.0045Z" fill="#D44631"/>
<path d="M626.783 54.4465C626.783 54.4465 647.968 82.9352 660.237 98.192C666.278 105.708 669.487 109.377 672.671 111.146C675.953 112.969 682.317 112.83 685.491 115.754C690.058 119.97 686.612 128.023 675.144 131.279C663.311 134.639 658.7 131.186 658.01 128.379C657.265 125.346 659.644 122.987 659.655 118.325C659.666 113.663 649.904 95.0222 641.509 82.4003C633.113 69.7785 623.522 56.111 623.522 56.111L626.783 54.4465Z" fill="#D44631"/>
<path d="M626.714 52.9038C625.996 51.9157 624.393 52.2848 623.399 52.9038C622.404 53.5227 621.652 54.429 622.393 55.689C623.166 57.0043 625.357 55.983 625.797 55.7663C626.066 55.663 626.309 55.5005 626.507 55.2909C626.705 55.0812 626.854 54.8298 626.942 54.555C627.03 54.2803 627.055 53.9892 627.016 53.7034C626.977 53.4177 626.873 53.1444 626.714 52.9038Z" fill="#D44631"/>
<path d="M623.777 56.4383C623.794 56.4381 623.811 56.4336 623.825 56.425L625.285 55.5961C625.296 55.5899 625.305 55.5815 625.313 55.5714C625.321 55.5614 625.327 55.5499 625.331 55.5376C625.334 55.5252 625.335 55.5124 625.334 55.4996C625.332 55.4869 625.328 55.4745 625.322 55.4633C625.316 55.4522 625.308 55.4423 625.298 55.4343C625.288 55.4264 625.276 55.4206 625.264 55.4171C625.251 55.4136 625.239 55.4126 625.226 55.4141C625.213 55.4156 625.2 55.4196 625.189 55.4258L623.73 56.2548C623.708 56.2677 623.692 56.2889 623.686 56.3137C623.679 56.3386 623.683 56.3651 623.695 56.3874C623.703 56.4022 623.715 56.4148 623.729 56.4237C623.744 56.4326 623.76 56.4376 623.777 56.4383Z" fill="#0A1A29"/>
<path d="M658.05 125.459C658.091 125.458 658.131 125.445 658.164 125.421C658.197 125.397 658.221 125.363 658.234 125.324C661.256 115.819 671.362 114.713 671.464 114.702C671.49 114.7 671.515 114.692 671.539 114.68C671.562 114.667 671.582 114.65 671.598 114.629C671.615 114.609 671.627 114.585 671.634 114.559C671.64 114.534 671.642 114.508 671.638 114.481C671.637 114.455 671.63 114.429 671.617 114.405C671.605 114.381 671.588 114.361 671.567 114.344C671.546 114.328 671.522 114.316 671.496 114.309C671.47 114.303 671.443 114.302 671.417 114.307C671.313 114.307 660.957 115.438 657.856 125.195C657.84 125.244 657.845 125.298 657.869 125.343C657.892 125.389 657.933 125.423 657.982 125.439C658.003 125.449 658.026 125.456 658.05 125.459Z" fill="#0A1A29"/>
<path d="M662.014 125.585C662.721 128.361 667.885 129.442 673.548 127.999C679.211 126.555 683.225 123.135 682.518 120.357C681.811 117.578 676.647 116.5 670.986 117.943C665.325 119.387 661.306 122.815 662.014 125.585Z" fill="#0A1A29"/>
<path d="M667.615 145.326C667.64 145.326 667.665 145.32 667.689 145.31C667.712 145.3 667.733 145.285 667.75 145.266C667.768 145.248 667.782 145.226 667.791 145.202C667.8 145.178 667.804 145.153 667.803 145.128L667.252 125.593C667.254 125.567 667.25 125.541 667.241 125.517C667.231 125.492 667.216 125.471 667.197 125.453C667.178 125.435 667.155 125.421 667.131 125.413C667.106 125.405 667.079 125.402 667.053 125.406C667.002 125.407 666.954 125.429 666.918 125.467C666.883 125.504 666.864 125.553 666.866 125.604L667.416 145.139C667.418 145.19 667.439 145.238 667.477 145.274C667.514 145.309 667.564 145.328 667.615 145.326Z" fill="#0A1A29"/>
<path d="M675.405 137.943H675.447C675.495 137.932 675.536 137.903 675.563 137.862C675.59 137.82 675.601 137.771 675.592 137.722L672.752 125.019C672.742 124.97 672.713 124.928 672.671 124.901C672.63 124.874 672.58 124.864 672.531 124.873C672.483 124.884 672.442 124.914 672.415 124.955C672.388 124.996 672.377 125.045 672.385 125.094L675.226 137.798C675.236 137.838 675.259 137.874 675.291 137.9C675.323 137.926 675.363 137.941 675.405 137.943Z" fill="#0A1A29"/>
<path d="M686.563 137.8C686.6 137.8 686.636 137.789 686.667 137.769C686.689 137.755 686.707 137.737 686.722 137.716C686.736 137.695 686.746 137.672 686.752 137.647C686.757 137.622 686.758 137.596 686.753 137.571C686.748 137.546 686.738 137.522 686.725 137.501L677.403 123.007C677.389 122.985 677.372 122.967 677.351 122.952C677.33 122.937 677.306 122.927 677.281 122.921C677.256 122.916 677.231 122.916 677.206 122.921C677.18 122.925 677.157 122.935 677.135 122.949C677.114 122.963 677.095 122.981 677.081 123.002C677.066 123.023 677.056 123.046 677.051 123.071C677.046 123.096 677.045 123.122 677.05 123.147C677.055 123.172 677.064 123.196 677.078 123.217L686.4 137.711C686.417 137.739 686.441 137.761 686.47 137.777C686.498 137.792 686.531 137.8 686.563 137.8Z" fill="#0A1A29"/>
<path d="M686.974 126.378C687.002 126.378 687.029 126.372 687.054 126.361C687.08 126.349 687.102 126.333 687.12 126.312C687.137 126.293 687.15 126.27 687.159 126.246C687.167 126.222 687.17 126.196 687.169 126.171C687.167 126.145 687.16 126.12 687.149 126.098C687.137 126.075 687.122 126.054 687.102 126.038L680.4 120.224C680.361 120.19 680.31 120.174 680.259 120.177C680.208 120.181 680.16 120.205 680.126 120.244C680.109 120.263 680.096 120.286 680.088 120.31C680.08 120.334 680.077 120.36 680.078 120.385C680.08 120.411 680.087 120.436 680.099 120.459C680.11 120.481 680.126 120.502 680.146 120.518L686.848 126.331C686.883 126.362 686.928 126.378 686.974 126.378Z" fill="#0A1A29"/>
<path d="M569.721 200.335C569.747 200.334 569.773 200.329 569.796 200.319L592.692 190.613C592.74 190.593 592.778 190.555 592.797 190.507C592.817 190.46 592.816 190.406 592.797 190.359C592.787 190.335 592.772 190.314 592.754 190.296C592.736 190.278 592.714 190.264 592.691 190.255C592.667 190.245 592.642 190.24 592.616 190.241C592.591 190.241 592.566 190.247 592.542 190.257L569.646 199.963C569.598 199.983 569.561 200.021 569.542 200.069C569.522 200.116 569.522 200.17 569.542 200.217C569.557 200.252 569.583 200.282 569.614 200.302C569.646 200.323 569.683 200.334 569.721 200.335Z" fill="#0A1A29"/>
<path d="M772.792 244.272C765.676 237.508 758 234.036 755.643 236.516C753.287 238.996 757.142 246.487 764.264 253.251C771.386 260.016 779.057 263.488 781.413 261.008C783.769 258.528 779.916 251.037 772.792 244.272Z" fill="#D44631"/>
<path d="M758.678 236.518L745.895 253.557C745.895 253.557 743.286 258.199 744.568 261.844C746.378 265.877 749.615 269.098 753.658 270.887C758.114 272.386 760.358 272.335 762.21 270.149C764.063 267.962 779.788 249.759 779.788 249.759C779.788 249.759 768.384 231.876 758.678 236.518Z" fill="white"/>
<path d="M763.554 268.628C763.601 267.819 760.802 269.66 755.76 267.596C750.718 265.531 747.048 261.627 746.589 258.424C746.129 255.221 746.704 253.265 746.016 252.807C745.329 252.35 742.234 256.247 737.19 255.559C732.145 254.872 725.383 251.318 723.664 252.686C721.944 254.054 724.625 257.003 725.841 258.418C731.441 264.948 737.536 271.038 744.071 276.632C746.551 278.593 751.516 282.709 752.55 282.49C754.734 282.039 763.324 272.638 763.554 268.628Z" fill="#D44631"/>
<path d="M739.882 261.187C739.906 261.187 739.929 261.182 739.951 261.172C739.973 261.163 739.993 261.149 740.009 261.132C740.025 261.115 740.038 261.095 740.047 261.073C740.055 261.051 740.06 261.027 740.059 261.003L739.968 255.685C739.968 255.638 739.949 255.593 739.915 255.56C739.882 255.527 739.836 255.508 739.789 255.508C739.766 255.509 739.742 255.513 739.721 255.523C739.699 255.532 739.679 255.546 739.663 255.563C739.646 255.58 739.633 255.6 739.625 255.622C739.616 255.644 739.612 255.668 739.612 255.692L739.705 261.01C739.706 261.057 739.725 261.102 739.758 261.135C739.791 261.168 739.835 261.186 739.882 261.187Z" fill="#3F1E18"/>
<path d="M736.396 260.363C736.444 260.363 736.489 260.344 736.522 260.311C736.556 260.278 736.575 260.233 736.575 260.186L736.668 255.509C736.669 255.485 736.665 255.461 736.656 255.439C736.647 255.417 736.635 255.397 736.618 255.38C736.602 255.363 736.582 255.349 736.56 255.34C736.539 255.33 736.515 255.325 736.491 255.325C736.468 255.323 736.444 255.327 736.421 255.335C736.399 255.343 736.378 255.356 736.361 255.373C736.343 255.389 736.33 255.41 736.321 255.432C736.312 255.454 736.307 255.478 736.308 255.502L736.215 260.179C736.215 260.203 736.219 260.226 736.227 260.248C736.236 260.271 736.249 260.291 736.265 260.308C736.282 260.325 736.301 260.339 736.323 260.348C736.345 260.357 736.368 260.362 736.392 260.363H736.396Z" fill="#3F1E18"/>
<path d="M755.287 280.628C755.318 280.628 755.349 280.62 755.376 280.605C755.403 280.589 755.426 280.567 755.442 280.54C755.454 280.52 755.462 280.497 755.465 280.474C755.468 280.451 755.467 280.427 755.461 280.404C755.455 280.381 755.444 280.36 755.43 280.341C755.416 280.322 755.398 280.306 755.378 280.295C749.287 276.432 743.587 271.986 738.357 267.021C733.482 262.537 729.041 257.604 725.094 252.285C725.081 252.266 725.063 252.25 725.044 252.237C725.024 252.224 725.002 252.216 724.978 252.211C724.955 252.207 724.931 252.208 724.908 252.213C724.885 252.218 724.863 252.228 724.844 252.241C724.825 252.255 724.808 252.272 724.796 252.292C724.783 252.312 724.774 252.334 724.77 252.357C724.766 252.38 724.767 252.404 724.772 252.427C724.777 252.45 724.786 252.472 724.8 252.491C728.765 257.83 733.225 262.783 738.12 267.284C743.371 272.268 749.095 276.729 755.21 280.604C755.233 280.618 755.26 280.627 755.287 280.628Z" fill="#3F1E18"/>
<path d="M756.845 262.286C756.87 262.286 756.896 262.28 756.919 262.27L760.862 260.529C760.883 260.519 760.903 260.505 760.919 260.488C760.935 260.471 760.948 260.451 760.956 260.429C760.965 260.407 760.969 260.384 760.968 260.36C760.967 260.337 760.962 260.314 760.953 260.292C760.943 260.271 760.93 260.251 760.913 260.234C760.896 260.218 760.875 260.205 760.854 260.196C760.832 260.188 760.808 260.183 760.784 260.184C760.761 260.184 760.738 260.19 760.716 260.199L756.773 261.941C756.751 261.95 756.731 261.964 756.715 261.981C756.698 261.998 756.685 262.018 756.677 262.04C756.668 262.062 756.664 262.085 756.665 262.109C756.665 262.132 756.67 262.156 756.68 262.177C756.694 262.21 756.717 262.237 756.746 262.257C756.776 262.276 756.81 262.286 756.845 262.286Z" fill="#3F1E18"/>
<path d="M794.673 240.95C794.174 245.066 792.627 248.984 790.179 252.33C787.49 255.416 784.574 258.298 781.457 260.951C781.457 260.951 782.507 255.942 772.498 245.283C762.488 234.624 755.222 237.122 755.222 237.122C755.222 237.122 768.945 215.859 775.095 207.28C781.245 198.701 786.26 198.922 792.841 198.186C799.421 197.45 795.294 236.129 794.673 240.95Z" fill="#3F1E18"/>
<path d="M784.063 242.155C784.09 242.155 784.116 242.149 784.14 242.137C784.183 242.117 784.216 242.08 784.232 242.035C784.247 241.99 784.245 241.941 784.224 241.898C781.994 237.855 778.984 234.293 775.368 231.42C771.753 228.546 767.604 226.418 763.161 225.158C763.115 225.146 763.066 225.152 763.024 225.176C762.983 225.2 762.952 225.239 762.94 225.284C762.933 225.307 762.931 225.331 762.934 225.354C762.937 225.378 762.945 225.401 762.956 225.421C762.968 225.442 762.984 225.46 763.002 225.474C763.021 225.489 763.043 225.499 763.066 225.505C767.459 226.751 771.562 228.854 775.138 231.695C778.714 234.535 781.692 238.055 783.899 242.053C783.914 242.084 783.937 242.11 783.966 242.128C783.995 242.146 784.029 242.155 784.063 242.155Z" fill="#D44631"/>
<path d="M802.89 238.916C793.19 240.417 785.749 244.376 786.273 247.758C786.797 251.14 795.084 252.664 804.786 251.161C814.488 249.657 821.927 245.701 821.403 242.319C820.879 238.937 812.589 237.416 802.89 238.916Z" fill="#D44631"/>
<path d="M786.274 247.756L791.67 266.452C791.67 266.452 793.783 271.329 797.475 272.511C801.781 273.51 806.304 272.88 810.174 270.743C814.062 268.09 815.377 266.282 814.756 263.484C814.135 260.685 809.141 237.155 809.141 237.155C809.141 237.155 788.44 237.214 786.274 247.756Z" fill="white"/>
<path d="M814.897 263.479C814.323 262.907 813.845 266.223 808.954 268.628C804.062 271.033 798.715 271.191 796.009 269.405C793.303 267.619 792.225 265.897 791.427 266.107C790.629 266.317 791.491 271.22 787.629 274.536C783.767 277.852 776.919 282.027 776.798 284.227C776.676 286.426 780.149 286.062 782.103 285.995C790.761 285.604 799.39 284.727 807.95 283.371C811.062 282.816 817.435 281.824 817.959 280.913C819.075 278.981 817.747 266.311 814.897 263.479Z" fill="#D44631"/>
<path d="M793.491 276.325C793.517 276.325 793.543 276.32 793.566 276.309C793.59 276.298 793.611 276.282 793.628 276.262C793.644 276.245 793.655 276.224 793.663 276.201C793.67 276.179 793.673 276.155 793.671 276.131C793.669 276.108 793.663 276.084 793.652 276.063C793.641 276.042 793.626 276.024 793.608 276.008L789.567 272.549C789.531 272.518 789.484 272.503 789.436 272.507C789.389 272.511 789.344 272.533 789.313 272.569C789.282 272.605 789.267 272.652 789.271 272.699C789.275 272.746 789.297 272.79 789.333 272.821L793.374 276.28C793.406 276.309 793.448 276.325 793.491 276.325Z" fill="#3F1E18"/>
<path d="M790.562 278.376C790.587 278.376 790.611 278.371 790.634 278.361C790.656 278.351 790.676 278.336 790.693 278.318C790.71 278.302 790.723 278.282 790.732 278.26C790.741 278.238 790.746 278.215 790.746 278.191C790.746 278.168 790.741 278.144 790.732 278.122C790.723 278.1 790.71 278.081 790.693 278.064L787.255 274.895C787.239 274.878 787.219 274.864 787.197 274.855C787.175 274.846 787.152 274.842 787.128 274.842C787.105 274.842 787.081 274.846 787.059 274.855C787.038 274.864 787.018 274.878 787.001 274.895C786.984 274.911 786.971 274.931 786.962 274.953C786.953 274.975 786.948 274.998 786.948 275.021C786.948 275.045 786.953 275.069 786.962 275.09C786.971 275.112 786.984 275.132 787.001 275.149L790.441 278.318C790.472 278.353 790.516 278.374 790.562 278.376Z" fill="#3F1E18"/>
<path d="M785.001 282.198C788.193 282.198 792.333 282.072 797.01 281.625C804.222 281.002 811.357 279.68 818.313 277.677C818.357 277.663 818.394 277.631 818.415 277.59C818.436 277.549 818.441 277.501 818.428 277.456C818.413 277.412 818.381 277.376 818.34 277.355C818.299 277.333 818.251 277.328 818.207 277.341C811.277 279.337 804.17 280.654 796.986 281.274C790.856 281.882 784.687 282.007 778.537 281.647C778.513 281.645 778.49 281.647 778.467 281.654C778.444 281.661 778.423 281.673 778.405 281.689C778.387 281.704 778.373 281.723 778.362 281.745C778.352 281.766 778.346 281.789 778.345 281.813C778.343 281.836 778.346 281.86 778.353 281.882C778.361 281.905 778.372 281.926 778.388 281.943C778.403 281.961 778.422 281.976 778.443 281.987C778.464 281.997 778.487 282.004 778.511 282.005C779.22 282.052 781.559 282.198 785.001 282.198Z" fill="#3F1E18"/>
<path d="M846.56 170.858C846.757 175.576 845.53 180.245 843.037 184.255C838.881 190.867 829.785 191.473 827.563 195.516C825.342 199.559 826.958 203.195 822.309 206.632C818.864 208.991 815.127 210.894 811.192 212.291C810.951 213.611 811.048 214.97 811.473 216.242C811.898 217.514 812.638 218.658 813.624 219.568C816.578 222.478 818.735 226.097 819.888 230.079C820.692 234.095 821.195 238.165 821.394 242.256C821.394 242.256 818.078 238.366 803.518 239.781C788.957 241.195 786.497 248.475 786.497 248.475C786.497 248.475 778.044 224.623 775.002 214.517C771.961 204.411 775.206 200.571 778.641 194.912C782.076 189.253 804.503 157.723 804.503 157.723L846.56 170.858Z" fill="#3F1E18"/>
<path d="M804.769 239.363H804.811C804.834 239.358 804.857 239.348 804.876 239.334C804.896 239.32 804.913 239.302 804.925 239.281C804.938 239.261 804.946 239.238 804.95 239.214C804.953 239.19 804.952 239.165 804.945 239.142C804.877 238.848 798.152 209.78 798.152 205.558C798.152 201.382 822.897 173.406 823.146 173.126C823.162 173.108 823.175 173.088 823.182 173.065C823.19 173.043 823.193 173.019 823.192 172.995C823.19 172.972 823.184 172.949 823.174 172.927C823.164 172.906 823.149 172.887 823.131 172.871C823.095 172.84 823.048 172.824 823.001 172.827C822.953 172.83 822.909 172.852 822.877 172.887C821.853 174.043 797.792 201.248 797.792 205.558C797.792 209.822 804.315 238.026 804.594 239.224C804.603 239.264 804.625 239.299 804.657 239.324C804.689 239.349 804.728 239.363 804.769 239.363Z" fill="#D44631"/>
<path d="M808.589 213.922C808.619 213.922 808.648 213.915 808.675 213.9L811.277 212.45C811.297 212.439 811.316 212.423 811.33 212.405C811.345 212.386 811.356 212.365 811.362 212.342C811.369 212.319 811.37 212.295 811.367 212.272C811.364 212.248 811.357 212.225 811.345 212.205C811.322 212.163 811.283 212.133 811.238 212.12C811.192 212.107 811.143 212.113 811.102 212.136L808.5 213.586C808.48 213.598 808.461 213.613 808.447 213.632C808.432 213.65 808.421 213.672 808.415 213.695C808.408 213.718 808.407 213.741 808.41 213.765C808.413 213.788 808.42 213.811 808.432 213.832C808.447 213.859 808.47 213.882 808.498 213.898C808.525 213.914 808.557 213.922 808.589 213.922Z" fill="#D44631"/>
<path d="M783.588 240.554C783.615 240.555 783.641 240.549 783.665 240.537C783.689 240.526 783.71 240.509 783.727 240.488C788.582 235.149 795.106 231.616 802.231 230.468C813.88 228.726 819.992 232.944 820.052 232.986C820.071 232.999 820.093 233.009 820.116 233.014C820.139 233.019 820.163 233.02 820.186 233.015C820.209 233.011 820.232 233.003 820.251 232.99C820.271 232.977 820.288 232.961 820.302 232.942C820.315 232.922 820.325 232.901 820.33 232.878C820.336 232.855 820.336 232.831 820.333 232.808C820.329 232.785 820.32 232.763 820.308 232.743C820.295 232.723 820.279 232.705 820.26 232.692C818.842 231.803 817.296 231.14 815.675 230.727C811.271 229.563 806.67 229.353 802.178 230.112C794.965 231.274 788.361 234.853 783.449 240.261C783.418 240.298 783.404 240.345 783.409 240.393C783.414 240.441 783.438 240.484 783.475 240.515C783.507 240.54 783.547 240.554 783.588 240.554Z" fill="#D44631"/>
<path d="M775.013 214.513C775.595 216.458 776.384 218.92 777.268 221.619C782.078 219.559 786.212 213.308 787.436 205.439C788.557 198.144 786.855 191.413 783.438 187.755C781.192 191.022 779.439 193.635 778.665 194.912C775.217 200.573 771.978 204.406 775.013 214.513Z" fill="#D44631"/>
<path d="M786.36 248.702C786.38 248.706 786.401 248.706 786.422 248.702C786.464 248.686 786.5 248.654 786.52 248.613C786.54 248.572 786.543 248.525 786.53 248.481C783.627 240.322 780.624 231.255 777.597 221.535C777.583 221.491 777.552 221.454 777.51 221.432C777.469 221.41 777.421 221.405 777.376 221.418C777.332 221.432 777.294 221.464 777.273 221.505C777.251 221.546 777.246 221.594 777.259 221.639C780.285 231.365 783.294 240.428 786.196 248.607C786.212 248.637 786.235 248.661 786.264 248.678C786.293 248.695 786.326 248.703 786.36 248.702Z" fill="#D44631"/>
<path d="M852.016 96.7708C850.638 97.7301 849.528 99.0256 848.791 100.534C848.054 102.043 847.715 103.715 847.805 105.392C847.805 105.392 839.554 108.688 834.936 107.764C830.318 106.84 833.388 102.547 833.388 102.547C835.442 100.121 836.614 97.0717 836.715 93.8951L852.016 96.7708Z" fill="white"/>
<path d="M852.482 97.1688C850.342 99.0695 847.653 100.242 844.803 100.518C842.045 100.541 839.295 100.205 836.624 99.5163C836.624 99.5163 832.391 104.722 832.544 106.747C832.696 108.772 827.592 100.049 827.592 100.049L833.936 90.7451L845.709 90.5882L852.482 97.1688Z" fill="#3F1E18"/>
<path d="M847.699 78.4261C846.57 78.4386 845.474 78.8028 844.563 79.4681C843.651 80.1334 842.97 81.0667 842.615 82.1376L848.021 81.7131L849.452 80.2829L847.699 78.4261Z" fill="#3F1E18"/>
<path d="M859.843 85.4952C859.843 85.4952 860.389 83.0924 857.308 81.4124C854.226 79.7324 853.495 80.3624 851.13 79.2019C848.391 77.8624 846.465 75.6872 845.555 76.1072C844.644 76.5272 846.185 79.1886 847.025 80.0286C847.865 80.8686 854.589 87.2437 854.589 87.2437L855.36 94.5383C857.187 93.1849 858.813 91.5812 860.193 89.7746C861.594 87.6658 860.825 85.4952 859.843 85.4952Z" fill="#3F1E18"/>
<path d="M840.278 84.0075C839.158 85.1282 838.006 85.7207 837.115 86.5894C836.528 87.1596 836.071 87.8497 835.776 88.6127C835.48 89.3757 835.353 90.1936 835.402 91.0104C835.469 92.3143 835.865 93.5799 836.554 94.6887C837.244 95.7976 838.203 96.7133 839.343 97.35C841.718 98.79 844.528 99.3381 847.27 98.8963C850.012 98.4545 852.508 97.0514 854.311 94.9383C858.696 90.3317 857.832 84.6464 855.57 82.3387C854.307 81.1348 852.737 80.3017 851.032 79.9309C849.327 79.5601 847.553 79.6658 845.904 80.2364C843.671 80.8528 841.697 82.1758 840.278 84.0075Z" fill="white"/>
<path d="M855.712 93.4795C855.363 91.3773 857.111 87.1664 856.552 85.566C855.705 83.1345 849.441 82.5134 846.989 79.9934L849.268 78.8439C851.686 79.727 854.028 80.8048 856.271 82.0668L859.145 87.0404C858.652 89.4753 857.459 91.7132 855.712 93.4795Z" fill="#3F1E18"/>
<path d="M854.317 93.3867C852.915 94.0853 852.153 95.4049 852.617 96.3333C853.081 97.2618 854.591 97.4385 855.992 96.7466C857.394 96.0547 858.156 94.7285 857.692 93.8001C857.228 92.8717 855.718 92.6882 854.317 93.3867Z" fill="white"/>
<path d="M853.457 94.6974L856.947 94.6576C856.971 94.657 856.993 94.6473 857.01 94.6304C857.026 94.6134 857.036 94.5907 857.036 94.5671C857.035 94.5434 857.025 94.5209 857.008 94.5043C856.991 94.4878 856.969 94.4786 856.945 94.4786L853.455 94.5184C853.443 94.5184 853.431 94.5208 853.42 94.5254C853.409 94.53 853.4 94.5366 853.391 94.5451C853.383 94.5535 853.377 94.5635 853.372 94.5745C853.368 94.5855 853.366 94.5972 853.366 94.609C853.367 94.6327 853.377 94.6551 853.394 94.6716C853.411 94.6882 853.433 94.6974 853.457 94.6974Z" fill="#3F1E18"/>
<path d="M841.551 88.5591C841.563 88.5589 841.575 88.5563 841.586 88.5514C841.597 88.5464 841.607 88.5393 841.615 88.5303C841.624 88.5221 841.63 88.5123 841.635 88.5015C841.639 88.4907 841.642 88.4791 841.642 88.4673C841.642 88.4556 841.639 88.444 841.635 88.4332C841.63 88.4224 841.624 88.4126 841.615 88.4043C841.604 88.3933 840.486 87.3146 841.06 86.4923C841.405 85.9971 843.178 85.6191 843.832 85.5152C843.856 85.5114 843.877 85.4987 843.891 85.4797C843.905 85.4607 843.911 85.437 843.908 85.4136C843.906 85.4018 843.901 85.3906 843.895 85.3804C843.889 85.3703 843.881 85.3614 843.871 85.3544C843.861 85.3474 843.851 85.3424 843.839 85.3397C843.827 85.3369 843.815 85.3364 843.804 85.3383C843.704 85.3538 841.372 85.7319 840.912 86.3884C840.249 87.3345 841.438 88.4839 841.489 88.5325C841.506 88.549 841.528 88.5585 841.551 88.5591Z" fill="#3F1E18"/>
<path d="M841.644 91.2956C841.667 91.2957 841.689 91.2873 841.705 91.2722C841.722 91.257 841.733 91.2362 841.735 91.2137C841.737 91.19 841.729 91.1666 841.714 91.1484C841.698 91.1303 841.677 91.1187 841.653 91.1165C840.97 91.0667 840.302 90.8851 839.688 90.5815C839.666 90.5707 839.642 90.5689 839.619 90.5764C839.596 90.5839 839.577 90.6 839.566 90.6213C839.555 90.6427 839.554 90.6676 839.561 90.6904C839.569 90.7132 839.585 90.7321 839.606 90.743C840.24 91.0573 840.929 91.2457 841.635 91.2978L841.644 91.2956Z" fill="#3F1E18"/>
<path d="M843.408 91.5392C843.419 91.5395 843.431 91.5376 843.442 91.5334C843.453 91.5292 843.462 91.5229 843.471 91.5149C843.479 91.5069 843.486 91.4973 843.491 91.4867C843.496 91.476 843.498 91.4645 843.498 91.4529C843.499 91.4291 843.49 91.4062 843.474 91.3888C843.458 91.3714 843.436 91.361 843.412 91.3599C843.115 91.3482 842.819 91.3172 842.526 91.2669C842.514 91.264 842.502 91.2636 842.491 91.2658C842.479 91.268 842.467 91.2726 842.458 91.2796C842.448 91.2865 842.439 91.2955 842.433 91.3059C842.427 91.3163 842.423 91.328 842.422 91.34C842.418 91.3635 842.424 91.3874 842.437 91.4069C842.451 91.4264 842.472 91.4398 842.495 91.4441C842.795 91.4956 843.099 91.5274 843.403 91.5392H843.408Z" fill="#3F1E18"/>
<path d="M851.43 88.4395C851.465 88.4394 851.5 88.4286 851.53 88.4085C851.559 88.3884 851.582 88.3599 851.596 88.3267C851.816 87.8077 851.907 87.2431 851.862 86.681C851.817 86.119 851.636 85.5764 851.335 85.0995C851.147 84.7875 850.885 84.5262 850.573 84.3386C850.261 84.1509 849.908 84.0426 849.544 84.023C849.497 84.023 849.452 84.0416 849.418 84.0747C849.385 84.1078 849.366 84.1526 849.365 84.1998C849.364 84.2234 849.369 84.2471 849.377 84.2692C849.386 84.2913 849.399 84.3114 849.415 84.3285C849.432 84.3455 849.451 84.3593 849.473 84.3687C849.495 84.3781 849.518 84.383 849.542 84.3832C849.847 84.4028 850.143 84.4966 850.404 84.6564C850.665 84.8163 850.883 85.0375 851.038 85.3007C851.306 85.7296 851.466 86.2171 851.505 86.7214C851.543 87.2256 851.459 87.7318 851.259 88.1964C851.251 88.2183 851.247 88.2417 851.247 88.2652C851.248 88.2888 851.253 88.3119 851.262 88.3335C851.272 88.355 851.285 88.3745 851.302 88.3908C851.319 88.4071 851.339 88.4199 851.361 88.4285C851.383 88.4364 851.406 88.4402 851.43 88.4395Z" fill="#3F1E18"/>
<path d="M846.337 82.1819C846.361 82.1816 846.385 82.1764 846.408 82.1665C846.429 82.1571 846.449 82.1435 846.465 82.1265C846.482 82.1096 846.495 82.0894 846.503 82.0675C846.512 82.0455 846.516 82.022 846.516 81.9984C846.515 81.9748 846.51 81.9516 846.5 81.93C846.266 81.415 845.857 80.9995 845.345 80.7569C844.834 80.5142 844.254 80.4599 843.706 80.6036C843.683 80.6095 843.662 80.6199 843.643 80.6342C843.623 80.6485 843.607 80.6666 843.595 80.6871C843.583 80.7076 843.575 80.7303 843.572 80.7539C843.569 80.7775 843.57 80.8016 843.576 80.8247C843.582 80.8478 843.592 80.8695 843.607 80.8885C843.621 80.9076 843.639 80.9236 843.659 80.9358C843.68 80.9479 843.703 80.9558 843.726 80.9591C843.75 80.9624 843.774 80.961 843.797 80.9551C844.262 80.8257 844.758 80.868 845.194 81.0742C845.631 81.2804 845.978 81.6366 846.173 82.078C846.188 82.109 846.211 82.1353 846.24 82.1537C846.269 82.1721 846.303 82.1818 846.337 82.1819Z" fill="#3F1E18"/>
<path d="M845.751 85.1437C845.301 85.6839 845.066 86.3721 845.094 87.0748C845.122 87.7776 845.41 88.445 845.901 88.948C846.476 89.353 847.181 89.5303 847.88 89.4453C848.578 89.3604 849.22 89.0193 849.681 88.4882L845.751 85.1437Z" fill="#3F1E18"/>
<path d="M840.769 80.8974C840.318 81.4379 840.085 82.126 840.113 82.8288C840.141 83.5315 840.429 84.1989 840.921 84.7016C841.496 85.1066 842.201 85.2838 842.899 85.1989C843.598 85.1139 844.24 84.773 844.701 84.2419L840.769 80.8974Z" fill="#3F1E18"/>
<path d="M855.875 92.9068C855.905 92.9068 855.934 92.8994 855.961 92.8851C855.987 92.8708 856.009 92.8502 856.025 92.8251C856.051 92.7852 856.06 92.7367 856.05 92.6903C856.04 92.6439 856.012 92.6033 855.972 92.5775L849.432 88.3068C849.392 88.2816 849.343 88.273 849.297 88.283C849.251 88.2929 849.21 88.3205 849.184 88.3599C849.171 88.3797 849.162 88.4019 849.157 88.4253C849.153 88.4486 849.153 88.4726 849.158 88.4959C849.163 88.5191 849.173 88.5412 849.186 88.5607C849.2 88.5803 849.217 88.5969 849.237 88.6097L855.778 92.8781C855.807 92.8971 855.841 92.9071 855.875 92.9068Z" fill="#3F1E18"/>
<path d="M787.014 126.723C782.516 132.216 780.487 137.997 782.483 139.626C784.479 141.255 789.74 138.129 794.238 132.634C798.737 127.139 800.766 121.361 798.77 119.731C796.774 118.102 791.51 121.23 787.014 126.723Z" fill="#3F1E18"/>
<path d="M796.379 108.042C790.924 112.587 787.84 117.874 789.489 119.855C791.138 121.835 796.899 119.758 802.354 115.213C807.81 110.668 810.893 105.381 809.244 103.4C807.595 101.419 801.833 103.5 796.379 108.042Z" fill="#3F1E18"/>
<path d="M807.487 110.222L797.246 116.906L791.331 108.491L803.489 98.6743C804.585 103.442 805.657 108.294 807.487 110.222Z" fill="white"/>
<path d="M788.274 92.1312C788.274 92.1312 777.586 87.5797 776.921 89.326C776.399 90.6965 783.25 94.2841 786.904 96.1122L788.274 92.1312Z" fill="white"/>
<path d="M818.02 116.632C813.438 111.548 812.351 107.39 809.225 103.369C809.294 103.966 808.374 107.963 803.022 112.271C800.275 114.482 795.493 117.576 791.775 117.874L797.94 128.971L812.284 129.164L818.02 116.632Z" fill="#3F1E18"/>
<path d="M803.003 124.358C803.032 124.358 803.061 124.35 803.087 124.336C813.255 118.966 814.232 112.074 814.241 112.006C814.246 111.958 814.233 111.911 814.204 111.873C814.176 111.836 814.133 111.811 814.086 111.804C814.039 111.799 813.991 111.813 813.954 111.842C813.916 111.871 813.891 111.914 813.885 111.961C813.885 112.028 812.914 118.743 802.919 124.019C802.898 124.03 802.879 124.046 802.864 124.064C802.849 124.082 802.837 124.103 802.83 124.125C802.823 124.148 802.821 124.172 802.823 124.195C802.825 124.219 802.832 124.242 802.843 124.263C802.859 124.292 802.882 124.315 802.91 124.332C802.938 124.349 802.97 124.358 803.003 124.358Z" fill="#3F1E18"/>
<path d="M844.471 105.668L833.214 106.625L833.388 102.54L827.106 104.932L817.36 120.496L803.213 159.6C807.425 161.912 812.164 163.097 816.969 163.039L834.717 112.64L844.471 105.668Z" fill="white"/>
<path d="M828.134 115.679C827.053 115.9 824.799 115.425 824.544 114.338C824.326 112.98 824.608 111.589 825.338 110.423C826.33 109.782 833.205 106.747 833.205 106.747L831.437 113.821C830.468 114.649 829.346 115.281 828.134 115.679Z" fill="#FEE4E0"/>
<path d="M831.001 115.061C831.04 115.06 831.078 115.048 831.11 115.024C831.141 115 831.163 114.966 831.174 114.928L833.384 106.669C833.393 106.636 833.392 106.601 833.382 106.568C833.371 106.535 833.351 106.506 833.324 106.484C833.297 106.462 833.265 106.448 833.23 106.444C833.196 106.44 833.161 106.446 833.13 106.462L823.51 111.232C823.488 111.242 823.47 111.257 823.454 111.274C823.438 111.292 823.426 111.313 823.419 111.335C823.411 111.358 823.408 111.381 823.409 111.405C823.411 111.429 823.417 111.452 823.428 111.473C823.438 111.494 823.453 111.513 823.471 111.529C823.488 111.545 823.509 111.556 823.531 111.564C823.554 111.572 823.577 111.575 823.601 111.573C823.625 111.572 823.648 111.565 823.669 111.555L832.933 106.961L830.826 114.835C830.82 114.858 830.818 114.882 830.821 114.905C830.824 114.929 830.832 114.951 830.843 114.972C830.855 114.993 830.871 115.01 830.889 115.025C830.908 115.039 830.929 115.05 830.952 115.056L831.001 115.061Z" fill="#3F1E18"/>
<path d="M798.016 167.177C799.513 168.157 801.291 168.618 803.076 168.49C803.076 168.49 805.408 163.265 807.468 157.716C810.812 148.737 810.697 142.612 814.948 130.014C821.487 110.633 832.922 102.845 833.368 102.549C833.368 102.536 833.381 102.536 833.381 102.536C833.827 102.007 834.233 101.445 834.595 100.856C826.75 98.9968 821.876 105.206 819.785 110.224C817.574 115.5 813.403 119.678 810.33 125.613C807.258 131.549 798.016 167.177 798.016 167.177Z" fill="#D44631"/>
<path d="M813.328 135.198C813.788 133.589 814.325 131.882 814.951 130.015C821.489 110.633 832.924 102.845 833.371 102.549C833.371 102.536 833.384 102.536 833.384 102.536C833.733 102.121 834.057 101.685 834.352 101.229C834.432 101.115 834.509 101.008 834.589 100.871C834.589 100.871 834.589 100.871 834.589 100.858C826.744 98.9991 821.869 105.208 819.778 110.226C818.772 112.483 817.538 114.631 816.096 116.637L813.328 135.198Z" fill="#3F1E18"/>
<path d="M838.631 90.082C837.873 90.5949 826.827 86.0214 824.542 84.9979C822.256 83.9745 816.418 80.6829 813.752 82.0778C811.086 83.4726 800.679 100.608 797.633 107.843C794.587 115.078 781.704 138.087 775.442 143.817C772.551 146.459 768.974 148.234 765.121 148.938C761.268 149.641 757.294 149.246 753.656 147.796C745.406 144.259 744 134.533 747.714 123.648C750.192 116.393 757.906 103.016 756.635 100.858C755.364 98.7007 753.715 97.9381 753.715 95.4005C753.715 92.8628 757.65 89.0541 770.088 90.5772C770.088 90.5772 783.084 92.9512 782.085 97.8718C781.556 100.482 778.345 100.303 777.133 102.116C776.108 103.663 775.097 107.498 772.491 111.716C768.855 117.587 765.455 121.798 766.653 122.505C768.382 123.524 778.59 107.956 782.405 101.727C786.221 95.4977 796.652 77.2678 803.049 73.4525C809.4 69.6637 815.023 71.6465 819.849 74.3123C824.674 76.9782 835.729 84.4608 837.117 86.5585C838.505 88.6563 838.87 89.9229 838.631 90.082Z" fill="#D44631"/>
<path d="M760.72 95.9044C760.499 97.9624 763.49 99.9783 767.409 100.409C771.328 100.84 774.693 99.5251 774.925 97.4627C775.157 95.4003 772.155 93.3889 768.236 92.9578C764.317 92.5268 760.946 93.8464 760.72 95.9044Z" fill="#3F1E18"/>
<path d="M839.637 90.6877C839.14 91.143 834.303 88.9193 834.303 88.9193L836.231 85.6389C836.724 85.9285 840.572 89.8256 839.637 90.6877Z" fill="#3F1E18"/>
<path d="M784.074 111.663C784.074 112.446 784.385 113.196 784.938 113.75C785.492 114.303 786.242 114.614 787.025 114.614C787.808 114.614 788.558 114.303 789.112 113.75C789.665 113.196 789.976 112.446 789.976 111.663C789.976 111.275 789.9 110.891 789.752 110.533C789.604 110.175 789.386 109.849 789.112 109.575C788.838 109.3 788.513 109.083 788.155 108.934C787.797 108.786 787.413 108.71 787.025 108.71C786.637 108.71 786.253 108.786 785.895 108.934C785.537 109.083 785.212 109.3 784.937 109.575C784.663 109.849 784.446 110.175 784.298 110.533C784.15 110.891 784.074 111.275 784.074 111.663Z" fill="#F7CEC1"/>
<path d="M759.834 108.232C759.834 108.79 760.055 109.326 760.45 109.72C760.845 110.115 761.38 110.337 761.938 110.337C762.496 110.337 763.031 110.115 763.426 109.72C763.821 109.326 764.042 108.79 764.042 108.232C764.042 107.674 763.821 107.139 763.426 106.744C763.031 106.35 762.496 106.128 761.938 106.128C761.38 106.128 760.845 106.35 760.45 106.744C760.055 107.139 759.834 107.674 759.834 108.232Z" fill="#3F1E18"/>
<path d="M758.802 118.641C760.11 118.641 761.171 117.58 761.171 116.272C761.171 114.963 760.11 113.902 758.802 113.902C757.493 113.902 756.432 114.963 756.432 116.272C756.432 117.58 757.493 118.641 758.802 118.641Z" fill="#3F1E18"/>
<path d="M757.61 126.238C757.926 124.6 756.854 123.017 755.216 122.701C753.579 122.386 751.996 123.458 751.68 125.095C751.365 126.733 752.437 128.316 754.074 128.632C755.712 128.947 757.295 127.875 757.61 126.238Z" fill="#3F1E18"/>
<path d="M775.204 135.553C775.324 133.853 774.044 132.377 772.344 132.256C770.644 132.135 769.168 133.415 769.047 135.115C768.927 136.815 770.207 138.291 771.907 138.412C773.607 138.533 775.083 137.253 775.204 135.553Z" fill="#F7CEC1"/>
<path d="M789.888 102.633C789.888 103.227 790.124 103.796 790.543 104.215C790.963 104.635 791.532 104.87 792.125 104.87C792.718 104.87 793.287 104.635 793.707 104.215C794.126 103.796 794.362 103.227 794.362 102.633C794.362 102.04 794.126 101.471 793.707 101.051C793.287 100.632 792.718 100.396 792.125 100.396C791.532 100.396 790.963 100.632 790.543 101.051C790.124 101.471 789.888 102.04 789.888 102.633Z" fill="#F7CEC1"/>
<path d="M795.345 94.8944C795.345 95.1588 795.397 95.4207 795.498 95.665C795.6 95.9093 795.748 96.1313 795.935 96.3183C796.122 96.5053 796.344 96.6537 796.588 96.7549C796.833 96.8561 797.095 96.9081 797.359 96.9081C797.893 96.9076 798.404 96.6951 798.782 96.3175C799.159 95.9399 799.371 95.4281 799.371 94.8944C799.371 94.63 799.319 94.3682 799.218 94.1239C799.117 93.8795 798.969 93.6576 798.782 93.4706C798.595 93.2836 798.374 93.1352 798.129 93.034C797.885 92.9328 797.623 92.8806 797.359 92.8806C796.825 92.8806 796.313 93.0928 795.935 93.4704C795.557 93.8481 795.345 94.3603 795.345 94.8944Z" fill="#F7CEC1"/>
<path d="M803.352 88.7689C804.464 88.7689 805.366 87.8673 805.366 86.7551C805.366 85.643 804.464 84.7414 803.352 84.7414C802.24 84.7414 801.338 85.643 801.338 86.7551C801.338 87.8673 802.24 88.7689 803.352 88.7689Z" fill="#F7CEC1"/>
<path d="M766.39 125.527C766.437 125.527 766.481 125.509 766.515 125.477C766.548 125.445 766.568 125.401 766.57 125.355L766.698 122.26C766.699 122.236 766.695 122.213 766.687 122.19C766.679 122.168 766.667 122.148 766.651 122.13C766.635 122.113 766.615 122.099 766.594 122.089C766.572 122.079 766.549 122.073 766.525 122.072C766.478 122.072 766.433 122.089 766.398 122.121C766.363 122.154 766.343 122.198 766.34 122.245L766.212 125.339C766.21 125.387 766.227 125.434 766.259 125.469C766.291 125.504 766.336 125.525 766.384 125.527H766.39Z" fill="#3F1E18"/>
<path d="M773.192 103.197H773.232C775.012 102.777 776.738 102.153 778.374 101.335C778.395 101.325 778.414 101.311 778.429 101.293C778.445 101.275 778.457 101.254 778.465 101.232C778.472 101.21 778.475 101.186 778.474 101.162C778.472 101.139 778.466 101.116 778.455 101.094C778.434 101.052 778.396 101.02 778.351 101.005C778.306 100.991 778.257 100.994 778.214 101.015C776.603 101.82 774.904 102.436 773.15 102.85C773.126 102.855 773.104 102.865 773.084 102.879C773.065 102.893 773.048 102.911 773.035 102.931C773.023 102.952 773.015 102.975 773.011 102.999C773.008 103.023 773.009 103.047 773.015 103.071C773.027 103.108 773.05 103.141 773.082 103.164C773.114 103.186 773.153 103.198 773.192 103.197Z" fill="#3F1E18"/>
<path d="M798.676 127.11C796.643 123.838 794.334 120.746 791.773 117.868C788.767 114.861 778.572 103.52 777.184 104.284C775.431 105.253 782.752 115.752 782.752 115.752C782.752 115.752 773.048 106.066 771.284 107.624C769.471 109.227 779.189 118.869 779.189 118.869C779.189 118.869 770.051 113.19 768.722 114.861C767.57 116.311 777.763 123.396 777.763 123.396C777.763 123.396 768.499 119.76 768.165 121.765C767.831 123.77 777.071 126.776 778.075 127.554C781.773 131.016 786.075 133.771 790.767 135.682L798.676 127.11Z" fill="white"/>
<path d="M806.478 108.725C805.86 106.308 805.79 103.784 806.272 101.336C806.975 98.4909 810.567 90.239 808.421 89.1647C806.274 88.0904 801.442 98.9174 799.831 104.466L800.273 108.942C801.183 109.604 802.288 109.942 803.413 109.903C804.537 109.864 805.616 109.449 806.478 108.725Z" fill="white"/>
<path d="M796.194 87.7831C794.534 88.9679 790.474 85.0178 789.903 83.4926C789.333 81.9673 791.219 80.6609 792.273 80.8996C793.206 81.114 797.527 86.8304 796.194 87.7831Z" fill="white"/>
<path d="M789.567 83.1765C788.811 83.1191 788.062 83.3576 787.477 83.8417C786.893 84.3257 786.519 85.0176 786.435 85.7717C786.523 87.025 791.804 91.7665 793.683 91.0503C795.562 90.3341 790.014 83.2738 789.567 83.1765Z" fill="white"/>
<path d="M785.365 85.0753C784.705 85.0932 784.079 85.3698 783.621 85.8454C783.163 86.3209 782.911 86.9573 782.918 87.6174C782.87 89.4875 789.598 93.8598 790.739 92.7988C792.123 91.5056 786.565 85.0288 785.365 85.0753Z" fill="white"/>
<path d="M776.954 86.1695C776.979 86.1697 777.003 86.1646 777.026 86.1547C777.049 86.1448 777.07 86.1303 777.087 86.1121L783.026 79.6088C783.042 79.5914 783.055 79.5711 783.063 79.5489C783.071 79.5266 783.075 79.503 783.074 79.4794C783.073 79.4557 783.067 79.4325 783.057 79.4111C783.047 79.3897 783.033 79.3705 783.015 79.3546C782.998 79.3385 782.977 79.326 782.955 79.3179C782.933 79.3097 782.909 79.3061 782.886 79.3071C782.862 79.3081 782.839 79.3138 782.817 79.3238C782.796 79.3339 782.777 79.3481 782.761 79.3656L776.824 85.8689C776.807 85.8863 776.795 85.9066 776.787 85.9288C776.779 85.9511 776.775 85.9747 776.776 85.9983C776.777 86.022 776.783 86.0452 776.793 86.0666C776.803 86.088 776.817 86.1072 776.835 86.1231C776.867 86.153 776.91 86.1695 776.954 86.1695Z" fill="#3F1E18"/>
<path d="M771.299 84.4741C771.341 84.4739 771.38 84.4594 771.412 84.4332C771.444 84.407 771.466 84.3708 771.474 84.3304L773.17 76.1294C773.176 76.1057 773.177 76.0811 773.173 76.0569C773.169 76.0327 773.161 76.0094 773.148 75.9887C773.135 75.968 773.118 75.9502 773.097 75.9364C773.077 75.9226 773.054 75.9131 773.03 75.9084C773.006 75.9023 772.982 75.9009 772.958 75.9047C772.933 75.9084 772.91 75.9171 772.89 75.9302C772.869 75.9432 772.851 75.9604 772.837 75.9806C772.823 76.0008 772.814 76.0236 772.809 76.0477L771.112 84.2485C771.105 84.2722 771.104 84.297 771.108 84.3212C771.112 84.3454 771.12 84.3685 771.133 84.3892C771.146 84.4099 771.163 84.4278 771.184 84.4416C771.204 84.4554 771.227 84.465 771.251 84.4696L771.299 84.4741Z" fill="#3F1E18"/>
<path d="M764.513 83.623H764.531C764.555 83.6208 764.577 83.614 764.598 83.6029C764.619 83.5918 764.638 83.5766 764.653 83.5583C764.668 83.54 764.679 83.5189 764.686 83.4963C764.693 83.4736 764.695 83.4498 764.692 83.4263L764.093 77.2082C764.087 77.1613 764.064 77.1185 764.027 77.0885C763.99 77.0585 763.944 77.0436 763.897 77.0468C763.873 77.049 763.85 77.0559 763.829 77.0671C763.808 77.0782 763.79 77.0933 763.775 77.1116C763.76 77.1299 763.749 77.151 763.742 77.1736C763.735 77.1963 763.733 77.22 763.735 77.2435L764.334 83.4616C764.339 83.506 764.36 83.5471 764.393 83.577C764.426 83.6068 764.469 83.6232 764.513 83.623Z" fill="#3F1E18"/>
<path d="M847.805 105.384C853.276 107.473 858.071 111.021 861.669 115.643C866.393 122.597 861.145 135.847 859.569 141.357C857.993 146.868 856.682 156.444 858.519 161.824C860.356 167.205 862.98 172.056 861.536 178.224C860.651 181.968 859.191 185.553 857.206 188.85C852.678 186.772 847.923 185.231 843.037 184.259C837.258 183.326 831.645 181.558 826.374 179.011C821.857 176.417 817.518 173.524 813.385 170.352L821.913 140.307L838.837 110.525L847.805 105.384Z" fill="#D44631"/>
<path d="M821.918 140.304C824.321 139.428 826.322 137.705 827.546 135.459C829.648 131.655 832.011 130.083 833.978 126.931C835.946 123.779 834.372 120.37 836.606 118.531C838.841 116.692 844.323 116.736 848.278 113.807C850.315 112.27 851.967 110.28 853.101 107.994C851.784 107.209 850.42 106.506 849.016 105.889L848.965 105.867L847.825 105.394H847.796C847.796 105.394 838.306 104.762 833.187 110.398C828.067 116.035 822.837 127.841 821.918 140.304Z" fill="#3F1E18"/>
<path d="M858.959 116.877C853.402 113.712 847.723 115.856 843.346 122.567C838.969 129.278 833.551 140.987 832.11 140.222C830.709 139.48 799.616 119.722 798.325 119.468C799.715 120.642 799.373 125.317 794.788 130.605C790.354 135.718 787.067 140.331 782.577 139.687C784.179 141.317 786.239 142.42 788.484 142.848C792.861 144.016 794.322 143.14 797.385 145.474C800.449 147.809 801.033 152.769 805.995 155.106C810.958 157.442 812.707 156.419 818.399 158.899C824.091 161.379 830.455 166.775 837.659 165.904C846.436 164.841 859.021 137.338 861.151 130.883C863.245 124.53 862.664 118.977 858.959 116.877Z" fill="#D44631"/>
<path d="M798.566 146.242C798.601 146.242 798.635 146.232 798.664 146.213C801.931 144.034 804.726 141.218 806.882 137.935C809.038 134.652 810.51 130.968 811.21 127.103C811.216 127.056 811.203 127.009 811.174 126.971C811.145 126.933 811.103 126.909 811.056 126.902C811.009 126.896 810.961 126.909 810.923 126.938C810.886 126.967 810.861 127.01 810.854 127.057C810.162 130.869 808.71 134.503 806.583 137.743C804.456 140.982 801.699 143.759 798.476 145.91C798.456 145.923 798.439 145.939 798.425 145.958C798.411 145.978 798.402 145.999 798.397 146.022C798.392 146.045 798.391 146.069 798.395 146.092C798.399 146.116 798.408 146.138 798.42 146.158C798.436 146.182 798.458 146.203 798.483 146.218C798.508 146.232 798.537 146.24 798.566 146.242Z" fill="#3F1E18"/>
<path d="M832.61 147.977C832.649 147.977 832.686 147.964 832.717 147.941C832.748 147.918 832.771 147.886 832.782 147.849C832.844 147.628 834.254 142.652 831.642 139.571C831.629 139.557 831.616 139.545 831.6 139.535L809.124 125.547C809.104 125.535 809.081 125.526 809.058 125.522C809.035 125.518 809.011 125.519 808.988 125.524C808.965 125.53 808.943 125.539 808.924 125.553C808.905 125.567 808.888 125.585 808.876 125.605C808.863 125.625 808.855 125.647 808.851 125.67C808.847 125.694 808.848 125.717 808.853 125.74C808.858 125.764 808.868 125.785 808.882 125.804C808.896 125.824 808.913 125.84 808.933 125.852L831.385 139.827C833.848 142.76 832.453 147.701 832.438 147.751C832.425 147.797 832.431 147.846 832.454 147.887C832.478 147.929 832.516 147.959 832.561 147.972C832.577 147.976 832.594 147.978 832.61 147.977Z" fill="#3F1E18"/>
<path d="M836.207 143.468C836.235 143.468 836.263 143.461 836.288 143.448C836.331 143.426 836.362 143.388 836.377 143.343C836.391 143.298 836.387 143.249 836.366 143.207C835.597 141.678 834.505 140.333 833.167 139.266C833.147 139.253 833.125 139.245 833.101 139.241C833.078 139.237 833.054 139.238 833.031 139.244C833.008 139.249 832.986 139.259 832.967 139.273C832.948 139.287 832.932 139.305 832.92 139.325C832.895 139.366 832.888 139.414 832.899 139.46C832.91 139.506 832.939 139.546 832.979 139.571C834.257 140.609 835.302 141.903 836.047 143.371C836.062 143.4 836.085 143.424 836.113 143.442C836.141 143.459 836.174 143.468 836.207 143.468Z" fill="#3F1E18"/>
<path d="M826.648 163.258C829.968 165.224 833.801 166.148 837.652 165.911C840.833 165.524 844.523 161.66 848.026 156.578C846.896 155.195 845.472 154.081 843.858 153.316C842.244 152.551 840.479 152.155 838.693 152.157C835.661 152.166 832.742 153.31 830.512 155.366C828.282 157.421 826.904 160.237 826.648 163.258Z" fill="#3F1E18"/>
<path d="M826.922 163.389C826.959 163.389 826.996 163.377 827.026 163.356C827.057 163.334 827.08 163.304 827.092 163.269C827.105 163.225 827.101 163.178 827.081 163.137C827.06 163.096 827.025 163.064 826.982 163.048C825.606 162.497 824.271 161.851 822.985 161.114C820.967 159.964 818.859 158.979 816.681 158.17C815.21 157.68 813.711 157.274 812.194 156.954C810.078 156.546 808.021 155.877 806.069 154.965C803.825 153.628 802.004 151.685 800.814 149.361C799.994 147.805 798.858 146.437 797.479 145.344C797.438 145.32 797.389 145.312 797.343 145.322C797.297 145.333 797.256 145.362 797.231 145.402C797.218 145.422 797.21 145.444 797.206 145.467C797.202 145.491 797.203 145.515 797.208 145.538C797.214 145.561 797.223 145.582 797.237 145.601C797.251 145.621 797.268 145.637 797.288 145.65C798.619 146.717 799.716 148.046 800.511 149.555C801.733 151.94 803.608 153.928 805.916 155.289C807.889 156.213 809.968 156.893 812.105 157.314C813.611 157.633 815.097 158.036 816.557 158.521C818.715 159.325 820.805 160.301 822.806 161.441C824.109 162.187 825.462 162.841 826.856 163.397C826.878 163.398 826.901 163.395 826.922 163.389Z" fill="#3F1E18"/>
<path d="M847.67 156.969C847.699 156.97 847.727 156.963 847.752 156.95C847.777 156.938 847.799 156.919 847.816 156.896C851.559 151.598 854.775 145.947 857.418 140.024C857.438 139.981 857.44 139.932 857.423 139.887C857.406 139.843 857.373 139.807 857.33 139.787C857.287 139.768 857.238 139.766 857.194 139.783C857.149 139.799 857.113 139.833 857.094 139.876C854.459 145.774 851.255 151.4 847.527 156.675C847.512 156.694 847.502 156.716 847.497 156.739C847.491 156.762 847.49 156.786 847.494 156.81C847.497 156.833 847.506 156.856 847.518 156.876C847.531 156.896 847.547 156.914 847.566 156.927C847.596 156.952 847.632 156.967 847.67 156.969Z" fill="#3F1E18"/>
<path d="M828.165 115.235C827.668 117.468 827.772 119.792 828.468 121.971C829.014 123.19 829.946 124.197 831.12 124.836C832.294 125.475 833.646 125.711 834.967 125.507C837.84 125.322 842.673 123.001 847.036 122.908C851.4 122.815 856.041 126.529 861.24 124.013C866.439 121.498 867.368 113.624 868.854 113.244C870.339 112.863 872.01 123.633 867.832 130.512C863.654 137.391 853.256 138.028 845.272 138.028C837.288 138.028 821.133 134.964 820.207 125.308C819.94 123.235 820.208 121.127 820.986 119.186C821.763 117.245 823.024 115.535 824.648 114.218L828.165 115.235Z" fill="#FEE4E0"/>
</g>
<defs>
<clipPath id="clip0_16_12038">
<rect width="1440" height="352" fill="white"/>
</clipPath>
</defs>
</svg>
